<svg id="Layer_1" data-name="Layer 1" xmlns="http://www.w3.org/2000/svg" viewBox="0 0 1800.8 576.29"><defs><style>.cls-1{fill:#fff;}.cls-2{fill:#ea88a7;}.cls-3{fill:#b786d6;}.cls-4{fill:#e688ab;}.cls-5{fill:#c787c8;}.cls-6{fill:#d088bf;}.cls-7{fill:#e188af;}.cls-8{fill:#b187dc;}.cls-9{fill:#97b4ee;}.cls-10{fill:#a886e4;}.cls-11{fill:#83c8f0;}.cls-12{fill:#faa0d5;}.cls-13{fill:#75d5ee;}.cls-14{fill:#fce9b0;}.cls-15{fill:#c2bbe3;}.cls-16{fill:#fcc0c3;}</style></defs><title>infoJiyeon</title><polygon class="cls-1" points="173.9 263.6 173.9 172.7 16.5 172.7 16.5 263.6 0 263.6 0 19.1 16.5 19.1 16.5 157.4 173.9 157.4 173.9 19.1 190.4 19.1 190.4 263.6 173.9 263.6"/><path class="cls-1" d="M246.2,216.3h10.5V454.8H246.2V363.9H82.8v90.9H72.3V216.3H82.8V354.6H246.2Z" transform="translate(-69.3 -194.2)"/><path class="cls-1" d="M300.8,457.8V309H317V457.8Zm8.1-177.7c-7.75,0-12.2-4.23-12.2-11.6s4.45-11.6,12.2-11.6,12.2,4.23,12.2,11.6S316.65,280.1,308.9,280.1Z" transform="translate(-69.3 -194.2)"/><path class="cls-1" d="M308.9,277.1c-6.2,0-9.2-2.9-9.2-8.6s3.1-8.6,9.2-8.6,9.2,2.9,9.2,8.6S315,277.1,308.9,277.1ZM314,312V454.8H303.8V312Z" transform="translate(-69.3 -194.2)"/><path class="cls-1" d="M355.1,477.8v-18c-6.33-1-9.9-5.53-9.9-12.67,0-8.32,5-12.9,14-12.9s14,4.58,14,12.9a18,18,0,0,1-1.18,6.14l-.07.16-10.69,24.4Z" transform="translate(-69.3 -194.2)"/><path class="cls-1" d="M358.1,474.8V457q-9.9,0-9.9-9.9c0-6.6,3.7-9.9,11-9.9s11,3.3,11,9.9a14.79,14.79,0,0,1-1,5.1l-9.9,22.6Z" transform="translate(-69.3 -194.2)"/><rect class="cls-1" x="445.8" y="19.1" width="16.5" height="244.5"/><path class="cls-1" d="M518.1,216.3h10.5V454.8H518.1Z" transform="translate(-69.3 -194.2)"/><path class="cls-1" d="M558.9,261.19l1.74-.81c11.48-5.33,17.06-14,17.06-26.58V194.2h17.4v39.6c0,10.56-3,19.79-8.93,27.44a46,46,0,0,1-23.39,15.83l-3.88,1.19Z" transform="translate(-69.3 -194.2)"/><path class="cls-1" d="M580.7,233.8V197.2h11.4v36.6c0,10-2.8,18.5-8.3,25.6a42.78,42.78,0,0,1-21.9,14.8V263.1C574.4,257.3,580.7,247.6,580.7,233.8Z" transform="translate(-69.3 -194.2)"/><path class="cls-1" d="M734,457.8V359.4a38.24,38.24,0,0,0-11.25-27.6c-7.59-7.88-16.47-11.7-27.15-11.7s-19.93,4-27.78,11.82S656,348.86,656,359.4v98.4H640V308.7h16.2v14.56a61.7,61.7,0,0,1,14.46-10.69,55.84,55.84,0,0,1,27.54-7.37c9.64,0,19,3.37,27.71,10a56.85,56.85,0,0,1,16.1,19,49.26,49.26,0,0,1,16.79-19.29c9.53-6.46,21.16-9.73,34.6-9.73,13.67,0,25.81,5,36.08,14.83S845,343.36,845,360v97.7H828.8V360c0-11.59-3.67-20.94-11.23-28.59a36.22,36.22,0,0,0-27-11.31c-10.51,0-20,4-28.12,11.86s-12.28,17-12.28,27.44v98.4Z" transform="translate(-69.3 -194.2)"/><path class="cls-1" d="M760.5,317.4c9-6.1,20-9.2,32.9-9.2s24.3,4.7,34,14S842,344.1,842,360v94.7H831.8V360c0-12.3-4-22.5-12.1-30.7a39.36,39.36,0,0,0-29.1-12.2c-11.3,0-21.4,4.2-30.2,12.7s-13.2,18.3-13.2,29.6v95.4H737V359.4a41.16,41.16,0,0,0-12.1-29.7c-8.1-8.4-17.8-12.6-29.3-12.6s-21.4,4.2-29.9,12.7S653,348.1,653,359.4v95.4H643V311.7h10.2v20q6.3-9.6,18.9-16.5a52.71,52.71,0,0,1,26.1-7c9,0,17.6,3.1,25.9,9.4a54.22,54.22,0,0,1,18.1,24.3A45.59,45.59,0,0,1,760.5,317.4Z" transform="translate(-69.3 -194.2)"/><path class="cls-1" d="M1046.9,462.2c-27.47,0-49.07-11.45-64.19-34l-.51-.76V409.3l5.73-1.24a68.55,68.55,0,0,0,23.29,28.18c10.19,7.14,23,10.76,38.18,10.76s28.34-4.9,39.32-14.55S1105.2,410.2,1105.2,394v-1.9a51.16,51.16,0,0,0-7.84-27.51,68.51,68.51,0,0,0-19.84-20.7c-9-6.05-18-11.95-26.92-17.55-9.7-6-18.67-11.82-27-17.22A75,75,0,0,1,1002,288.3a49.26,49.26,0,0,1-8.83-28.1V258c0-15.71,5.18-27.93,15.4-36.32s22.6-12.48,37.2-12.48c20.41,0,36.81,7.65,48.75,22.74l.65.82V250l-5.64,1.42a51.43,51.43,0,0,0-18.72-19.86,50.39,50.39,0,0,0-26.54-7.16c-9.73,0-17.75,2.92-24.51,8.94s-10,13.92-10,24.26v1.6c0,12.44,6.9,23.62,21.09,34.19a209.27,209.27,0,0,0,21.18,13.6c6.61,3.84,15.26,9,24,14.7a181.22,181.22,0,0,1,22,16.79,71.1,71.1,0,0,1,16.59,22.42,66.86,66.86,0,0,1,6.5,29.3v3.2c0,20.94-7.25,37.85-21.53,50.27S1067.69,462.2,1046.9,462.2Z" transform="translate(-69.3 -194.2)"/><path class="cls-1" d="M1072.4,229a53.13,53.13,0,0,0-28.1-7.6c-10.4,0-19.2,3.2-26.5,9.7s-11,15.3-11,26.5v1.6c0,13.4,7.4,25.5,22.3,36.6a210.62,210.62,0,0,0,21.5,13.8c7.9,4.6,15.9,9.4,23.8,14.6a177.68,177.68,0,0,1,21.6,16.5,68.06,68.06,0,0,1,15.9,21.5,63.52,63.52,0,0,1,6.2,28v3.2q0,30.15-20.5,48t-50.7,17.8q-39.75,0-61.7-32.7V409.3a71.19,71.19,0,0,0,24.3,29.4c10.7,7.5,24,11.3,39.9,11.3s29.7-5.1,41.3-15.3,17.5-23.7,17.5-40.7v-1.9a53.87,53.87,0,0,0-8.3-29.1,71.23,71.23,0,0,0-20.7-21.6c-8.3-5.6-17.3-11.5-27-17.6s-18.8-11.9-27-17.2a71.77,71.77,0,0,1-20.7-20,46.11,46.11,0,0,1-8.3-26.4V258c0-14.8,4.8-26.2,14.3-34s21.3-11.8,35.3-11.8q29.25,0,46.4,21.6V250A54.11,54.11,0,0,0,1072.4,229Z" transform="translate(-69.3 -194.2)"/><path class="cls-1" d="M1216.3,461.3c-21.15,0-39.54-8-54.66-23.72s-22.74-34.21-22.74-55c0-20.94,7.8-39.25,23.19-54.44s34.09-23,55.71-23,40.27,7.73,55.52,23,23,33.62,23,54.62-7.55,39.47-22.44,55-33.27,23.52-54.66,23.52Zm1.6-141.2c-17.12,0-31.57,6.22-44.16,19C1161.3,351.73,1155,366.7,1155,383.6c0,17.13,6.12,31.58,18.72,44.18C1186.14,440.2,1201,446.5,1218,446.5c17.25,0,31.55-6.11,43.75-18.69S1280,400.71,1280,383.4s-6-31.77-18.35-44.51C1249.47,326.42,1234.75,320.1,1217.9,320.1Z" transform="translate(-69.3 -194.2)"/><path class="cls-1" d="M1163.8,435.5q-21.9-22.8-21.9-52.9c0-20.1,7.4-37.6,22.3-52.3s32.7-22.1,53.6-22.1,38.7,7.4,53.4,22.1,22.1,32.2,22.1,52.5-7.2,37.9-21.6,52.9-31.9,22.6-52.5,22.6h-2.9Q1185.7,458.3,1163.8,435.5ZM1283,383.4q0-26.85-19.2-46.6t-45.9-19.7q-26.7,0-46.3,19.9c-13,13.2-19.6,28.8-19.6,46.6s6.5,33.2,19.6,46.3,28.5,19.6,46.4,19.6,33.2-6.5,45.9-19.6S1283,401.3,1283,383.4Z" transform="translate(-69.3 -194.2)"/><path class="cls-1" d="M1323.4,521.3v-2.9h-3V308.7h16.2v27.17A70.5,70.5,0,0,1,1359,316.1a78.65,78.65,0,0,1,39.49-10.9c21.62,0,40.37,7.73,55.71,23s23,33.77,23,55-7.73,39.77-23,55-34,23-55.72,23c-13.23,0-26.24-3.6-38.69-10.69a75.45,75.45,0,0,1-23.21-20.26v91Zm75.4-201.1c-17.12,0-31.57,6.22-44.16,19-12.44,12.53-18.74,27.46-18.74,44.39,0,17.13,6.12,31.58,18.72,44.18,12.42,12.42,27.32,18.72,44.28,18.72,17.25,0,31.55-6.11,43.75-18.69,12.11-12.4,18.25-27.31,18.25-44.31,0-17.22-6-31.77-18.35-44.51C1430.37,326.52,1415.65,320.2,1398.8,320.2Z" transform="translate(-69.3 -194.2)"/><path class="cls-1" d="M1323.4,518.4V311.7h10.2v35c5.7-11.7,14.7-21,26.9-28a75.16,75.16,0,0,1,38-10.5c21,0,38.8,7.4,53.6,22.1s22.1,32.4,22.1,52.9-7.4,38.2-22.1,52.9-32.6,22.1-53.6,22.1c-12.7,0-25.1-3.4-37.2-10.3a71.17,71.17,0,0,1-27.7-27.8v98.2h-10.2Zm9.5-134.8q0,26.7,19.6,46.3c13,13,28.5,19.6,46.4,19.6s33.2-6.5,45.9-19.6,19.1-28.5,19.1-46.4-6.4-33.4-19.2-46.6-28.1-19.7-45.9-19.7-33.2,6.6-46.3,19.9C1339.5,350.2,1332.9,365.8,1332.9,383.6Z" transform="translate(-69.3 -194.2)"/><path class="cls-1" d="M1501.3,457.8V213.6h16.2V328.7c11.55-15.67,29-23.6,52-23.6,18.48,0,34.33,6.49,47.12,19.28S1635.8,353,1635.8,371.3v86.3h-16.2V371.3a50.35,50.35,0,0,0-14.75-36.21c-9.8-10.08-21.69-15.19-35.35-15.19s-26,5.16-36.4,15.34-15.6,22.1-15.6,36.06v86.5Z" transform="translate(-69.3 -194.2)"/><path class="cls-1" d="M1514.5,454.8h-10.2V216.6h10.2V339.3q15.9-31.2,55-31.2c17.8,0,32.8,6.2,45,18.4s18.3,27.2,18.3,44.8v83.3h-10.2V371.3A53.09,53.09,0,0,0,1607,333c-10.4-10.7-22.9-16.1-37.5-16.1s-27.5,5.4-38.5,16.2-16.5,23.5-16.5,38.2v83.5Z" transform="translate(-69.3 -194.2)"/><path class="cls-1" d="M1668.8,457.8V309H1685V457.8Zm8.2-177.7c-7.75,0-12.2-4.23-12.2-11.6s4.45-11.6,12.2-11.6,12.2,4.23,12.2,11.6S1684.75,280.1,1677,280.1Z" transform="translate(-69.3 -194.2)"/><path class="cls-1" d="M1677,277.1c-6.2,0-9.2-2.9-9.2-8.6s3.1-8.6,9.2-8.6,9.2,2.9,9.2,8.6S1683.1,277.1,1677,277.1Zm5,34.9V454.8h-10.2V312Z" transform="translate(-69.3 -194.2)"/><path class="cls-1" d="M1792,461.3c-21.49,0-40.17-7.73-55.51-23s-23.19-33.8-23.19-55,7.8-39.85,23.19-55,34-23,55.51-23a79.65,79.65,0,0,1,40.41,11.21,65,65,0,0,1,21.39,19.36V308.8h16.3v149h-16.2V430.17a70.62,70.62,0,0,1-22.18,20.22A77.41,77.41,0,0,1,1792,461.3Zm.5-141.1c-17.12,0-31.57,6.22-44.16,19-12.44,12.43-18.74,27.37-18.74,44.39s6.12,31.58,18.72,44.18c12.42,12.42,27.32,18.72,44.28,18.72,17.24,0,31.55-6.11,43.75-18.69,12.11-12.4,18.25-27.31,18.25-44.31,0-17.22-6-31.78-18.35-44.51C1824.07,326.52,1809.35,320.2,1792.5,320.2Z" transform="translate(-69.3 -194.2)"/><path class="cls-1" d="M1867.1,311.7V454.8h-10.2V419.2a66.34,66.34,0,0,1-26.7,28.6,74,74,0,0,1-38.2,10.5q-31.2,0-53.4-22.1c-14.8-14.7-22.3-32.4-22.3-52.9s7.4-38.2,22.3-52.9,32.6-22.1,53.4-22.1a76.19,76.19,0,0,1,38.9,10.8c12.4,7.2,21,16.7,25.9,28.6V311.8h10.3Zm-140.5,71.9q0,26.7,19.6,46.3c13,13,28.5,19.6,46.4,19.6s33.2-6.5,45.9-19.6,19.1-28.5,19.1-46.4-6.4-33.4-19.2-46.6-28.1-19.7-45.9-19.7-33.2,6.6-46.3,19.9C1733.1,350.2,1726.6,365.8,1726.6,383.6Z" transform="translate(-69.3 -194.2)"/><path class="cls-2" d="M546.28,589.68q0-12.42,0-24.83c0-1.78.2-1.57-1.63-1.57H506.23c-1.51,0-1.51,0-1.51-1.57V549.36h56.4v60.93q0,31,0,61.94A70.15,70.15,0,0,1,559.44,687a58.48,58.48,0,0,1-5.39,15,55.31,55.31,0,0,1-8.19,11.62A46.73,46.73,0,0,1,531,724.49a47.33,47.33,0,0,1-13.24,3.93,67.35,67.35,0,0,1-12.36.68A51.34,51.34,0,0,1,485,724.31,60,60,0,0,1,470.74,715a5.46,5.46,0,0,0-.82-.47v-20.4c.71,0,.81.67,1.18,1,3,3,5.52,6.29,8.63,9.1A40.81,40.81,0,0,0,498,714.12a42.72,42.72,0,0,0,12.29,1,39.49,39.49,0,0,0,12.14-2.48,32.22,32.22,0,0,0,10.33-6.4,39.31,39.31,0,0,0,8.51-11.46,47.13,47.13,0,0,0,4.28-13.74,61.59,61.59,0,0,0,.7-10q0-23.91,0-47.84c0-.56,0-1.12,0-1.68a9.63,9.63,0,0,1,3.48-1.21,6.56,6.56,0,0,0,2.25-1c2.51-1.35,3.73-3.87,5.54-5.85a3.56,3.56,0,0,0,.63-1.28,21.83,21.83,0,0,0,1.19-8.37,3.92,3.92,0,0,0-.39-1.49,63.21,63.21,0,0,0-4.46-7.79,5.21,5.21,0,0,0-2-1.83,9.78,9.78,0,0,1-2.23-1.6,3.76,3.76,0,0,0-3-1.22A1.13,1.13,0,0,1,546.28,589.68Z" transform="translate(-69.3 -194.2)"/><path class="cls-3" d="M1173.16,664.8c0-4.11,0-8.23,0-12.34V549.36h14.64v90.37c0,.68,0,1.36,0,2a5,5,0,0,1-1.61,1.42,6.3,6.3,0,0,0-2.31,2.36c-1.13,2.15-2.94,3.85-4.09,6-1.63,3-3.58,5.93-4.41,9.35a24.69,24.69,0,0,1-1.45,3.53C1173.73,664.72,1173.6,665.05,1173.16,664.8Z" transform="translate(-69.3 -194.2)"/><path class="cls-4" d="M705.4,726.48c.73-3.83.34-7.69.45-11.52-.37-.15-.49.12-.63.27a40.61,40.61,0,0,1-21.61,11.71,64.13,64.13,0,0,1-14.68,1.2A46,46,0,0,1,653,724.89,44.73,44.73,0,0,1,640.86,718c-9.17-7.51-15.61-16.78-17.85-28.64a48.34,48.34,0,0,1-.94-9q0-30.9,0-61.79c0-2-.28-1.74,1.81-1.75,3.8,0,7.6.05,11.39,0,1.14,0,1.47.25,1.47,1.43q-.06,31.62,0,63.23a29.77,29.77,0,0,0,4.56,15.43,39.32,39.32,0,0,0,12.48,12.73,31,31,0,0,0,11.8,4.44,33.83,33.83,0,0,0,17.88-1.75,30.36,30.36,0,0,0,8.92-5.34,39.94,39.94,0,0,0,8.85-10.07,32.72,32.72,0,0,0,4.39-12.46,42.34,42.34,0,0,0,.2-5.84q0-30.18,0-60.35c0-1.17.3-1.47,1.45-1.45,4,.08,8,.05,12,0,.88,0,1.24.15,1.24,1.16,0,34.8,0,69.59-.07,104.38a43,43,0,0,1-3.54,16.13,9.21,9.21,0,0,1-1.19,2.44c-.42.13-.56-.22-.73-.46a21.58,21.58,0,0,0-3.43-4.11c-1.28-1.08-1.9-2.83-2.78-4.31C707.66,730.16,706.65,728.24,705.4,726.48Z" transform="translate(-69.3 -194.2)"/><path class="cls-5" d="M972.77,634.81c0-5.72,0-11.44-.06-17.15,0-.71.27-.87.91-.87,4.2,0,8.4,0,12.6,0,.79,0,.92.32.91,1,0,3.6,0,7.2,0,10.88.6-.14.87-.61,1.2-1a38.52,38.52,0,0,1,11.22-8.33,47,47,0,0,1,14-4.29,59.46,59.46,0,0,1,11.53-.65,50.11,50.11,0,0,1,18,4.17A47.78,47.78,0,0,1,1059.42,631a45.79,45.79,0,0,1,10.75,22,61.47,61.47,0,0,1,1,11.72q0,29.82,0,59.63c0,1.15-.28,1.47-1.45,1.45-4-.08-7.91-.07-11.87,0-1.12,0-1.38-.32-1.38-1.4q.06-31.3,0-62.62a32,32,0,0,0-4.93-16.89,36.65,36.65,0,0,0-11.19-11.69,30.8,30.8,0,0,0-13.74-4.89,33.74,33.74,0,0,0-16.55,2.19,37.69,37.69,0,0,0-10.51,6.6,41.53,41.53,0,0,0-8.38,10.12,44.66,44.66,0,0,0-2.58,5.84c-.78-.09-.74-.79-.81-1.27a22.38,22.38,0,0,0-4.83-10.28,17,17,0,0,0-9.76-6.46A.93.93,0,0,1,972.77,634.81Z" transform="translate(-69.3 -194.2)"/><path class="cls-6" d="M863,713.29a7.56,7.56,0,0,1-2.64-2.35,68.42,68.42,0,0,1-7.71-9.75,60.12,60.12,0,0,1-3.75-6.87,14.21,14.21,0,0,1,4.64-1,28.61,28.61,0,0,0,6.2-1.29,21.9,21.9,0,0,1,3.41-.68c.68,0,.9.58,1.19,1a48.15,48.15,0,0,0,7.33,9.3c6.13,6,13.26,10.27,21.81,11.78,9.88,1.75,19.35.59,28.18-4.42a44.45,44.45,0,0,0,10.14-8.15,43.87,43.87,0,0,0,7.81-11.14,38.07,38.07,0,0,0,3.66-12.36,44.22,44.22,0,0,0-1.85-19.87,42.62,42.62,0,0,0-9.82-15.73,47.44,47.44,0,0,0-9.2-7.64,1.54,1.54,0,0,1-.81-.85,1.13,1.13,0,0,1,.11-.92c1-1.27,1-2.82,1.33-4.28a.77.77,0,0,1,.06-.23c1.2-2.23.85-4.69,1-7.06,0-.52.06-1,.56-1.37a56.13,56.13,0,0,1,19,13.71,50.59,50.59,0,0,1,7.12,9.58c-.06,1-.84,1.58-1.33,2.34a4.68,4.68,0,0,0-.66,1c-1.18,3.62-2.1,7.33-1.48,11.14a21,21,0,0,0,6.44,12.33,29.22,29.22,0,0,0,4.65,3.46,47.58,47.58,0,0,1-.72,7.91,53.91,53.91,0,0,1-5.7,16.76,58.86,58.86,0,0,1-7.23,10.55c-1.8,2.07-3.74,4-5.7,5.89a53.28,53.28,0,0,1-10,7.35,43,43,0,0,1-6.21,3,5.51,5.51,0,0,1-.8.2,5.86,5.86,0,0,1-2.81-.43,4.74,4.74,0,0,0-2.86-.58.26.26,0,0,1-.23,0c-1.27-1.23-3.19-.92-4.55-1.93a1.79,1.79,0,0,0-1.09-.47c-1.84.15-3.6-.63-5.44-.42a1.62,1.62,0,0,1-1-.22,15,15,0,0,0-6.81-1.82,12.07,12.07,0,0,1-2.48-.37c-.31-.09-.67-.18-.91.08s0,.61.1.88a16,16,0,0,0,2.48,3.79c.85.89,2.11,1.08,3.07,1.8,1.12.84,2,1.77,1.89,3.3a51.45,51.45,0,0,1-27.75-6.84c.22-.66.73-.74,1.33-.74,1.71,0,3-.65,3.15-1.62.15-.8-1.25-2.32-2.52-2.74a1.52,1.52,0,0,0-.58-.13c-2.14.29-3.93-.78-5.8-1.5a6,6,0,0,0-2.68-.48A6.81,6.81,0,0,1,863,713.29Z" transform="translate(-69.3 -194.2)"/><path class="cls-7" d="M779.76,727.4a53.37,53.37,0,0,1-23.29-10.71,68.16,68.16,0,0,1-10.25-10.13,56.42,56.42,0,0,1-10.5-19.44,53.26,53.26,0,0,1-1.83-9,52.56,52.56,0,0,1-.44-8.68,53.6,53.6,0,0,1,3.78-18.63,29.32,29.32,0,0,1,2.47-5.26,10.42,10.42,0,0,1,2.74,3.1,38.35,38.35,0,0,0,3.73,4.61,39.94,39.94,0,0,1,4.06,4.46,6.51,6.51,0,0,1-.39,2,41.69,41.69,0,0,0,2.57,29.18,39,39,0,0,0,3.45,6c.76,1.08.81,1.09,1.77.14q8.13-8.13,16.27-16.26c.44-.44.82-1,1.5-1.13,1.47.74,3.09,1.22,4.35,2.37a3,3,0,0,0,1.91.85,7.25,7.25,0,0,1,2.65,1c1.13.56,2.19,1.27,3.34,1.83.41.19.88.44.77,1.06-1.77,1.79-3.51,3.6-5.3,5.37q-7.83,7.75-15.71,15.45c-.67.65-.51.94.14,1.38a45.31,45.31,0,0,0,15.67,7.14,36.71,36.71,0,0,0,10.77.45,41.81,41.81,0,0,0,10.28-2.21,46,46,0,0,0,14.6-8.47,65.63,65.63,0,0,0,8.64-9.31,4.41,4.41,0,0,1,3.77-.38,5.93,5.93,0,0,0,2.76.38.77.77,0,0,1,.64.24q0,6.71.05,13.39a1.56,1.56,0,0,1-.57,1.24c-.62.57-1.22,1.15-1.82,1.72a3.67,3.67,0,0,1-2.13-.07,3.47,3.47,0,0,0-2.89.25c-1.36.74-2.88.55-4.32.83-.16,0,0,0-.12,0-3.56,1.55-7.78.78-11.13,3.11a2,2,0,0,1-1.11.41c-2.91,0-5.36,1.51-8,2.41-1.25.42-2.52.75-3.78,1.14a48.42,48.42,0,0,0-9.29,4.1,2,2,0,0,1-1.34.46,4.65,4.65,0,0,0-3.06.81C783.38,725.52,781.53,726.39,779.76,727.4Z" transform="translate(-69.3 -194.2)"/><path class="cls-8" d="M1256.19,639.61a59.89,59.89,0,0,1,22.69-19.43,55.59,55.59,0,0,1,14.55-4.57,61.78,61.78,0,0,1,13.64-1,54.68,54.68,0,0,1,26.41,8A69,69,0,0,1,1347.19,634c.35.37.62.82,1,1.19,1.69,1.76,1.74,1.8-.08,3.51-7,6.63-13.66,13.7-20.66,20.37-3.47,3.3-6.73,6.81-10.29,10a.8.8,0,0,1-.69-.06c-3.64-1.78-7.35-3.39-11-5.13-.7-.33-1.59-.27-2.1-1,0-.74.61-1.1,1-1.53q11.4-11.43,22.82-22.83c.23-.23.44-.47.68-.68.7-.58.54-1-.14-1.5a41.81,41.81,0,0,0-7-4,42.51,42.51,0,0,0-19.84-3.77,37.75,37.75,0,0,0-20.35,7.06,53.92,53.92,0,0,0-8.66,7.73c-.27.29-.52.62-1,.65a3.47,3.47,0,0,1-1.65-.63,6.26,6.26,0,0,0-1.87-.77,11.33,11.33,0,0,1-3.48-1.16,2.31,2.31,0,0,0-1.26-.33c-1.81,0-3.43-.92-5.22-1A1.61,1.61,0,0,1,1256.19,639.61Z" transform="translate(-69.3 -194.2)"/><path class="cls-9" d="M848.37,692.89a34.62,34.62,0,0,1-2.79-7.93A56.21,56.21,0,0,1,851,643.78a61.21,61.21,0,0,1,12-14.73,56.75,56.75,0,0,1,15.57-9.95,58.74,58.74,0,0,1,14.82-4.16,50.3,50.3,0,0,1,10.48-.52,59.68,59.68,0,0,1,18.27,3.85,7.11,7.11,0,0,1,.95.49,1.52,1.52,0,0,1,.06,2.16,3.25,3.25,0,0,0-.7,2.22,1.29,1.29,0,0,1,0,.59c-1.23,2.56-1.21,5.38-1.76,8.09a1.26,1.26,0,0,1-.35.61c-.5.29-.93,0-1.36-.19a41.43,41.43,0,0,0-43.57,5.6c-7.42,6.19-12.92,13.73-15.26,23.24a42,42,0,0,0,1.66,26c.38,1,1.23,1.82.89,3a13.94,13.94,0,0,1-4.49,1.55c-2.79.47-5.58,1.05-8.39,1.43A1.58,1.58,0,0,1,848.37,692.89Z" transform="translate(-69.3 -194.2)"/><path class="cls-10" d="M1367.56,639.84a57.71,57.71,0,0,1,10-11.13,54.9,54.9,0,0,1,12.91-8.59,57.75,57.75,0,0,1,14.53-4.55,62.75,62.75,0,0,1,14.72-.88,53.34,53.34,0,0,1,17,3.71,58.45,58.45,0,0,1,15.31,9.18,91.58,91.58,0,0,1,8.9,8.83c.59.64,0,.83-.29,1.1-3.52,3.55-7.06,7.06-10.58,10.61-2.42,2.44-4.86,4.84-7.44,7.1-1.32-.06-2.63-.12-3.93-.27-1.1-.12-2.18.2-3.31.11l-4.63-.41a13.73,13.73,0,0,0-3.32.16,13.59,13.59,0,0,1-4.59.32c-.54-.63.11-.92.41-1.26,1-1.18,2.29-2.11,3.4-3.2,4.29-4.25,8.53-8.54,12.83-12.79.63-.62.61-.92-.1-1.42a41.9,41.9,0,0,0-20.07-7.61A40.23,40.23,0,0,0,1404,630a39,39,0,0,0-14.13,7.41,51.48,51.48,0,0,0-11.86,13.4c-.48.81-.65,1.83-1.54,2.37-.6,0-.76-.47-1-.85-2.36-3.26-4.17-6.85-6.29-10.25A12.09,12.09,0,0,0,1367.56,639.84Z" transform="translate(-69.3 -194.2)"/><path class="cls-2" d="M601.68,671.41q0,26.45,0,52.9c0,1.12-.21,1.51-1.42,1.48-4-.08-8,0-12,0-.76,0-1.06-.2-1-1,.06-1.28,0-2.56,0-3.84V618.61c0-1.57,0-1.57,1.51-1.57,3.84,0,7.68,0,11.52,0,1.07,0,1.4.24,1.4,1.36Q601.65,644.9,601.68,671.41Z" transform="translate(-69.3 -194.2)"/><path class="cls-11" d="M781.68,615.4a65.94,65.94,0,0,1,12-.75A55.06,55.06,0,0,1,814,619.17a56.53,56.53,0,0,1,14.28,9.1,100.34,100.34,0,0,1,8.19,8.18c.51.55.2.81-.16,1.16q-3.63,3.55-7.28,7.09c-5.62,5.45-11,11.16-16.67,16.57-6.61,6.32-12.95,12.9-19.49,19.3-.65.63-1.39,1.18-2.08,1.77-.57.34-1.07.06-1.58-.15-2.38-1-4.71-2.07-7.09-3.05a16.15,16.15,0,0,1-5.09-3c-.11-.68.44-1,.81-1.37,2.66-2.72,5.46-5.28,8.15-7.95,9.51-9.43,19-18.92,28.42-28.39.23-.23.44-.46.68-.68.58-.52.44-.89-.16-1.31A44.15,44.15,0,0,0,807,632a41.77,41.77,0,0,0-17.15-3.41c-.62,0-1.29.17-1.84-.31a18.65,18.65,0,0,1-.87-3.36c-.13-.61-.31-1-1-.9a2,2,0,0,1-2-1.3,7.29,7.29,0,0,0-1.78-2.38c-.07-.05-.16-.1-.17-.17C782,618.59,781.21,617.07,781.68,615.4Z" transform="translate(-69.3 -194.2)"/><path class="cls-2" d="M705.4,726.48c1,.4,1.29,1.45,1.79,2.26,1.4,2.25,2.45,4.79,4.15,6.78,1.5,1.76,3,3.51,4.36,5.37a39.09,39.09,0,0,1-5.11,8.8,47.87,47.87,0,0,1-7,7.66,50.24,50.24,0,0,1-22.91,11.92,59.73,59.73,0,0,1-16.85,1.06,47.68,47.68,0,0,1-27-10A57.55,57.55,0,0,1,626.74,750a1.07,1.07,0,0,1-.34-.74c.11-1.83-.24-3.67.21-5.48a2.58,2.58,0,0,0,0-.48,80.3,80.3,0,0,1,.31-9.56c.19-3-.15-6,.57-9.27.89,1.48,1.68,2.78,2.44,4.08,2.56,4.37,4.88,8.9,8.12,12.83a47.33,47.33,0,0,0,12.82,10.7,35.6,35.6,0,0,0,12.23,4.34,37.63,37.63,0,0,0,10.28.12,32,32,0,0,0,11.53-3.44,39.74,39.74,0,0,0,17.74-18.16A35.19,35.19,0,0,0,705.4,726.48Z" transform="translate(-69.3 -194.2)"/><path class="cls-12" d="M1315,671.3a100.17,100.17,0,0,1-7.49,7.37c-.28.23-.52.5-.77.75-5.2,5.19-10.34,10.45-15.61,15.56-3.57,3.47-7.13,7-10.68,10.46-.71.7-.87,1.09.12,1.64,1.28.71,2.48,1.56,3.72,2.35a1.48,1.48,0,0,1-.19,1.68,13,13,0,0,0-1.94,6.19c-.1,1.88-.89,3.62-1.22,5.46a.76.76,0,0,1-.5.62,47.06,47.06,0,0,1-11.08-6.67,56.16,56.16,0,0,1-6.31-5.62,63.85,63.85,0,0,1-7.29-8.93c-.12-.2-.2-.42-.3-.63-.27-2,.84-3.52,1.58-5.16a41.61,41.61,0,0,1,3.2-6.14c.86-1.28,2.11-2.27,3-3.56a.56.56,0,0,1,.55-.16c.56.21.68.74.88,1.21a43.73,43.73,0,0,0,4,7.1c.86,1.23.9,1.23,2,.11l28-28c.47-.46.86-1.08,1.63-1.12,2.13.33,4.22.8,6.3,1.31a34.63,34.63,0,0,1,7.67,3.22C1314.57,670.54,1315.05,670.72,1315,671.3Z" transform="translate(-69.3 -194.2)"/><path class="cls-13" d="M1205.28,725.7l-13.69,0c-.74-.37-.95-1.2-1.5-1.74a5.89,5.89,0,0,1-.32-.54,5.47,5.47,0,0,0-.41-.65c-.06-.09-.12-.18-.17-.27a3.94,3.94,0,0,0-1.11-1.36,1.62,1.62,0,0,1-.17-.32c-.53-1.08-1.22-2.06-1.85-3.08-2.1-3.4-3.71-7.06-5.59-10.58-1-1.77-1.23-3.87-2.29-5.64-.32-.55-.56-1.15-.93-1.67-1.28-1.77-1-4-1.81-5.91a28.35,28.35,0,0,1-1.29-5.81,38.82,38.82,0,0,1-.34-5.49c-.11-3.06-.44-6.14.19-9.19,0-.19,0-.42.06-.59,1.22-2.29.85-4.92,1.55-7.33.59-2.07,1.86-3.78,2.64-5.74a15.8,15.8,0,0,0,1.12-2.76,1.76,1.76,0,0,1,.32-.77c1.26-1.51,1.89-3.43,3.22-4.89a12.94,12.94,0,0,0,1.78-2.53,2.79,2.79,0,0,1,3-1.34l0,28.89c0,11.35,0,22.7,0,34.05,0,1.06.22,1.43,1.36,1.41,4.28,0,8.55,0,12.83,0a1.62,1.62,0,0,1,.27,1.47,8.06,8.06,0,0,0,.85,4.84,10.19,10.19,0,0,1,1.45,4.26,6.22,6.22,0,0,0,.69,1.9C1205.36,724.8,1205.66,725.23,1205.28,725.7Z" transform="translate(-69.3 -194.2)"/><path class="cls-6" d="M987.08,663.84c0,.4,0,.8,0,1.19q0,29.64,0,59.27c0,1.26-.36,1.51-1.53,1.49-4-.07-7.92,0-11.88,0-.63,0-1,0-1-.87q.06-24.89.06-49.79c1.25-1,2.83-1.23,4.23-1.89a14.32,14.32,0,0,0,5-3.65,4.56,4.56,0,0,1,.95-.91,6.8,6.8,0,0,0,2.45-3.17C985.69,664.74,986,663.83,987.08,663.84Z" transform="translate(-69.3 -194.2)"/><path class="cls-13" d="M781.68,615.4a3.27,3.27,0,0,0,.38,2,1.12,1.12,0,0,1,.22.67c-.59,2.42,2.05,3.22,2.56,5.11.18.67,1,.75,1.66.57.44-.13.89-.17.89.37,0,1.46.77,2.76.77,4.2-1.17.77-2.54.55-3.82.73a38.41,38.41,0,0,0-18.72,8.27,49.68,49.68,0,0,0-13,15.32,17.57,17.57,0,0,0-1,2.06,1.73,1.73,0,0,1-.81,1.13,2.31,2.31,0,0,1-1.83-.95c-2.51-2.65-4.67-5.61-7.17-8.27a14,14,0,0,1-1.45-2.18,30.68,30.68,0,0,1,3.79-6,55.38,55.38,0,0,1,6.39-7.37,56.31,56.31,0,0,1,31.12-15.62Z" transform="translate(-69.3 -194.2)"/><path class="cls-14" d="M1399.67,726.25a47.44,47.44,0,0,1-11.56-4.76,61.38,61.38,0,0,1-15.66-12.8,49.56,49.56,0,0,1-9-13.4c0-.71.63-.76,1.08-.88,3-.78,5.72-2.33,8.63-3.38a11,11,0,0,1,3.57-.84c.66,0,.94.52,1.24,1,.8,1.29,1.54,2.62,2.41,3.86.45.65.83.73,1.4.12s.84-1.09,1.59-1.19c2.64.95,4.7,2.78,6.81,4.54,1.31,1.09,2.86,1.91,3.79,3.42.2.32.6.55.46,1-.77.8-1.48,1.67-2.32,2.39s-.67,1.13.23,1.75a51.66,51.66,0,0,0,10.24,5.47,9.91,9.91,0,0,1,.19,3.63c-.36,2.46-1.16,4.85-1.41,7.35C1401.23,724.63,1400.35,725.43,1399.67,726.25Z" transform="translate(-69.3 -194.2)"/><path class="cls-14" d="M1310.16,714.22c1.79-.47,3.59-.89,5.36-1.41a44.91,44.91,0,0,0,16.23-9,59.44,59.44,0,0,0,8.4-9,36,36,0,0,0,4,1c.67,0,1.34,0,2,0a2,2,0,0,1,1.42.5c0,3.84,0,7.68,0,11.52a2.35,2.35,0,0,1-.66,1.73,59.9,59.9,0,0,1-18,13.68,44.18,44.18,0,0,1-11.14,3.8,68.44,68.44,0,0,1-4.7-7.32c-.88-1.51-2.18-2.75-2.79-4.43C1310.24,714.89,1310,714.61,1310.16,714.22Z" transform="translate(-69.3 -194.2)"/><path class="cls-15" d="M1263.82,686.64c-.91.1-.84,1.07-1.37,1.53-2.64,2.31-3.8,5.56-5.31,8.58-.24.5-.45,1-.68,1.52-.37.8-1.07,1.5-.57,2.52.14.3-.15.59-.47.74a35.94,35.94,0,0,1-4.46-7.86,53.52,53.52,0,0,1-3.79-12.25,69.14,69.14,0,0,1-.84-14.15,7.3,7.3,0,0,1,.27-1.28,58,58,0,0,1,12.15-8.57c.78-.4,1.64-.61,2.44-1a2.84,2.84,0,0,0,1.75-1.81c.33-1,.89-1.21,1.71-.7-.39,1.6-1.13,3.07-1.62,4.63a39,39,0,0,0-1.75,10.84,43,43,0,0,0,2.51,16.11C1263.93,685.88,1264.14,686.26,1263.82,686.64Z" transform="translate(-69.3 -194.2)"/><path class="cls-16" d="M1399.67,726.25c0-.23,0-.53.15-.68,1.94-2.29,1.28-5.32,2.28-7.86.66-1.69-.06-3.46.46-5.13a32.67,32.67,0,0,0,14.27,2.11,44.94,44.94,0,0,0,16.69-4.41,2.32,2.32,0,0,1,.45-.13,4,4,0,0,1,1.65,3.73,4.52,4.52,0,0,0,.11,2.93,3,3,0,0,1-.15,2.3,15,15,0,0,0-.8,3.68,6.72,6.72,0,0,1-1.26,3,33,33,0,0,1-7.57,1.87,59.24,59.24,0,0,1-13,.71A48.63,48.63,0,0,1,1399.67,726.25Z" transform="translate(-69.3 -194.2)"/><path class="cls-16" d="M1310.16,714.22a134,134,0,0,0,7.29,11.53,1.85,1.85,0,0,1,.4,1.22,31.79,31.79,0,0,1-6.49,1.16,60.83,60.83,0,0,1-10,.25,54.65,54.65,0,0,1-20.26-4.55,5.1,5.1,0,0,1-.69-.45,62.58,62.58,0,0,0,1.71-8.36,8.26,8.26,0,0,1,1.48-3.71,3.87,3.87,0,0,0,.66-1.88,44,44,0,0,0,11.7,4.66,33.74,33.74,0,0,0,10.89.43C1307.94,714.39,1309.05,714.32,1310.16,714.22Z" transform="translate(-69.3 -194.2)"/><path class="cls-12" d="M1433.52,725.79a1.61,1.61,0,0,1,.46-1.31,1.16,1.16,0,0,0,.33-1.49s0-.09,0-.11c.7-1.25.44-2.74,1-4a2,2,0,0,0,.23-1.65,5.7,5.7,0,0,1-.21-3.55c.34-1.21-.56-2.47-1.34-3.54a71,71,0,0,0,8.68-5.82,51.78,51.78,0,0,0,8.37-8.76c.67-.88,1.29-1.8,1.93-2.71a3.08,3.08,0,0,1,1.9,1.54c1,1.66,2.05,3.32,3,5,.57,1,.5,2.36,1.36,3.28a23.85,23.85,0,0,0,0,3.59c.27,1.79-.57,3-1.7,4.19A59.13,59.13,0,0,1,1439,723.84,27.08,27.08,0,0,1,1433.52,725.79Z" transform="translate(-69.3 -194.2)"/><path class="cls-8" d="M1367.56,639.84a1.5,1.5,0,0,1,1.15.91c1.54,2.66,3.07,5.33,4.7,8a34.83,34.83,0,0,0,3,4.35.93.93,0,0,1-.08,1,35.68,35.68,0,0,0-3,9.52,2,2,0,0,1-.4,1,40.48,40.48,0,0,0-9.22,6,12.28,12.28,0,0,1-4.86,2.45c-.32.08-.62.19-.89-.08a52.46,52.46,0,0,1,4.73-24.71A51.64,51.64,0,0,1,1367.56,639.84Z" transform="translate(-69.3 -194.2)"/><path class="cls-16" d="M1394.41,703c-1.13-1.37-2.11-2.85-3.83-3.65a7.17,7.17,0,0,1-1.85-1.61c-1.56-1.56-3.57-2.45-5.37-3.64-.12-.59.35-.87.68-1.18,5.12-4.86,10.1-9.87,15.1-14.86a1.51,1.51,0,0,1,1.1-.65.71.71,0,0,1,.43.19,4.22,4.22,0,0,0,2.52,1.3,18.73,18.73,0,0,1,3.84,1.89c2,1,3.78,2.39,5.91,3.11a.73.73,0,0,1,.44.39c-2.36,2.47-4.81,4.86-7.31,7.2-3.31,3.11-6.45,6.41-9.67,9.62C1395.75,701.72,1395.07,702.34,1394.41,703Z" transform="translate(-69.3 -194.2)"/><path class="cls-4" d="M604.56,590.09a9.51,9.51,0,0,1-1.25,5.31c-1.39,2.46-3.68,3.55-6.25,4.07a13.76,13.76,0,0,1-6.79-.42,8.09,8.09,0,0,1-5.69-6.13,11,11,0,0,1,1-8.57,8.47,8.47,0,0,1,6-4,13.45,13.45,0,0,1,7.14.47,8.5,8.5,0,0,1,5.75,8Z" transform="translate(-69.3 -194.2)"/><path class="cls-12" d="M1413.38,684.26c-2.21-.42-3.91-1.88-5.85-2.85-1.45-.73-2.85-1.55-4.28-2.33a.63.63,0,0,0-.45-.09c-.94.34-1.49-.1-2-.86-.15-.26-.48-.41-.72-.61-.1-.58.37-.85.69-1.17q6-6.06,12.08-12.08c.35-.35.66-.83,1.28-.74a29.32,29.32,0,0,0,3.37,1.19,11.82,11.82,0,0,1,3.69,2.13,3.08,3.08,0,0,0,1.24.68,5.19,5.19,0,0,1,2.25,1.05c.9.77,2.15.76,3,1.51-1.9,1.86-3.82,3.71-5.72,5.58C1419.15,678.52,1416.27,681.39,1413.38,684.26Z" transform="translate(-69.3 -194.2)"/><path class="cls-3" d="M1190,725.72c-5.32,0-10.63,0-16,.06-1.07,0-.88-.65-.88-1.26V694.9c0-1.16,0-2.32,0-3.48,1,.44,1.12,1.43,1.18,2.29a7.05,7.05,0,0,0,.9,2.95,7.77,7.77,0,0,1,1.17,3.37,2.34,2.34,0,0,0,.32,1c1.41,2.55,2.4,5.31,3.71,7.9a115.53,115.53,0,0,0,9,15.29C1189.72,724.66,1190.23,725.07,1190,725.72Z" transform="translate(-69.3 -194.2)"/><path class="cls-16" d="M1377,690.44c-2.4.08-4.52,1.17-6.64,2.07-1.75.75-3.49,1.47-5.29,2.06-.56.19-1.18.22-1.6.72a41.9,41.9,0,0,1-3.81-10c-.39-1.44-.64-2.91-.95-4.38,1.24-.79,2.67-1.19,4-1.92a23.94,23.94,0,0,0,6.33-5,6.93,6.93,0,0,1,2.68-1.75.8.8,0,0,1,1.08.17c.27,1.61.27,3.25.52,4.87a44.77,44.77,0,0,0,3.51,11.54C1377,689.28,1377.34,689.83,1377,690.44Z" transform="translate(-69.3 -194.2)"/><path class="cls-15" d="M1427.77,670.09c-1.43-.1-2.5-1.12-3.75-1.55-2.79-1-4.84-3.29-7.75-4-.74-.19-1.74,0-2.2-.95-.11-.43.19-.68.43-.93,1.74-1.76,3.49-3.52,5.26-5.25a2,2,0,0,1,1-.58c1.56-.35,3.15-.55,4.67-1a5.32,5.32,0,0,1,2.13-.13c1.87.17,3.73-.14,5.59.06a.62.62,0,0,0,.23,0c2.44-.86,4.75.83,7.17.34a.89.89,0,0,1,.87.3c-1.59,1.62-3.16,3.26-4.76,4.86C1433.73,664.22,1430.75,667.15,1427.77,670.09Z" transform="translate(-69.3 -194.2)"/><path class="cls-15" d="M1224.71,711.88q7.24,0,14.5,0c.7,0,.88.26.88.92q0,6,0,12.1c0,.66-.18.93-.88.92-4.11,0-8.23,0-12.34,0a2.25,2.25,0,0,1-.77-1.18,4.69,4.69,0,0,0-.33-1,7.75,7.75,0,0,1-.84-6.26c.28-1.07-.32-2.25-.56-3.38A1.92,1.92,0,0,1,1224.71,711.88Z" transform="translate(-69.3 -194.2)"/><path class="cls-11" d="M972.76,671.76q0-7,0-13.93a8.64,8.64,0,0,0,1.69-2.15,3.78,3.78,0,0,1,1.73-1.42,6.18,6.18,0,0,0,2.68-2.65,21.59,21.59,0,0,1,1.85-2.34.86.86,0,0,1,.74-.34c1.11,0,1.29-.65,1.27-1.57,0-.7-.12-1.62.74-1.84s1.21.71,1.59,1.33a9,9,0,0,1,1.41,5.35c-.07,1.55,0,3.11-.24,4.65a16.6,16.6,0,0,1-1,2.94,23,23,0,0,1-3.4,6.08,17.31,17.31,0,0,1-8.1,6A.9.9,0,0,1,972.76,671.76Z" transform="translate(-69.3 -194.2)"/><path class="cls-11" d="M1205.28,725.7c0-.68-.5-1.16-.65-1.77a38.72,38.72,0,0,0-2.54-7.12c-.71-1.49-.22-3.27-.17-4.91h13.68c.36,2.1.7,4.2,1.07,6.3a32.72,32.72,0,0,1,1,6.47c0,.35.14.71-.12,1Z" transform="translate(-69.3 -194.2)"/><path class="cls-11" d="M829,714.49l-2.66,2.19a3.84,3.84,0,0,0-1.41.6,2,2,0,0,1-2.06.15,1.53,1.53,0,0,0-1.78.15c-1.32.84-2.73,1.51-4.11,2.22s-3,.92-4.48,1.6a66,66,0,0,1-8.53,3.15,7.63,7.63,0,0,0-2.93,1.59c-.26.25-.57.59-.92.51-1.57-.37-2.55.56-3.56,1.49-.18.08-.36.24-.54.24-3-.08-6,.28-9-.18-1-.15-2,.21-2.92-.26a20.36,20.36,0,0,1,5.86-3.18c4.84-1.74,9.69-3.44,14.51-5.25,1.23-.47,2.56-.57,3.83-1a23.65,23.65,0,0,0,3.94-1.4c.89-.45,1.93-.17,2.82-.52,1.75-.68,3.61-1,5.32-1.8a2.29,2.29,0,0,1,2-.17c.63.26,1.15-.11,1.71-.32C825.68,713.71,827.37,713.26,829,714.49Z" transform="translate(-69.3 -194.2)"/><path class="cls-9" d="M1264.52,653.75a1.31,1.31,0,0,0-1.42,1.3,1.47,1.47,0,0,1-1,1.25,59.34,59.34,0,0,0-10.72,5.94,4.57,4.57,0,0,0-1.12,1,8.27,8.27,0,0,1-3.69,2.72,41.5,41.5,0,0,1,1.7-9.83c1-1,2.41-1.38,3.57-2.15,1.59-1.06,3.42-1.75,4.71-3.24a1.94,1.94,0,0,1,1.69-.43,12.19,12.19,0,0,0,2.26,0c.75-.12,1.06-.41.75-1.22-.69-1.83-.32-2.41,1.66-2.57,1.8-.15,3.68-.69,5.21.87a.89.89,0,0,1-.16,1,48,48,0,0,0-2.92,4.93A.69.69,0,0,1,1264.52,653.75Z" transform="translate(-69.3 -194.2)"/><path class="cls-9" d="M972.76,671.76c2.53-.33,4.32-2,6.36-3.33s2.71-4,4.65-5.46c0,0,.07-.06.07-.09.37-2.45,2.27-4.45,2.24-7,0-2,.36-4.1-.12-6.15A14.06,14.06,0,0,0,984.2,646a.61.61,0,0,0-.57-.36.62.62,0,0,0-.51.6c-.07.67-.07,1.35-.08,2,0,.43-.1.94-.58.89-1.93-.23-2.51,1.43-3.2,2.53a8.31,8.31,0,0,1-3.24,3.05,3.27,3.27,0,0,0-1.67,1.78,2,2,0,0,1-1.57,1.32c0-2.79,0-5.58,0-8.37,1.84-1.25,2.92-3.26,4.64-4.63.5-.39.54-1.05.7-1.62a2.43,2.43,0,0,1,4-1.18,21.64,21.64,0,0,1,2,2.09,1.42,1.42,0,0,1,.24.25,3.27,3.27,0,0,0,.63.81,17.41,17.41,0,0,1,2.42,10.38,20.16,20.16,0,0,1-2,7.66c-1.37,2.8-3.08,5.49-6,7-1.83,1-3.47,2.29-5.5,2.86-.37.1-.74.36-1.14.09Z" transform="translate(-69.3 -194.2)"/><path class="cls-9" d="M1217.52,725.7c-.47-1.18-.14-2.44-.45-3.65-.51-2-.83-4-1.16-6-.22-1.34-.86-2.72-.31-4.14l9.11,0c-.53,1.33.09,2.62.38,3.82a6.41,6.41,0,0,1-.24,3.79,1.78,1.78,0,0,0,.17,1.59,26.1,26.1,0,0,1,1.85,4.64Z" transform="translate(-69.3 -194.2)"/><path class="cls-11" d="M1268.14,647.52c-.59,0-1-.56-1.49-.7a10.66,10.66,0,0,0-5.14.36c-.48.12-.55.57-.32,1.08s1.1,1.33.57,1.93-1.67.54-2.58.53c-.12,0-.24-.07-.35-.07-1,0-1.86-.12-2.61.92s-2.14,1.49-3.27,2.15a27.1,27.1,0,0,1-4.65,2.44,47.39,47.39,0,0,1,4.82-11.72c.62-1.06,1.26-2.1,1.89-3.16a9.57,9.57,0,0,1,3.93.61c.36.16.68.49,1,.56,2.5.41,4.6,1.85,7,2.63a3.83,3.83,0,0,1,2,.95C1269.16,646.79,1269,647.36,1268.14,647.52Z" transform="translate(-69.3 -194.2)"/><path class="cls-15" d="M955.45,652.54a35,35,0,0,1,2.33,8.69,47.63,47.63,0,0,1,.74,10.8c-1.21-.07-2-.93-2.94-1.55a17.09,17.09,0,0,1-4.27-4.92,15.54,15.54,0,0,1-2.27-4.44c-.1-.37-.33-.73-.19-1.14a5,5,0,0,1,3.61-4.26c.6-.2.85-.8,1.08-1.36A2.77,2.77,0,0,1,955.45,652.54Z" transform="translate(-69.3 -194.2)"/><path class="cls-7" d="M901.44,728.14a5.71,5.71,0,0,0-4.27-4.11c-1-.33-1.47-1.43-2.1-2.23a17.73,17.73,0,0,1-1.52-2.7c-.16-.31-.4-.65-.18-1s.76-.32,1.08-.22c2.32.71,4.82.3,7.12,1.21.93.37,2,.21,2.72,1.2.19.28.58.23.9.12.75-.28,1.5.13,2.18.1,2.51-.12,4.72.87,6.91,1.74,1.45.57,3,.75,4.4,1.36,1.11.49,2.35.45,3.43,1a3.77,3.77,0,0,1-1.93.75,26.69,26.69,0,0,0-5.28-1.78,36.06,36.06,0,0,0-4.57-1,24.83,24.83,0,0,1-4-.35.58.58,0,0,0-.67.12c-.21.27,0,.53.11.77a4.94,4.94,0,0,0,1.65,1.53,3.1,3.1,0,0,1,1.25,3.31A48.06,48.06,0,0,1,901.44,728.14Z" transform="translate(-69.3 -194.2)"/><path class="cls-11" d="M1187.73,647.52c-.6.19-1.21.37-1.81.58-.38.13-.81.31-.92.71-.44,1.63-2.07,2.47-2.67,3.88-.8,1.86-2.29,3.24-2.92,5.26a27.11,27.11,0,0,1-2.82,5.75,7.51,7.51,0,0,0-1,3.5c-.11,3-1.46,5.74-1.54,8.71-.06,2.16-.06,4.33.06,6.49.16,3.09.05,6.26,1,9.19.85,2.63.92,5.48,2.31,7.93a34.53,34.53,0,0,1,2.44,4.91,83.15,83.15,0,0,0,8,15.64,5.52,5.52,0,0,1,.34.88c-.87.34-1.11-.4-1.43-.89a55.71,55.71,0,0,1-3.22-5.61c-1.75-3.36-3.72-6.63-5.14-10.15-1.65-4.1-3.59-8.13-4.5-12.47a32.16,32.16,0,0,1-.71-5.56,5,5,0,0,0-.08-1.55v-13l.06-.1-.06-.1V671a.86.86,0,0,0,.17-.31,45.11,45.11,0,0,1,3-10.69,32,32,0,0,1,2.12-4.27,37,37,0,0,1,2.64-4.65,34.05,34.05,0,0,1,2.91-3.79c1-.94,1.34-2.36,2.49-3.17.37-.27.64-.78,1.23-.49Z" transform="translate(-69.3 -194.2)"/><path class="cls-9" d="M796.56,728.14a2.73,2.73,0,0,1,3.19-1.74.78.78,0,0,0,.77-.17c1.68-1.87,4.15-2.07,6.29-3,2-.79,4-1.39,5.88-2.27,2.19-1,4.64-1.35,6.64-2.78a18.09,18.09,0,0,1,1.87-1.07c.59-.33,1.1-.63,1.79,0,.54.49,1.28.19,1.89-.19.44-.28.87-.68,1.46-.3a50.9,50.9,0,0,1-11.8,7.2,49.18,49.18,0,0,1-10.7,3.4A30.32,30.32,0,0,1,796.56,728.14Z" transform="translate(-69.3 -194.2)"/><path class="cls-9" d="M829,714.49a6.6,6.6,0,0,0-5.83.59c-.15.09-.47.17-.56.08-1.11-.95-2,.08-3,.3-2.16.47-4.09,1.78-6.4,1.69a2,2,0,0,0-.91.27c-2.26,1.14-4.74,1.52-7.15,2.2a37.86,37.86,0,0,0-8,3.09c-1.06.58-2.24.51-3.32.88a38.78,38.78,0,0,0-8.07,3.58,13.68,13.68,0,0,1-1.74.77,8.15,8.15,0,0,1-2.6-.29c-.29-.63.25-.78.61-.93,2.18-.88,4.22-2.11,6.56-2.57a5.19,5.19,0,0,0,1.2-.54c2.52-1.21,5-2.64,7.72-3.24,2.92-.63,5.56-2,8.32-3.06a8.27,8.27,0,0,1,2.19-.6,15.11,15.11,0,0,0,4.15-1.07,12.87,12.87,0,0,1,5.07-1.32.94.94,0,0,0,.47-.09c2.8-1.32,5.87-1.43,8.84-2a7.23,7.23,0,0,1,4.55.12Z" transform="translate(-69.3 -194.2)"/><path class="cls-5" d="M831.13,712.35a18,18,0,0,0-6.15.59,13.07,13.07,0,0,1-2.37.2,11.2,11.2,0,0,0-3.4,1,6.09,6.09,0,0,1-2.78.58c-1.49,0-2.74.77-4.08,1.22a18.89,18.89,0,0,1-4,1.07c-2.61.28-4.82,1.77-7.24,2.62a29.62,29.62,0,0,1-3.86,1.19,28,28,0,0,0-6.79,2.86c-1.78.89-3.76,1.16-5.51,2.11-1,.53-2.05.88-3.07,1.31a.63.63,0,0,0-.43.53l-1.69-.25c.23-.62.82-.83,1.33-1.1,1.49-.76,3-1.5,4.5-2.25.81-.4,1.56-.94,2.58-.52.46.19.9-.25,1.31-.48a46.23,46.23,0,0,1,11.77-4.79,44.44,44.44,0,0,0,5.9-2.25,6.24,6.24,0,0,1,2.78-.56,3.33,3.33,0,0,0,1.6-.4c1.43-.68,2.81-1.95,4.38-1.78,2.67.3,4.83-1.29,7.34-1.47a14.08,14.08,0,0,0,4.83-1.1c1.41-.64,2.83.3,4.26.43Z" transform="translate(-69.3 -194.2)"/><path class="cls-3" d="M1358,673a13.79,13.79,0,0,0,6.86-3.6,48.5,48.5,0,0,1,5.67-3.92,3.14,3.14,0,0,1,2.25-.88.84.84,0,0,1,.34.85c-.27,1.54,0,3.11-.3,4.65-.13.4-.48.51-.83.6a21.2,21.2,0,0,0-8,4.15,18.66,18.66,0,0,1-4.28,2.38c-.45.2-1,.49-1.46.09A21.52,21.52,0,0,1,1358,673Z" transform="translate(-69.3 -194.2)"/><path class="cls-15" d="M984.25,644.39c-1-.38-1.39-1.34-2.1-2-1.47-1.32-3.32-.87-3.76,1a3.47,3.47,0,0,1-1.44,2.2c-1.21.88-1.74,2.44-3.06,3.27-.36.23-.63.6-1.12.56V635.74a1.39,1.39,0,0,1,1.69,0c2,1.22,4.23,1.93,5.92,3.59,1.25,1.24,2.39,2.58,3.56,3.89C984.22,643.52,984.55,643.9,984.25,644.39Z" transform="translate(-69.3 -194.2)"/><path class="cls-3" d="M984.25,644.39a1.42,1.42,0,0,0-.14-.44c-1.81-2.21-3.58-4.48-6.06-6-1.14-.7-2.45-1.1-3.55-1.91a2.86,2.86,0,0,0-1.73-.31v-.93c2.59.07,4.72,1.39,6.68,2.83,3.79,2.79,6.16,6.69,7.85,11a24.78,24.78,0,0,1,.78,3.22,2.19,2.19,0,0,0,.5,1.18,43.27,43.27,0,0,0-1.5,10.79,3.59,3.59,0,0,0-1.51,1.87,5.54,5.54,0,0,1-2.13,2.91c-1.18.76-1.87,2-3,2.88a23.72,23.72,0,0,1-7.7,3.61v-1.89a22.6,22.6,0,0,0,9.5-5.71,13.94,13.94,0,0,0,3.3-5.54,19.74,19.74,0,0,0,1.23-3.69c.44-3.82.86-7.63-1.18-11.19-.35-.62-.59-1.3-.88-2-.25-.19-.29-.51-.48-.74Z" transform="translate(-69.3 -194.2)"/><path class="cls-12" d="M955.45,652.54a5.91,5.91,0,0,0-2,2.7c-.27.8-1.2,1.12-1.89,1.32a2.79,2.79,0,0,0-2.12,2.66c0,.36,0,.75-.51.78-.67-.14-.7-.71-.74-1.2a26.26,26.26,0,0,0-.46-3.06.88.88,0,0,1,0-.35c.53-1.91-.05-3.95.69-5.84a3.6,3.6,0,0,0,.33-1.62c-.16-1.83,1.09-2.88,2.1-4.07a.48.48,0,0,1,.53-.18,12.09,12.09,0,0,1,2.06,3.69A21.34,21.34,0,0,1,955.45,652.54Z" transform="translate(-69.3 -194.2)"/><path class="cls-5" d="M863,713.29c3,.67,6.22.15,8.88,2.13a2.89,2.89,0,0,0,2.1.24c2-.2,3.29,1,4.43,2.37.55.67-.09,2.15-1,2.4s-1.66.83-2.65.4c-.44-.19-.66.36-1,.46A43.91,43.91,0,0,1,863,713.29Z" transform="translate(-69.3 -194.2)"/><path class="cls-15" d="M1459.18,702.72c-.77-.08-.91-.76-1.07-1.28a20.18,20.18,0,0,0-5.16-8.58q3-4.47,6-9l.24.05Z" transform="translate(-69.3 -194.2)"/><path class="cls-4" d="M908.64,727.9c-.3-1.39-.42-2.88-2.09-3.45a1.12,1.12,0,0,1-.45-.39c-.45-.62-1.39-1.15-.92-2s1.31-.1,2,0a9.31,9.31,0,0,0,1.66.1,5.84,5.84,0,0,1,3.79.77.93.93,0,0,0,.56.18c2.34-.3,4.21,1.1,6.31,1.67a1,1,0,0,1,.73.55,36.47,36.47,0,0,1-8.4,2.13Z" transform="translate(-69.3 -194.2)"/><path class="cls-16" d="M1347.58,696.24c-1.76-.31-3.58.08-5.32-.48a4.74,4.74,0,0,1-2.11-1,117.16,117.16,0,0,1,7.43-10.58Z" transform="translate(-69.3 -194.2)"/><path class="cls-12" d="M1358.2,677.28a15.69,15.69,0,0,0,6.1-3.13,17.8,17.8,0,0,1,8.22-3.83,1.38,1.38,0,0,1,0,1.92,6.72,6.72,0,0,0-3.65,2.24,19.91,19.91,0,0,1-5.55,4.4c-1.5.8-2.92,1.79-4.66,2C1358.51,679.68,1358.35,678.48,1358.2,677.28Z" transform="translate(-69.3 -194.2)"/><path class="cls-5" d="M1315,671.3a5.07,5.07,0,0,0-1.47-1,40.71,40.71,0,0,0-12.63-4.07,4.49,4.49,0,0,1-.79-.24c-.08-.76.57-1.08,1-1.49.7-.65,1.31-1.48,2.36-1.64q7,2.83,13.7,6.26C1316.41,669.86,1315.69,670.58,1315,671.3Z" transform="translate(-69.3 -194.2)"/><path class="cls-10" d="M1187.73,643.66a5.56,5.56,0,0,0-2.67,2.88,2.22,2.22,0,0,1-.65.83,26.46,26.46,0,0,0-3.12,4c-1.87,2.45-2.74,5.39-4.32,8a23.16,23.16,0,0,0-1.47,4,48.93,48.93,0,0,0-2,7.45c0,.1-.25.16-.37.24V664.8a11.67,11.67,0,0,0,1.85-4,44.85,44.85,0,0,1,3.46-7.64c1.57-3.2,4-5.78,5.78-8.81.72-1.21,2.19-1.88,3.47-2.61C1187.72,642.4,1187.72,643,1187.73,643.66Z" transform="translate(-69.3 -194.2)"/><path class="cls-9" d="M1269,646.11c-1.12-.48-2.53-.47-3.44-1.11-1.65-1.17-3.52-1.43-5.3-2.1-1.32-.5-2.48-1.34-4-1.19-.39,0-.81-.28-1.22-.43l1.18-1.67c5.09,1,10.18,1.95,14.86,4.34C1270.64,644.94,1270.28,646,1269,646.11Z" transform="translate(-69.3 -194.2)"/><path class="cls-5" d="M951.35,643.68a24.54,24.54,0,0,1-1.92,2.18c-.64.57-.15,1.67-.42,2.52-.17.55-.24,1.15-.47,1.7a2.84,2.84,0,0,0-.17,2.09,1.91,1.91,0,0,1-.2,1.83.86.86,0,0,0-.16.56,23.39,23.39,0,0,0,.93,5.44,24.25,24.25,0,0,0,5.45,9.12,18,18,0,0,0,4.13,2.91c0,.31,0,.62,0,.93a7.38,7.38,0,0,1-4.12-2.55c-1.1-1.24-2.6-2.08-3.4-3.63s-1.88-3.06-2.62-4.68a15.15,15.15,0,0,1-1.28-5.61,21.11,21.11,0,0,1,.59-7.44,17.06,17.06,0,0,1,3.21-6.34A1.5,1.5,0,0,1,951.35,643.68Z" transform="translate(-69.3 -194.2)"/><path class="cls-9" d="M1173.16,684.72c.24,1.64.73,3.27.85,4.88a26,26,0,0,0,2.12,8.13c1.59,3.81,2.92,7.75,5,11.37s3.64,7.1,5.75,10.49c.34.54.54,1.3,1.38,1.36,0,.08,0,.16,0,.24a14.93,14.93,0,0,1,1.18,1.45h0c.18.23.24.53.48.72a.55.55,0,0,1,.24.48c.26.66.93,1.11,1,1.88H1190a17.91,17.91,0,0,0-2.09-3.17c-2.63-4-4.91-8.18-7.17-12.4-1.55-2.9-2.82-5.95-4.13-9-.85-2-1.52-4.06-2.32-6.08-.46-1.16-.16-2.61-1.09-3.68C1173.15,689.19,1173.15,687,1173.16,684.72Z" transform="translate(-69.3 -194.2)"/><path class="cls-8" d="M1441.45,656.4c-1.93,0-3.9.35-5.71-.67a.28.28,0,0,0-.23,0c-1.45.84-3.06,0-4.54.4-1.26.36-2.51-.11-3.77-.09-1.64,0-3.06.74-4.63.82a12.06,12.06,0,0,1-2,.3,3,3,0,0,1,2.13-2.17,34.69,34.69,0,0,0,5.35-.63c1.75-.41,3.55.18,5.34.23a15.63,15.63,0,0,0,4.48,0,8.32,8.32,0,0,1,2.81.26c.66.08,1.44-.4,2,.39A5,5,0,0,1,1441.45,656.4Z" transform="translate(-69.3 -194.2)"/><path class="cls-8" d="M920.16,632.42c.18-1.76.85-3.45.72-5.26a2.75,2.75,0,0,1,.44-1.57,4.29,4.29,0,0,0,.72-1.86,4.41,4.41,0,0,1,1.1-3.38c.45-.47-.18-1.05-.09-1.59a5.6,5.6,0,0,1,1.67.66,13.3,13.3,0,0,0-.29,4.32,3.27,3.27,0,0,1-.53,2.71c-.68.91-.59,2.12-.81,3.19a4.91,4.91,0,0,1-1.05,2.71c-.28.29-.19.67-.21,1A1.5,1.5,0,0,1,920.16,632.42Z" transform="translate(-69.3 -194.2)"/><path class="cls-9" d="M740.38,644.39a.72.72,0,0,1,.56.38,52.87,52.87,0,0,0,5,6.16c1.45,1.68,2.69,3.72,4.81,4.78a1.3,1.3,0,0,1-.66,1.85c-1.78-1.36-3-3.25-4.66-4.73a10.15,10.15,0,0,1-1.95-2.25,46.79,46.79,0,0,0-3.77-5.06C739.75,645,740.15,644.76,740.38,644.39Z" transform="translate(-69.3 -194.2)"/><path class="cls-9" d="M829.17,692.17a69.41,69.41,0,0,1,5.51-8v8.49a.75.75,0,0,1-.52.26A22.81,22.81,0,0,1,829.17,692.17Z" transform="translate(-69.3 -194.2)"/><path class="cls-5" d="M848.37,692.89c2.64-.24,5.2-1,7.83-1.25,2.23-.22,4.22-1.25,6.38-1.65a1,1,0,0,1,.79,1.3,1,1,0,0,1-.89.52c-2.46.17-4.68,1.38-7.14,1.59-2.15.18-4.28.6-6.42.92C848.74,693.84,848.55,693.36,848.37,692.89Z" transform="translate(-69.3 -194.2)"/><path class="cls-9" d="M777.08,676.07c1.61.91,3.19,1.88,4.84,2.71,1.05.52,2.22.78,3.31,1.29a31.73,31.73,0,0,0,5.6,2.27l-1.21,1.18c-.55.22-1-.09-1.47-.27a123.44,123.44,0,0,1-11.24-5.41,1.71,1.71,0,0,1-.79-.69A.9.9,0,0,1,777.08,676.07Z" transform="translate(-69.3 -194.2)"/><path class="cls-5" d="M776.16,677c1.68.84,3.38,1.67,5,2.6,2.71,1.58,5.67,2.57,8.47,3.9l-1.2,1.22c-.5-1-1.61-1-2.36-1.52a8.89,8.89,0,0,0-3.84-1.93c-2.46-.29-3.8-2.49-6-3-.28-.06-.51-.37-.76-.56C775.4,677.23,775.64,677,776.16,677Z" transform="translate(-69.3 -194.2)"/><path class="cls-3" d="M829.17,692.17c1.88-.3,3.65.57,5.51.49v2.12a6.13,6.13,0,0,1-3.76-.39c-1-.43-2.27,0-3.41.15A7.69,7.69,0,0,1,829.17,692.17Z" transform="translate(-69.3 -194.2)"/><path class="cls-11" d="M1191.12,725.72c-.34-.62-1-1.07-1-1.88a4.82,4.82,0,0,1,1.43,1.88Z" transform="translate(-69.3 -194.2)"/><path class="cls-10" d="M1173.16,671.54c0,.05,0,.09.07.14s0,0-.07.06A.34.34,0,0,1,1173.16,671.54Z" transform="translate(-69.3 -194.2)"/><path class="cls-7" d="M546.28,589.68a4.9,4.9,0,0,1,4.77,1.81.77.77,0,0,0,.28.23c2.92,1.19,4.24,3.83,5.7,6.34.36.62.67,1.27,1.06,1.87,2.86,4.42,1.47,8.86.11,13.31-2,1.85-3,4.44-5.43,6.06-2.06,1.38-4.33,1.56-6.49,2.3,0-.48,0-1,0-1.44a5.33,5.33,0,0,1,2.39-1c2.29-.29,3.71-1.89,5-3.43a14,14,0,0,0,3.56-9.91,9.34,9.34,0,0,0-1.29-4.55c-.38-.61-.81-1.18-1.18-1.8a16.29,16.29,0,0,0-8-8.44,1.83,1.83,0,0,1-.49-.33Z" transform="translate(-69.3 -194.2)"/><path class="cls-11" d="M546.26,617.5V607.44c1.11-1.15,2.31-2,4-1.12a.86.86,0,0,0,.81,0c.83-.48,1.23,0,1.58.67a3.8,3.8,0,0,1,.41,3.08c-.7,3.34-3,5.46-5.59,7.35A.87.87,0,0,1,546.26,617.5Z" transform="translate(-69.3 -194.2)"/><path class="cls-9" d="M552.72,610.08a3.21,3.21,0,0,0-.31-2.84c-.33-.57-.56-1.37-1.38-.44-.19.22-.46.06-.66-.06a2.34,2.34,0,0,0-3.24.33c-.2.21-.57.25-.86.37,0-1.53,0-3.05,0-4.58a6.47,6.47,0,0,1,4-1.9c.65,0,.9-.43,1.12-.9a1.09,1.09,0,0,1,1.42-.72,1.84,1.84,0,0,1,.88,1c.13.7.24,1.41.42,2.1a11.66,11.66,0,0,1-.4,6.89C553.53,609.79,553.41,610.35,552.72,610.08Z" transform="translate(-69.3 -194.2)"/><path class="cls-6" d="M554.89,599.28a10,10,0,0,1,2.61,8.59,15,15,0,0,1-4.73,9.24c-.6.58-1.26,1.1-1.89,1.65-.12.1-.25.3-.36.29-1.53,0-2.76,1-4.23,1.11,0-.39,0-.78,0-1.18a3.89,3.89,0,0,1,1.54-.88c6.24-2.61,9.35-10.31,6.34-16.22a2.92,2.92,0,0,1-.46-1.46C553.74,599.67,553.91,599.05,554.89,599.28Z" transform="translate(-69.3 -194.2)"/><path class="cls-10" d="M552.71,599.53c-.24,0-.67,0-.68.06-.36,1.85-2,1.52-3.23,2a16.07,16.07,0,0,1-2.52,1.27v-9.81c.32-.28.62-.09.86.1,1.94,1.52,4.05,2.86,5.31,5.09C552.67,598.63,553.1,599,552.71,599.53Z" transform="translate(-69.3 -194.2)"/><path class="cls-15" d="M553.92,600.48a26.56,26.56,0,0,1,1.55,4.5A12.19,12.19,0,0,1,554,612.8a16.72,16.72,0,0,1-4,4.56c-1,.92-2.49,1.17-3.8,1.62,0-.49,0-1,0-1.48.2,0,.44,0,.58-.07,2.76-1.81,5.15-3.92,5.88-7.35.46,0,.58-.38.68-.72a13.12,13.12,0,0,0,.25-7.32,5.93,5.93,0,0,1-.22-1.77C553.7,600.09,553.79,600.35,553.92,600.48Z" transform="translate(-69.3 -194.2)"/><path class="cls-5" d="M553.92,600.48l-.49-.21-.72-.74a5.61,5.61,0,0,0-1.73-2.78,19.16,19.16,0,0,0-4.7-3.7c0-.8,0-1.6,0-2.4a6.59,6.59,0,0,1,4.14,2.37c1.46,1.64,3.27,3,4.15,5.13a2.36,2.36,0,0,1,.33,1.13A1,1,0,0,0,553.92,600.48Z" transform="translate(-69.3 -194.2)"/><path class="cls-11" d="M1189.44,722.64a2,2,0,0,1-1.18-1.45C1189.06,721.34,1189.29,722,1189.44,722.64Z" transform="translate(-69.3 -194.2)"/><path class="cls-11" d="M1189.92,723.36c-.48,0-.48-.37-.48-.72A.72.72,0,0,1,1189.92,723.36Z" transform="translate(-69.3 -194.2)"/><path class="cls-15" d="M984.25,644.39a.74.74,0,0,1,.48.74C984.24,645.1,984.22,644.76,984.25,644.39Z" transform="translate(-69.3 -194.2)"/></svg>