<svg xmlns="http://www.w3.org/2000/svg" viewBox="0 0 1890.78 255.22"><defs><style>.cls-1{fill:#91d0ef;}.cls-2{fill:#0a2d60;}.cls-3{fill:#289edb;}.cls-4{fill:#0f3465;}.cls-5{fill:#4475bd;}.cls-6{fill:#f221cb;}.cls-7{fill:#224173;}.cls-8{fill:#b01293;}.cls-9{fill:#63b7e5;}.cls-10{fill:#2f65b6;}.cls-11{fill:#a7d5f1;}.cls-12{fill:#3c5982;}.cls-13{fill:#0d50aa;}.cls-14{fill:#6e195e;}.cls-15{fill:#42abde;}</style></defs><title>Asset 1</title><g id="Layer_2" data-name="Layer 2"><g id="Layer_1-2" data-name="Layer 1"><path class="cls-1" d="M342.14,1.69c0,.36-.59,31.84-.59,33.91q0,16.77,0,33.53c0,10.05,2.73,19.29,9.1,27.12,7.32,9,16.71,14.66,28.45,15.9,2.53.27,13.62,0,17.19-1,.6,1.42,14.42,29.21,21.37,43.19,0,0-4.79,2.15-4.78,2.16-3.21,1-4.09,3.13-3.95,6.46,0,1.14,0,5.81,0,7.08-1.85-.91-46.85-11.71-48.12-11.74-.95,0-13.46-4-16.93-6.32a115.56,115.56,0,0,1-16.32-10.7c-8.63-7.6-16.56-15.75-22.27-25.92a139.14,139.14,0,0,1-8-17.25C297.42,97,300.82,84.65,302,80c1.63-6.49,20.29-78,21.14-79.78,1.66,0,14.72-.15,17.61,0C342,.27,342.16.72,342.14,1.69Zm54.17,109.49c.6,1.42,16.28,28.54,23.23,42.52-1.29.74-6.47,2.74-6.64,2.83"/><path class="cls-2" d="M1738.41,23.64a67.17,67.17,0,0,1,10.86-8.41C1768,3.33,1788.52-1.59,1810.53,1.5c33.34,4.67,57.27,22.58,72,52.77a19.74,19.74,0,0,1,.8,2.23c.39,1,2.1,4.79,2.36,5.47-2.22,1.43-41.59,23.23-43.48,24.18-.07-.58-.73-4.05-1.44-6.62-1.45-3.52-2.73-7.12-4.83-10.35a42.48,42.48,0,0,0-29.8-19.58c-14.15-2.36-26.39,1.83-37.09,11.1-.59.51-1.82,1.37-1.82,1.37S1740.54,26.54,1738.41,23.64Z"/><path class="cls-3" d="M560,62.42c-.21.22-2.48,3.17-2.67,3.41-6.72,8.57-9.11,18.51-9.23,29.16,0,2.4,0,4.8.09,7.19a1.5,1.5,0,0,0,1.51,1.54c1.44.11,2.88,0,4.32.11,3.82.17,7.57,0,11.24-.12.86,2.52,67.76,34.65,70.07,34.08,0,4-.1,8.07-.13,12.06,0,1.82-.38,2.16-2.35,2.18-10.87.12-21.74.27-32.61.29-15.19,0-30.38,0-45.57-.07-1.12,0-2.24,0-3.35,0-3.12.08-3.13.13-3.24,3.3a145.33,145.33,0,0,0,1,17.69c-1.59.06-3.18.13-4.77.17-7.79.2-38.21.16-43.74,1a56.35,56.35,0,0,1-.44-6.54Q500,155.7,500,143.51q0-23.65,0-47.32c0-1.75,0-5.45.54-7.16,3.47-5.1,49-70.31,49.25-69.38C550.15,21.32,559.41,59.57,560,62.42Z"/><path class="cls-4" d="M166.6,216.82c-14.7,20.92-34.19,32.8-59.26,37-24.49,4.12-47.29-1-67.89-15.1A23,23,0,0,1,36.19,236c.34-.51-3.69-51.89-3.68-53.7.05-6.07,0-13.17,0-19.25,3.87,0,10.72-.24,14.14-.1a1.14,1.14,0,0,1,1.25,1c.05.69.71,4.75.87,5.84a43.52,43.52,0,0,0,35.32,36.35c14.63,2.58,27.46-1.42,38.31-11.63a26.11,26.11,0,0,0,2.4-2.42c2.18,1,38.15,19.73,43.4,22.65C167.63,215.5,167.12,216.16,166.6,216.82Z"/><path class="cls-5" d="M928.21,40.06c4.6,4,8.19,9,11.71,13.93a124.76,124.76,0,0,1,22.51,55.89A128.29,128.29,0,0,1,957,169c-.19.58-.09.34-.32,1-2.59-.9-43.73-8.85-48.6-9.84.37-.94.78-2.13,1.21-3.14a70.82,70.82,0,0,0,5.35-22.24c1.69-23.93-11.66-51.17-24.47-63.95C891.28,70.79,926.91,41.54,928.21,40.06Z"/><path class="cls-6" d="M1101.91,2.65c2.48-.33,4.75.63,7,1.31a93.07,93.07,0,0,1,37.16,20.93,90.91,90.91,0,0,1,28.18,51,78.34,78.34,0,0,1,1.44,15.22c-.08,8.77,0,17.55-.07,26.32,0,1.42,0,2.76-.12,4.19-1.9,0-47.11-1.93-48.23-2,0-1.24,0-2.44,0-3.7q-.07-11.73-.09-23.45c0-16-7.1-28.1-20.08-37-.78-.53-1.51-1.13-2.26-1.7,0-2.86.29-5.78-.2-8.55-1-5.62-1.93-11.21-1.72-16.94a6,6,0,0,0-.17-2.36c-1.07-2.76-.78-5.63-.81-8.47C1101.9,12.5,1101.92,7.58,1101.91,2.65Z"/><path class="cls-5" d="M992.46,89.92c.24-17.33,5.45-33.11,14.8-47.6a71.1,71.1,0,0,1,10.08-12.65c.78.82,32.76,30.28,34.92,32.62-1,1.43-2,2.88-3,4.29-5.27,7.26-8.5,15.23-8.57,24.33-.11.1-.12,31-.14,45.92,0,2.54-.13,5.08-.19,7.62-3,1.45-46.94,20.21-48.28,20.23,0-1.1,0-2.29,0-3.4C992.11,138.66,992.71,90.37,992.46,89.92Z"/><path class="cls-7" d="M1738.41,23.64c1.82,2.22,28.17,37.28,28.87,38.43l-2.37,3a41.16,41.16,0,0,0-9.32,23.66c-.24,4.3-.12,8.62-.1,12.93,0,1.58.42,1.94,2,2s2.88,0,4.32,0c25.23,0,36.14.07,36.14.07s34.33,46.83,35.38,48.43c-21.6,0-37.19-.12-58.79-.14-5.12,0-10.24,0-15.36,0-1.27,0-2.57-.21-3.78.4-2.38-5.9-33.54-103.09-35.29-107.2A78.22,78.22,0,0,1,1738.41,23.64Z"/><path class="cls-8" d="M428.45,9.27c-.06-2.48-.15-4.95-.15-7.42,0-.67,0-1,.63-1.15,6.54,0,13.09,0,19.63,0q13.63,0,27.28-.1c.6,0,.86.58.81,1.14.05,1.37,0,47,0,68.62a83,83,0,0,1-4.28,26.37A94,94,0,0,1,439,143.12c-1.28.95-2.46,1.65-3.88,2.55C434.89,141.11,429.5,9.69,428.45,9.27Z"/><path class="cls-9" d="M1608,29.32s-15.92,19-16.42,19.8a49.32,49.32,0,0,0-10.26.5,47.59,47.59,0,0,0-16.39,6.5c-10.75,7.17-17.58,16.9-19.44,30a133.77,133.77,0,0,0-.81,17.19c-.53,1.26-38.43,65.14-38.43,65.14s7.09-122.62,7.37-129c2.49-4.07,8-11,12.41-13.71C1530.68,25.84,1608,29.32,1608,29.32Z"/><path class="cls-10" d="M928.21,40.06c-.37,2.49-36.93,30.73-38.09,30.7,0,0-1.78-1.67-2-1.9A107.71,107.71,0,0,0,873,58.74a78.25,78.25,0,0,0-45.46-8.53c-5.27.56-10.32,2-15.48,3,0-1.6.87-50.6,2.89-50.88C859.89-3.84,894.5,8,925.37,37,926.4,37.92,927.27,39,928.21,40.06Z"/><path class="cls-11" d="M1755.55,172.43a40.79,40.79,0,0,0,2,5c5.49,15.61,17,24.9,32.84,28.59a40.45,40.45,0,0,0,27.78-3.56c1.13-.56,3.49-1.82,4.46-2.27.82.56,39.72,21.36,44.85,23.89-1.56,1.91-3.12,4.13-4.79,6a25.65,25.65,0,0,1-3.3,2.77c-1.12,0-74.75,20.36-77.6,20.83a69.82,69.82,0,0,1-17.67-5.05,112.9,112.9,0,0,1-16.79-9c-6.09-4-11-9.09-15.94-14.26a23.34,23.34,0,0,1-2.07-2.33C1729.18,222.15,1754,174.5,1755.55,172.43Z"/><path class="cls-9" d="M812.07,252.93a50.67,50.67,0,0,1-10.14-2.22A125.36,125.36,0,0,1,751.54,223c-2.37-2.14-4.71-4.32-7-6.5a36.1,36.1,0,0,1-3.41-3.86c1.57-2.13,30.62-35.32,32.83-36.82,2,2.34,4.2,4.5,5.27,5.64a78.64,78.64,0,0,0,26,18.35A71.6,71.6,0,0,0,830.62,206a80.74,80.74,0,0,0,18.18-.64c.86-.13,1.52-.17,2.31-.35,2,3.25,19.8,29.49,19.8,29.49S812.54,252.82,812.07,252.93Z"/><path class="cls-11" d="M1544.66,103.27c1.75.07,3.5.21,5.25.21,26,0,53.7,0,79.67,0,2,0,2.17.76,2.19,2.34.07,2.54.12,12.78.13,14.21q0,13.44,0,26.86c0,1.28,0,2.56-.13,3.83a1.59,1.59,0,0,1-1.6,1.48c-1.27.09-2.55.08-3.83.08h-75.78c-6.34,0-6-.5-6,5.95,0,1,0,3.11-.09,4.21-2.68.44-34.31,5.29-38.23,5.91C1506.23,168.41,1542.94,106.29,1544.66,103.27Z"/><path class="cls-12" d="M1296.76,157.33c-.08-1.74,0-7.48,0-9.22q0-38.93,0-77.85c0-2.07.13-4.14.21-6.21.45-.12,32.55-19.86,33.75-21.71,1.47-.05,11.86,41,13.87,41,.08,1.58.23,3.17.23,4.75q0,35.63,0,71.25c0,2.86,0,8.07,0,10.94C1343,169.73,1299,157.78,1296.76,157.33Z"/><path class="cls-4" d="M647.8,19.85c6.89,4.56,12.38,10.57,17.32,17.07a89.92,89.92,0,0,1,18.07,44.79c0,.16,0,.32,0,.48.45,8,1.17,6.73-6.09,6.77-12.48.06-24.95,0-37.43,0h-4c-.4-1.89-.79-3.57-1.11-5.27C631,65,616.31,52.45,599.34,49.6c-2.36-.4-4.75-.66-7.12-1-.07-1,50.53-30.19,53.2-30.55C645.77,18.29,647.35,19.5,647.8,19.85Z"/><path class="cls-13" d="M1544.46,162.5c0,1.31,0,5.8.65,8,2.87,15.22,11.22,26.39,25.43,32.53,16.41,7.08,31.81,4.69,45.79-6.5,1.12-.9,6.28-5.74,6.28-5.74s-20.9,60.31-22.11,63.26c-5.22,1.12-13.7,1.14-18.94.86a84.58,84.58,0,0,1-29.61-7.11c-.88-.38-3.46-1.54-4.31-2-.4-.81-41.41-77.41-41.41-77.41S1543.32,162.56,1544.46,162.5Z"/><path class="cls-2" d="M1175.25,139.1c0,1.11.36,6,.36,7.13q0,52.23,0,104.47c0,1.11-.09,2.23-.14,3.34-1.42.1-2.85.28-4.27.28q-19.79,0-39.56,0c-1.43,0-2.85-.18-4.27-.27a2.65,2.65,0,0,1-.07-.48q0-32.07,0-64.13c0-.16,0-3.07,0-3.23C1128.56,185.33,1173.34,138.58,1175.25,139.1Z"/><path class="cls-1" d="M991.8,164.68c1.44-.15,45.57-18.78,48.56-20.23v4.34c0,29.81.09,59.55.07,89.36,0,1.26-.2,2.52-.31,3.79-1.58-.12-3.16-.33-4.74-.33-9.07,0-18.14.16-27.21.14a89.64,89.64,0,0,0-16.12,1.16c-.58-1.55-.35-3.15-.35-4.74q0-35.11,0-70.25C991.67,166.82,991.71,165.94,991.8,164.68Z"/><path class="cls-9" d="M168.2,214.69c-.72-.3-2.87-1.5-3.42-1.81-5.25-2.92-10.78-5.31-16.05-8.16-6.13-3.3-22-11.76-23.93-12.68a41.42,41.42,0,0,0,2.75-3.75,42.32,42.32,0,0,0,7.72-24.21q0-25.83,0-51.66c0-1.11,0-3.91,0-5,1.91.28,46.25,72,47,72.57a85.68,85.68,0,0,1-10.73,29.23C170.29,211.35,169.66,212.55,168.2,214.69Z"/><path class="cls-7" d="M741.09,212.68c-10.17-11.53-21.83-32.4-26.46-46.63-4.74-14.59-6.29-29.67-5.67-44.94,0-.79,0-3.14,0-4.34,3.6.51,48.68,9.53,48.68,9.53s.35,5,.43,6.38A74.09,74.09,0,0,0,765.77,162c2,4.15,5.72,10,8.15,13.91C772.25,177.89,742.63,211.27,741.09,212.68Z"/><path class="cls-8" d="M1052,62.29c-1.84-1.85-34.13-31.8-34.92-32.62,6.3-7.41,14.09-12.94,22.49-17.66A88.69,88.69,0,0,1,1087.36.64a73.89,73.89,0,0,1,11.89,1.25,1.76,1.76,0,0,0,1.94.59.81.81,0,0,1,.72.17c0,4.93,0,9.85,0,14.77,0,2.84-.26,5.71.81,8.47a6,6,0,0,1,.17,2.36c-.21,5.73.73,11.32,1.72,16.94.49,2.77.16,5.69.2,8.55-1.48-.57-2.95-1.17-4.43-1.72-16.11-6.05-30.88-3.6-44.37,7C1054.67,60.07,1053.33,61.19,1052,62.29Z"/><path class="cls-14" d="M1720.09,45.23c1.93,4.76,33.73,102.1,35.29,107.31.12,5.12.12,10.27,0,15.39-.91-.31-45.12-7.59-48.43-7.82.06-1.47,0-2.81,0-4.3q0-32.33,0-64.66c.53-15.79,4.16-28.26,8.71-37.79A59.22,59.22,0,0,1,1720.09,45.23Z"/><path class="cls-15" d="M1614.6,57.56c-.36-1.32-6.62-28.24-6.62-28.24s9.4-7.58,11.12-10.07a5.11,5.11,0,0,1,2.34-1.58,27,27,0,0,0,7.57-4.81,8,8,0,0,1,2.64-.94c4.36,1.69,8,4.49,11.75,7.22,12.6,9.28,21.87,21.27,28.53,35.36.17.43.36.72.52,1.19-.39,1.11-11.07,31.76-11.42,33.25-2.39.09-3.32.08-5.71.1q-10.53.06-21.06,0c-2.18,0-2.76-.39-3-2.25-1-8.66-4.7-16.15-9.88-23A52.93,52.93,0,0,0,1614.6,57.56Z"/><path class="cls-12" d="M870.91,234.54c-1.47-1.79-18.27-26.41-19.8-29.49,1.52-.47,3-.85,4.54-1.26,22.58-6.06,39.31-19.47,50.4-40,.67-1.26,1.42-2.43,2-3.7,4.84.73,46.52,8.45,48.6,9.84a43.13,43.13,0,0,1-2.59,6.48c-2.66,5.92-4.86,12-8.81,17.2C943,193.65,874.45,232.79,870.91,234.54Z"/><path class="cls-9" d="M604.44,205.05c5.2-2.12,12.27-5.44,16.47-9.24a42.45,42.45,0,0,0,13.66-24.06c.17-.94.3-1.88.5-2.82a2.16,2.16,0,0,1,2.28-2c10.52.05,38.82,0,38.82,0s-8.3,45.39-9.15,48.55a50.06,50.06,0,0,1-4.82,7A89.67,89.67,0,0,1,634,245.15c-2,1-5.16,2.41-7.24,3.23C624.45,244.86,604.47,206,604.44,205.05Z"/><path class="cls-5" d="M709,116.77a129.9,129.9,0,0,1,2.69-15.89A126.78,126.78,0,0,1,740.47,44a71.58,71.58,0,0,1,7.19-7.65c1.72,2.46,24.09,41.14,26.2,44.21a21.49,21.49,0,0,0-2.07,3.11,81.13,81.13,0,0,0-12.17,27.73c-1,4.35-1.33,10.51-2,14.9C755.59,126.32,712.67,117.58,709,116.77Z"/><path class="cls-13" d="M773.86,80.56c-2.4-2.66-25.43-42.75-26.2-44.21a133.64,133.64,0,0,1,15.91-12.88A128.85,128.85,0,0,1,807.79,3.58c.77-.18,6.35-1.13,7.14-1.2.19,3.2-2.88,49.28-2.89,50.88-1.32.54-2.63,1.1-4,1.62A78.53,78.53,0,0,0,776,78,24.71,24.71,0,0,0,773.86,80.56Z"/><path class="cls-6" d="M265.87,128.7c-.18,10.59-.25,26.23-.12,37-2.5,1.72-47.19,59.68-48,59.79-.1-1.27,0-8.31,0-9.58q0-46.68,0-93.38C219.55,122.56,259.55,127.89,265.87,128.7Z"/><path class="cls-15" d="M183.25,46.43c-.82.1-45.06,57.51-48,61-.06-1.11,0-19.69,0-20.81q0-35,0-70c0-1.11-.08-10.49,0-11.61,0-2.89.57-4.73,4.73-4.72,5.07,0,34.4,0,39.47,0,4.17,0,3.94,2.8,4,5.45C183.78,16.9,183.63,35.22,183.25,46.43Z"/><path class="cls-1" d="M265.94,94.22c.11.62,0,4.77,0,5.39,0,9.4-.07,19.69-.09,29.09-3,0-45-6.16-48.08-6.16,0-32.54,0-66.92,0-99.46,0-1.87,0-4.87,0-7.11C219.11,16.43,265.21,93.64,265.94,94.22Z"/><path class="cls-7" d="M635.38,137.82c-2.31.57-22.21,12.81-24.43,14.47-10.85,0-25.8,0-36.65,0-.48,0-8.12-46.06-9-48.58,1.88-.07,4,0,5.93,0h59.88c4.62,0,4.39-.11,4.39,4.49,0,8.3,0,16.61,0,24.91C635.5,134.73,635.39,136.16,635.38,137.82Z"/><path class="cls-14" d="M1410,201.39c.74-.6,4.53-3.2,5.28-3.78,10.17-7.88,15.61-18.31,16.8-31.05.06-.63,0-1.28.08-1.91a1.45,1.45,0,0,1,1.52-1.47c.48,0,1-.05,1.44-.05l41.68-.18c.63,0,1.27,0,1.91.06a1.4,1.4,0,0,1,1.45,1.51c0,1.76.06,3.52-.08,5.26a93.83,93.83,0,0,1-4,21.59,92.13,92.13,0,0,1-18.16,32.34c-.83,1-4.74,4.24-5.65,5.14C1450.26,228.18,1412.62,203.75,1410,201.39Z"/><path class="cls-11" d="M626.73,248.38c-4.47,2.52-9.46,3.48-14.35,4.72-9.33,2.37-18.06,2-30.51,1.66-1.65-.39-38.11-23.58-38.11-23.58l20.78-33.88s2.17,1.55,3,2.08a54.25,54.25,0,0,0,11.52,5.52A38.77,38.77,0,0,0,591.61,207a85.12,85.12,0,0,0,12.83-2C605.45,207.55,624.62,245.57,626.73,248.38Z"/><path class="cls-6" d="M1452.2,228.85a83.49,83.49,0,0,1-48.87,25.06c-9.19,1.39-18.45,1.82-27.67.07-.44-2.17-2-47.62-2.09-49.69a60.34,60.34,0,0,0,8.84,2,50.55,50.55,0,0,0,23.07-2.72c1.62-.69,3.55-1.72,4.5-2.13C1410.6,202.22,1452.07,228.76,1452.2,228.85Z"/><path class="cls-6" d="M1670,204.41c-.3.56-1.4,2.44-1.65,2.82-2.14,5-5.39,9.36-8.79,13.56a90.65,90.65,0,0,1-43.87,30.05,99.68,99.68,0,0,1-15.19,3.2c1.27-3.49,21.55-62.13,22.11-63.26,6.62-5.19,8.84-14.53,9.29-19.45,0-3.81,1-4.55,3.95-4.55,4.8,0,10.83-.12,15.21.11C1653.83,172.71,1668.49,201.21,1670,204.41Z"/><path class="cls-8" d="M500.55,174.43c5.53-.86,46.95-1.1,48.54-1.16.23.72.31,1.24.48,1.84a46.66,46.66,0,0,0,11.56,19c.67.65,3.41,3.23,3.41,3.23s-20.35,33.83-20.78,33.88c-4.09.4-8.21.67-12.43.87a8,8,0,0,1-.8-.69c-6-6.73-25.24-31.7-29.07-51.68C501.13,178,500.94,176.18,500.55,174.43Z"/><path class="cls-14" d="M217.74,7.56c0-8.5-.8-7.15,6.87-7.22,12-.11,24-.06,35.93-.07,1.28,0,2.56,0,3.83.07a1.43,1.43,0,0,1,1.48,1.51c0,1,0,1.92,0,2.87,0,27.31.12,88.06.06,89.5C265.07,93.43,226.79,30,217.8,16,217.78,12.63,217.73,8.45,217.74,7.56Z"/><path class="cls-5" d="M408.56,193.32c.11,1.43.11,2.86.11,4.29,0,17.72.2,35.44.21,53.16,0,4.36,0,4.28-4.14,4.28H365c-1,0-1.91,0-2.86-.13a1.29,1.29,0,0,1-1.18-1.27,17.46,17.46,0,0,1-.1-1.91q0-17.72,0-35.44c0-.59-.14-4.12,0-6.31C362.59,210,407.26,193.46,408.56,193.32Z"/><path class="cls-8" d="M1373.57,204.29c0,2.07,1.83,47.42,2.09,49.69a73.07,73.07,0,0,1-22.13-5.78,88.15,88.15,0,0,1-34.88-25.39c1.11-2.21,35.83-30.68,36.27-31.12.94.94,1.74,1.45,2.5,2.12a50.08,50.08,0,0,0,14.32,9.63C1372.32,203.75,1373.41,204.13,1373.57,204.29Z"/><path class="cls-3" d="M1354.92,191.69c-.44.44-34.64,29.3-36.27,31.12-4-3.72-6.82-8.38-9.54-13.06a89.78,89.78,0,0,1-12.34-47c0-.63-.08-4.81,0-5.44,3,.44,43.78,11.75,48.08,13A61.19,61.19,0,0,0,1354.92,191.69Z"/><path class="cls-7" d="M645.42,18.07c-2.67.36-52.32,30-53.2,30.55-4.29.28-8.36.58-12.24,2a44.92,44.92,0,0,0-17.74,10c-.75.6-1.48,1.21-2.22,1.81-.35-.3-12-50.29-12.13-50.77A89.48,89.48,0,0,1,576,2a91,91,0,0,1,48.07,4.47C631.73,9.34,639,12.91,645.42,18.07Z"/><path class="cls-8" d="M1707,160.11c3.31.23,47.52,7.51,48.43,7.82.06,1.46,0,3,.14,4.5-1.24,2-26.27,50.6-26.27,50.6s-.51-.54-1.44-1.64a90.84,90.84,0,0,1-18.68-38.13A85.39,85.39,0,0,1,1707,160.11Z"/><path class="cls-8" d="M1127.27,119.63c1.12.05,46.33,2,48.23,2,0,3.87-.2,13-.25,17.49-2.33,0-46.73,46.5-48,47.11,0-1.1,0-4.91,0-5.86q0-28,0-55.93C1127.32,122.84,1127.28,121.25,1127.27,119.63Z"/><path class="cls-6" d="M428.45,9.27c.82,1.41,6.83,134.63,6.71,136.4-3.88,3.06-11,6.33-15.62,8-.57-1.26-23-41.77-23.23-42.52,1.78-.69,3.6-1.3,5.33-2.08,14.05-6.3,22.92-16.83,26.11-32a36,36,0,0,0,.56-7.62C428.29,51.16,428.45,11.24,428.45,9.27Z"/><path class="cls-6" d="M408.56,193.32c-1.3.14-45.18,16.62-47.72,16.66,0-1.78,0-7.06,0-8.8q0-21.42,0-42.85c1-.14,42.33,10,48.12,11.74C408.85,176.9,408.64,186.49,408.56,193.32Z"/><path class="cls-14" d="M265.75,165.71c.06,1.44.06,68.68,0,69.95-3.66,0-37,.49-48,.58,0-2.63-.15-6.57,0-10.74C217.91,224.92,264.91,165.79,265.75,165.71Z"/><path class="cls-14" d="M1513.6,39.44c-.28,6.35-6.95,123.76-7.37,129-1.73,5.87-5.83,21.63-6.14,21.69a72.33,72.33,0,0,1-3.62-22.32c-.1-26.67-.36-53.35,0-80A78.75,78.75,0,0,1,1513.6,39.44Z"/><path class="cls-14" d="M323.11.24C322,4.11,303.6,73.53,302,80c-1.15,4.63-4.41,16.87-4.72,18.12C294.36,92,293,74,293,73.67Q293,39.85,293,6c0-1.76.06-2.9.1-4.65,0-1,.39-1.39,1.29-1.39C300.86,0,319.6.17,323.11.24Z"/><path class="cls-9" d="M1842.15,169.38a5.47,5.47,0,0,1,.07-1.15,1.36,1.36,0,0,1,1.27-1.22c.79-.07,1.6-.08,2.39-.08q20.38,0,40.76,0c1,0,1.92,0,2.87.12a1.29,1.29,0,0,1,1.23,1.24,13.52,13.52,0,0,1,0,2.38,90.55,90.55,0,0,1-16.81,45.74,30,30,0,0,1-3.73,4.31C1868.84,218.34,1842.74,170.38,1842.15,169.38Z"/><path class="cls-5" d="M1608,29.32s-79.89-3.46-82-3.59c8.06-7.46,19.7-15.33,29.89-19.21C1571.43.6,1587.45-.6,1603.79,2A41.85,41.85,0,0,1,1608,3.06C1608.07,4.81,1608,29.32,1608,29.32Z"/><path class="cls-6" d="M1330.76,42.28c-2.19-1.32-32.53-16.09-34-16.6,0-.81,0-16.08.07-22.94,0-2.22.33-2.53,2.48-2.58,2.71-.07,5.43,0,8.14,0,10.86,0,21.71-.1,32.57-.1C1341.43,0,1332.22,42.57,1330.76,42.28Z"/><path class="cls-14" d="M36.19,236a95.06,95.06,0,0,1-19.6-20.21A89.72,89.72,0,0,1,1.29,179,73.16,73.16,0,0,1,0,165.25c0-1.54.46-1.94,2-2.05.32,0,.64,0,1,0L32.51,163C32.2,164.06,36.35,233.45,36.19,236Z"/><path class="cls-6" d="M182.3,180c-.75-.27-45.79-69-47-72.57,1.23,0,46.56,5.08,48,5.29.06,9.89.25,22.19.26,32.08,0,8.29-.09,16.59-.16,24.88A75.23,75.23,0,0,1,182.3,180Z"/><path class="cls-15" d="M1500.09,190.1c.31-.06,5.18-19.3,6.14-21.69.59,1,40.63,75.89,41.41,77.41a38.07,38.07,0,0,1-4.48-2.23,91.49,91.49,0,0,1-39.78-44.81A57.79,57.79,0,0,1,1500.09,190.1Z"/><path class="cls-2" d="M1842.43,150.8c-.12.81-.31,1.14-.93,1.27-2.13.12-8.19.09-8.19.09l-35.38-48.43h6.93c12.46,0,23-.13,35.45-.15,2.15.36,2.15,1.83,2.11,3.6q0,19,0,38C1842.39,146,1842.5,150,1842.43,150.8Z"/><path class="cls-1" d="M135.28,107.4c.7-1.43,46-60.81,48-61,0,2.27,0,6,0,7,0,17.79.12,35.58.11,53.37,0,.79-.07,5.1-.11,5.89C182.14,112.69,139.67,108.23,135.28,107.4Z"/><path class="cls-13" d="M945.23,193.61c-1.19,2.06-2.5,4.23-3.85,6.18a126.44,126.44,0,0,1-40.2,37.61c-1.49.89-19,9.11-22.5,10.14-.7-1.35-7.77-13-7.77-13S943,193.65,945.23,193.61Z"/><path class="cls-10" d="M1842.15,169.38c.65.08,26.85,48.93,28,51.34-.43.55-2.3,2.83-2.74,3.38-1.94-.83-41.75-21.51-44.85-23.89,4.48-3.61,10.55-9.19,13.53-14.16a40.52,40.52,0,0,0,5.23-12.71A31.58,31.58,0,0,0,1842.15,169.38Z"/><path class="cls-8" d="M547.89,11.65c.41,2,1.63,6.29,1.9,8.09-1.91,0-48.66,68.48-49.27,69.29.06-1.23.05-4.48.06-5a66.08,66.08,0,0,1,4.29-21.51C512.4,41.66,525.31,25,544.4,13.47A34.11,34.11,0,0,1,547.89,11.65Z"/><path class="cls-6" d="M265.75,235.66c.14,4.79.08,13.11.07,17.73a1.47,1.47,0,0,1-1.52,1.51c-.95,0-1.91.08-2.87.08H221.68c-.63,0-1.27,0-1.91,0-1.53-.09-2.05-.5-2-2,.07-4.46,0-12.22,0-16.72C233.6,236.22,249.9,235.68,265.75,235.66Z"/><path class="cls-8" d="M1670,204.41c-1.12-1.6-17.7-34.84-18.94-37.52l26.32-.11c.32,0,.64,0,1,0a1.42,1.42,0,0,1,1.48,1.48,43.55,43.55,0,0,1-.86,9A76.65,76.65,0,0,1,1670,204.41Z"/><path class="cls-10" d="M991.82,242.83c5.34-1,47-1.05,48.56-.94-.11,3.7-.08,7.39-.09,11.07,0,1.73-.48,2.13-2.39,2.16-3.68,0-7.35,0-11,0H997.6c-1.12,0-2.24,0-3.36,0-2-.08-2.42-.4-2.42-2.63C991.83,249.3,991.74,246,991.82,242.83Z"/><path class="cls-14" d="M812.07,252.93c-.05-.29,58.84-18.39,58.84-18.39s6,9.33,7.77,13c-8.65,3.68-20.81,5.83-27.31,6.62a138.27,138.27,0,0,1-32.53-.2C816.38,253.64,813.51,253.26,812.07,252.93Z"/><path class="cls-9" d="M1330.77,42.27c-.94,2.34-33.34,21.66-33.79,21.78-.06-7.88-.17-15.76-.13-23.64,0-3.3-.08-11.55-.08-14.74C1298.6,26,1327.29,40.33,1330.77,42.27Z"/><path class="cls-6" d="M1781.75,253.65c1.25-.25,76.48-20.82,77.6-20.83a36.42,36.42,0,0,1-3.75,2.92,91.22,91.22,0,0,1-41.52,18.09C1797.85,256.13,1781.17,253.77,1781.75,253.65Z"/><path class="cls-12" d="M531.33,232.05c4.35-.24,8.34-.47,12.43-.87.43-.05,37.38,23.11,38,23.58C562.88,251.84,537.88,237.73,531.33,232.05Z"/><path class="cls-14" d="M1661,88.94c.47-1.39,10.51-32.79,11.42-33.25,2.7,5,4,10.44,5.32,15.83a73,73,0,0,1,2.08,15.09c0,2-.27,2.33-2.11,2.33C1672.65,88.93,1666.11,89,1661,88.94Z"/><path class="cls-12" d="M667,215.5c.45-2.57,9.08-47.32,9.15-48.55,1.72,0,2.7,0,6.28,0,1,0,1.14.55,1,1.81-.22,2.52-.78,9.36-1.25,11.84A81.24,81.24,0,0,1,667,215.5Z"/><path class="cls-11" d="M1591.27,49.09c.54-.84,14-16.83,16.71-19.77.33.72,5.7,23.75,6.62,28.24-1.47-1-2.27-1.27-3.35-1.91C1606.27,52.73,1596,49.32,1591.27,49.09Z"/><path class="cls-14" d="M1344.61,44.12c-2.61,0-14.11-.67-13.85-1.91.55-2.66,6.06-42.1,7.16-42.17,2.15,0,3.78-.09,5.27,0a1.92,1.92,0,0,1,1.57,2.19C1344.72,11.64,1345.2,34.73,1344.61,44.12Z"/><path class="cls-7" d="M1842.26,86.15c1.84-.9,40.94-22.69,43.48-24.18.69,1.72,1.25,3.91,1.82,5.88a90,90,0,0,1,3.1,19.28c.08,1.27-.36,1.77-1.57,1.84-.79,0-1.59,0-2.39,0l-40.14,0c-.64,0-1.27,0-1.91,0C1842.37,89,1842.37,89,1842.26,86.15Z"/><path class="cls-7" d="M1344.61,44.12c.07,8,.18,16,.19,23.94,0,5.1-.13,10.2-.21,15.31-2,0-14-40.49-13.82-41.1"/><path class="cls-12" d="M1608,29.32s0-23.94,0-26.26c8.88,1.22,16,4.14,23.62,8.86"/></g></g></svg>