<svg xmlns="http://www.w3.org/2000/svg" viewBox="0 0 1582.78 918.97"><defs><style>.cls-1{isolation:isolate;}.cls-2{fill:#fe894b;}.cls-3{fill:#ff1390;}.cls-4{fill:#066ce1;}.cls-5{fill:#fcfcfc;}.cls-6{fill:#d6fe4b;}.cls-7{fill:#fc3179;}.cls-8{fill:#06ffeb;}.cls-9{fill:#fff;}.cls-10{fill:#ffe794;}.cls-11{fill:#fe4b4b;}.cls-12{fill:#830dff;}.cls-13{fill:#ffa017;}.cls-14{fill:#068d83;}.cls-15{fill:#ce4773;}.cls-16{fill:#ffd82e;}.cls-17{fill:#a2db4f;}.cls-18{fill:#ff458e;}.cls-19{fill:#e23329;}.cls-20{fill:#ff7616;}.cls-21{fill:#00a3ff;}.cls-22{fill:#fe2e01;}.cls-22,.cls-24{mix-blend-mode:screen;}.cls-23{fill:#febf01;}.cls-24{fill:#1e01fe;}.cls-25{fill:#fe0;}.cls-26{fill:#ff2eff;}</style></defs><title>Asset 7</title><g class="cls-1"><g id="Layer_2" data-name="Layer 2"><g id="Layer_1-2" data-name="Layer 1"><path class="cls-2" d="M683.82,171.15c-15.36-11.32-35.33-20.38-61.05-27.7-21.37-6.08-57.26-19.44-57.52-40.61C565,81,584.54,64.34,611.74,63.15c22.44-1,44.29,11.76,46.44,22.87,0,0,29.11-24.6,12.67-61.3A116.81,116.81,0,0,0,609.43,9.88c-56.21,2.44-98.13,42.69-97.5,93.62.21,17.31,6.49,42.37,35.2,63.54,15.35,11.32,35.32,20.38,61,27.7,21.36,6.08,57.25,19.44,57.51,40.6.27,21.82-19.28,38.51-46.49,39.69-22.42,1-44.28-11.75-46.43-22.86,0,0-28.65,24.72-12.68,61.29a117.12,117.12,0,0,0,56.85,15c1.53,0,3.06,0,4.58-.1,56.21-2.44,98.12-42.69,97.49-93.63C718.8,217.38,712.52,192.31,683.82,171.15Z"/><path class="cls-3" d="M690.93,161.37c-15.36-11.32-35.33-20.38-61-27.7-21.37-6.08-57.26-19.44-57.52-40.6-.27-21.82,19.29-38.51,46.49-39.69,22.44-1,44.29,11.76,46.44,22.86,0,0,29.11-24.6,12.67-61.29A116.82,116.82,0,0,0,616.54.1C560.33,2.54,518.41,42.79,519,93.73c.21,17.3,6.49,42.37,35.2,63.53,15.35,11.32,35.32,20.38,61,27.7,21.36,6.08,57.25,19.44,57.51,40.61.27,21.81-19.28,38.5-46.49,39.69-22.41,1-44.28-11.76-46.43-22.87,0,0-28.65,24.73-12.68,61.3a117.22,117.22,0,0,0,56.85,14.94c1.53,0,3.06,0,4.58-.1,56.21-2.44,98.12-42.69,97.49-93.62C725.91,207.6,719.63,182.54,690.93,161.37Z"/><path class="cls-4" d="M679.37,162.26c-15.35-11.32-35.32-20.38-61-27.7C597,128.48,561.07,115.12,560.81,94c-.27-21.82,19.28-38.51,46.49-39.7,22.44-1,44.28,11.76,46.43,22.87,0,0,29.11-24.6,12.68-61.3A117,117,0,0,0,605,1c-56.21,2.44-98.12,42.69-97.49,93.62.21,17.31,6.49,42.38,35.19,63.54,15.36,11.32,35.33,20.38,61.05,27.7,21.37,6.08,57.26,19.44,57.52,40.6.27,21.82-19.29,38.51-46.49,39.7-22.42,1-44.29-11.76-46.43-22.87,0,0-28.65,24.73-12.68,61.3a117.22,117.22,0,0,0,56.85,14.94c1.53,0,3.06,0,4.57-.1,56.21-2.44,98.13-42.69,97.5-93.62C714.36,208.49,708.08,183.42,679.37,162.26Z"/><path class="cls-5" d="M685.59,165.81c-15.35-11.32-35.32-20.38-61-27.7C603.18,132,567.29,118.68,567,97.51,566.76,75.7,586.31,59,613.52,57.82,636,56.85,657.8,69.58,660,80.69c0,0,29.11-24.61,12.68-61.3A116.88,116.88,0,0,0,611.2,4.54C555,7,513.08,47.24,513.71,98.17c.21,17.3,6.49,42.37,35.2,63.54,15.35,11.32,35.32,20.38,61,27.7,21.37,6.07,57.26,19.43,57.52,40.6.27,21.82-19.28,38.51-46.49,39.69-22.42,1-44.28-11.76-46.43-22.87,0,0-28.65,24.73-12.68,61.3a117.12,117.12,0,0,0,56.85,14.95c1.53,0,3.06,0,4.58-.1,56.21-2.45,98.12-42.7,97.49-93.63C720.58,212.05,714.3,187,685.59,165.81Z"/></g><g id="Layer_1_copy" data-name="Layer 1 copy"><path class="cls-6" d="M1040.26,305.32S1010,277.18,1036.6,237a112,112,0,1,0-200.12-69.22A110.15,110.15,0,0,0,857,232.33c30.34,42-2.82,71.24-2.82,71.24a165.55,165.55,0,0,1-71-135.82c0-91.17,74.17-165.34,165.34-165.34s165.35,74.17,165.35,165.34A165.15,165.15,0,0,1,1040.26,305.32Z"/><path class="cls-7" d="M1022.48,303.55s-30.27-28.15-3.66-68.35A112,112,0,1,0,818.71,166a110.17,110.17,0,0,0,20.51,64.58c30.34,42-2.82,71.23-2.82,71.23a165.55,165.55,0,0,1-71-135.81C765.38,74.8,839.56.63,930.73.63S1096.08,74.8,1096.08,166A165.19,165.19,0,0,1,1022.48,303.55Z"/><path class="cls-8" d="M1026.93,314.21s-30.28-28.14-3.67-68.35a112,112,0,1,0-200.11-69.22,110.15,110.15,0,0,0,20.51,64.58c30.34,42-2.82,71.23-2.82,71.23a165.52,165.52,0,0,1-71-135.81c0-91.17,74.17-165.35,165.34-165.35s165.35,74.18,165.35,165.35A165.15,165.15,0,0,1,1026.93,314.21Z"/><path class="cls-9" d="M1031.37,308s-30.28-28.15-3.66-68.35A112,112,0,1,0,827.6,170.42,110.14,110.14,0,0,0,848.1,235c30.35,42-2.82,71.23-2.82,71.23a165.54,165.54,0,0,1-71-135.81c0-91.17,74.17-165.35,165.35-165.35S1105,79.25,1105,170.42A165.15,165.15,0,0,1,1031.37,308Z"/></g><g id="Layer_1_copy_2" data-name="Layer 1 copy 2"><path class="cls-10" d="M992.35,350.19a99.2,99.2,0,0,0-45.93-29.54c-33.63,15.3-31.5,48.69-31.5,48.69,15.51.08,28.08,5.48,37.38,16.06a52.34,52.34,0,0,1,12.81,33.85c-.11,20.35-15.84,49-50.47,49l-101.32,0s-.25,133.05-.25,152.87a53.57,53.57,0,0,0,53.39-53.24c0-25.21.1-46.26.1-46.26h48.08c29.94,0,57.12-11.71,76.54-33a103.14,103.14,0,0,0,1.17-138.41Z"/><path class="cls-11" d="M975.47,339.52A99.25,99.25,0,0,0,929.53,310c-33.62,15.31-31.5,48.69-31.5,48.69,15.51.08,28.09,5.49,37.38,16.06a52.25,52.25,0,0,1,12.81,33.85c-.11,20.35-15.84,49-50.47,49l-101.32,0s-.25,133.05-.25,152.87a53.57,53.57,0,0,0,53.39-53.24c0-25.22.1-46.26.1-46.26h48.08c29.94,0,57.13-11.72,76.54-33a103.14,103.14,0,0,0,1.18-138.42Z"/><path class="cls-12" d="M979,347.52A99.18,99.18,0,0,0,933.08,318c-33.62,15.31-31.49,48.69-31.49,48.69,15.51.08,28.08,5.48,37.38,16.06a52.36,52.36,0,0,1,12.81,33.85c-.11,20.35-15.85,49-50.47,49l-101.33,0s-.24,133.06-.24,152.88a53.58,53.58,0,0,0,53.39-53.24c0-25.22.09-46.26.09-46.26h48.09c29.94,0,57.12-11.72,76.54-33A103.16,103.16,0,0,0,979,347.52Z"/><path class="cls-9" d="M985.24,345.74a99.27,99.27,0,0,0-45.93-29.54c-33.63,15.31-31.5,48.69-31.5,48.69,15.51.09,28.08,5.49,37.38,16.06A52.36,52.36,0,0,1,958,414.8c-.11,20.35-15.84,49-50.47,49l-101.32,0S806,596.82,806,616.64a53.58,53.58,0,0,0,53.39-53.24c0-25.22.1-46.26.1-46.26h48.08c29.94,0,57.12-11.71,76.54-33a103.16,103.16,0,0,0,1.17-138.42Z"/></g><g id="Layer_4" data-name="Layer 4"><path class="cls-13" d="M1248.74,620.24V313.61h53.33v253.3C1302.07,594.58,1279.17,621,1248.74,620.24Z"/><path class="cls-13" d="M1211,487.45l0-53.32-105.63.06V313.61c-27.43,0-53.33,22.28-53.33,53.32V620.24h53.33V487.52Z"/><path class="cls-14" d="M1269.18,619.35V312.72h53.33V566C1322.51,593.69,1299.61,620.13,1269.18,619.35Z"/><path class="cls-14" d="M1231.4,486.57l0-53.33-105.63.06V312.72c-27.43,0-53.32,22.29-53.32,53.32V619.35h53.32V486.63Z"/><path class="cls-15" d="M1255.85,611.35V304.72h53.33V558C1309.18,585.69,1286.28,612.13,1255.85,611.35Z"/><path class="cls-15" d="M1218.07,478.57l0-53.33-105.63.06V304.72c-27.43,0-53.33,22.29-53.33,53.32V611.35h53.33V478.63Z"/><path class="cls-9" d="M1261.19,616.68V310.05h53.32V563.36C1314.51,591,1291.61,617.46,1261.19,616.68Z"/><path class="cls-9" d="M1223.4,483.9l0-53.33-105.63.06V310.05c-27.43,0-53.32,22.29-53.32,53.33v253.3h53.32V484Z"/></g><g id="Layer_5" data-name="Layer 5"><path class="cls-16" d="M1162.57,905.64v-253c0-32.1,26.26-53.32,53.33-53.32v253C1215.9,884.42,1189.68,905.64,1162.57,905.64Z"/><path class="cls-17" d="M1143.91,915.41v-253c0-32.1,26.25-53.33,53.32-53.33v253C1197.23,894.2,1171,915.41,1143.91,915.41Z"/><path class="cls-18" d="M1159,919V666c0-32.1,26.25-53.33,53.32-53.33v253C1212.34,897.75,1186.13,919,1159,919Z"/><path class="cls-9" d="M1153.68,912.75v-253c0-32.11,26.26-53.33,53.33-53.33v253C1207,891.53,1180.8,912.75,1153.68,912.75Z"/></g><g id="Layer_6" data-name="Layer 6"><path class="cls-19" d="M1525.84,916.05l-109.3-194.7s-67,127-76.87,146c-12.21,24.78-40.72,37.26-72.46,23.18L1415,609.72s116.31,206.78,130.9,233.17C1562.26,872,1550.38,901.34,1525.84,916.05Z"/><path class="cls-20" d="M1555.17,907.16l-109.3-194.7s-67,127-76.87,146c-12.21,24.78-40.72,37.26-72.46,23.18l147.82-280.85S1560.67,807.61,1575.26,834C1591.59,863.14,1579.71,892.45,1555.17,907.16Z"/><path class="cls-21" d="M1535.62,913.38l-109.3-194.69s-67,127-76.87,146c-12.22,24.78-40.72,37.26-72.46,23.18L1424.8,607.06s116.32,206.77,130.91,233.17C1572,869.37,1560.16,898.67,1535.62,913.38Z"/><path class="cls-9" d="M1545.4,913.38,1436.09,718.69s-67,127-76.86,146c-12.22,24.78-40.72,37.26-72.47,23.18l147.82-280.85s116.31,206.77,130.9,233.17C1581.82,869.37,1569.94,898.67,1545.4,913.38Z"/></g><g id="Layer_11" data-name="Layer 11"><path class="cls-22" d="M343.44,804.68c-46.52.72-93.3-17.27-97.16-105.64-4.62-105.51.23-119.27-91.39-186.94C64.75,445.52,64.29,350,125.68,296.48c46.26-40.36,133.64-30.42,180.23,7.07s55.62,81.76,100,119.32,74.15,32.22,103.26,27.79,86.64-.19,99.78,43.14,2.51,89-74.32,105.16C427.14,621.6,440.4,671.33,425,724.93,411.18,773.2,415.46,805.4,343.44,804.68Z"/><path class="cls-23" d="M126.78,812.83C15.08,805.48,5.69,772,1.6,755.66c-6.48-25.93,6.22-66.91,48.1-77.78,16.37-4.26,137.15,32.58,152.53-44.09,15.48-77.17-49.23-79.57-75-83-46.73-6.22-59.26-29.2-54.42-67.9s23.12-48.07,136.32-31c37.71,5.68,116.49,19.4,133,46.65,20.19,33.29,9.78,212.89-44.85,264.68C243.68,814.06,202.81,817.84,126.78,812.83Z"/><path class="cls-24" d="M281,693.33c-30.76-115.94-51.4-251.58,63.48-257.43,121.08-6.17,127.23,70.1,132,154.08s55.12,66,146.15,57.35c52.49-6.15,100.2,16.29,103.55,69.27S689,797.79,644.85,802s-98.38,3.13-122.23,2.75C349.74,803.76,311.73,809.26,281,693.33Z"/><path class="cls-25" d="M342.17,498.53c-16.53-27.25-95.31-41-133-46.65-64.11-9.66-94.94-11.49-111.31-4.39,11.7,22.84,30.47,45,57,64.61,91.62,67.67,86.77,81.43,91.39,186.94,1.8,41.2,12.93,67.1,29,82.94a255.19,255.19,0,0,0,22-18.77C352,711.42,362.36,531.82,342.17,498.53Z"/><path class="cls-26" d="M476.43,590c-4.76-84-10.91-160.25-132-154.08-32.25,1.64-53.82,13.51-67.48,32.3-35,48.14,17.34,268.74,25.71,283.61,16.9,30,40.05,42.83,79.4,48.38,32.37-10.4,32.28-38.06,42.95-75.26,12.06-42,6.52-81.68,55.39-107.76A133.82,133.82,0,0,1,476.43,590Z"/><path class="cls-9" d="M342.17,498.53c-8.76-14.44-35-25.08-63.37-32.74-37.42,47.38-20.34,142.72,2.16,227.54,7,26.42,14.41,46.53,23.69,61.85C352.86,695,361.42,530.27,342.17,498.53Z"/></g></g></g></svg>