<svg xmlns="http://www.w3.org/2000/svg" viewBox="0 0 1894.07 433.82"><defs><style>.cls-1{fill:#e23329;}.cls-2{fill:#ff7616;}.cls-3{fill:#00a3ff;}.cls-4{fill:#ff458e;}.cls-5{fill:#ffd82e;}.cls-6{fill:#a2db4f;}.cls-7{fill:#068d83;}.cls-8{fill:#ce4773;}.cls-9{fill:#ffa017;}.cls-10{fill:#ff0606;}.cls-11{fill:#fe4b4b;}.cls-12{fill:#ffe794;}.cls-13{fill:#d6fe4b;}.cls-14{fill:#fc3179;}.cls-15{fill:#06ffeb;}.cls-16{fill:#066ce1;}.cls-17{fill:#fe894b;}.cls-18{fill:#ff1390;}.cls-19{fill:#fff;}</style></defs><title>Asset 1</title><g id="Layer_2" data-name="Layer 2"><g id="Layer_8" data-name="Layer 8"><path class="cls-1" d="M1581.46,423.63l-5-256a142,142,0,0,1,10.13-56.37,144.18,144.18,0,0,1,30-46.64A148.26,148.26,0,0,1,1662,32.53a140.5,140.5,0,0,1,56.48-12.62,139.06,139.06,0,0,1,56.37,10.41,148.58,148.58,0,0,1,46.65,30.26A144.55,144.55,0,0,1,1853.28,106,142,142,0,0,1,1865.61,162l5,256-75.8,1.48-2.17-110.61-137.56,2.69,2.16,110.61ZM1720,95.71a68,68,0,0,0-26.56,5.85,69.89,69.89,0,0,0-36.34,37.51,67.16,67.16,0,0,0-4.81,27.05l1.36,69.62,137.56-2.69-1.36-69.62a67.17,67.17,0,0,0-5.86-26.84,72.45,72.45,0,0,0-15-21.62,66,66,0,0,0-22.18-14.45A68,68,0,0,0,1720,95.71Z"/><path class="cls-2" d="M1593.07,394,1605,138.16a141.87,141.87,0,0,1,13.83-55.58,144.3,144.3,0,0,1,33-44.56,148.12,148.12,0,0,1,47.45-29A144.08,144.08,0,0,1,1812,14.29a148.38,148.38,0,0,1,44.54,33.27A144.5,144.5,0,0,1,1885.29,95a142,142,0,0,1,8.61,56.62L1882,407.42l-75.74-3.52,5.15-110.52L1674,287l-5.16,110.51ZM1752.94,75.9A68,68,0,0,0,1726.05,80a69.14,69.14,0,0,0-22.85,13.83A70,70,0,0,0,1687.31,115a67.12,67.12,0,0,0-6.58,26.68l-3.24,69.56,137.43,6.4,3.25-69.56a67.29,67.29,0,0,0-4.08-27.17,72.53,72.53,0,0,0-13.56-22.56,66.09,66.09,0,0,0-21.19-15.89A68.05,68.05,0,0,0,1752.94,75.9Z"/><path class="cls-3" d="M1591.44,406.83l-3.62-256a141.72,141.72,0,0,1,10.44-56.31A144.32,144.32,0,0,1,1628.49,48a148.2,148.2,0,0,1,45.61-31.81A144.14,144.14,0,0,1,1787,14.57a148.49,148.49,0,0,1,46.49,30.52A144.54,144.54,0,0,1,1865,90.7a142,142,0,0,1,12,56l3.62,256.05-75.81,1.08-1.56-110.62-137.58,1.94,1.57,110.62ZM1731.72,79.66a67.93,67.93,0,0,0-26.6,5.71,69.16,69.16,0,0,0-22,15.2,69.92,69.92,0,0,0-14.57,22.11,67.05,67.05,0,0,0-4.95,27l1,69.62,137.57-1.94-1-69.63a67.56,67.56,0,0,0-5.71-26.88,72.71,72.71,0,0,0-14.91-21.69,66.07,66.07,0,0,0-22.11-14.57A67.93,67.93,0,0,0,1731.72,79.66Z"/></g><g id="Layer_7" data-name="Layer 7"><path class="cls-4" d="M1543.8,32.85v401H1468v-401Z"/><path class="cls-5" d="M1545.8,8.85v401H1470V8.85Z"/><path class="cls-6" d="M1527.26,16.48l16.11,400.64-75.75,3.05L1451.5,19.53Z"/></g><g id="Layer_6" data-name="Layer 6"><path class="cls-7" d="M1316.39,424.82V262.52H1178.8v162.3H1103v-401h75.81V186.71h137.59V24.41h75.81V424.82Z"/><path class="cls-8" d="M1326.83,426.87l10.6-161.95-137.29-9-10.6,162-75.65-4.95,26.19-400.11,75.65,4.95-10.64,162.51,137.29,9,10.61-162,75.65,5-26.16,399.55Z"/><path class="cls-9" d="M1333.26,408.33l-7.73-162.12-137.43,6.56,7.73,162.11-75.73,3.61L1101,18l75.73-3.61L1184.49,177l137.43-6.55L1314.19,8.38l75.73-3.61L1409,404.71Z"/></g><g id="Layer_5" data-name="Layer 5"><path class="cls-10" d="M863.74,309.15l5.76,110.48-75.71,3.94L779.9,167.87a139,139,0,0,1,8.57-56.68,146.89,146.89,0,0,1,73.1-81.13,138.85,138.85,0,0,1,55.48-14.42,140.28,140.28,0,0,1,54.38,7.57,145.7,145.7,0,0,1,46.37,26.54,149,149,0,0,1,33.94,41.53,138.85,138.85,0,0,1,16.51,52.56,150.58,150.58,0,0,1-8.93,60.64,155.23,155.23,0,0,1-77.87,86.44,150.38,150.38,0,0,1-59.38,15.19ZM921,91.35a68.14,68.14,0,0,0-26.36,6.71,66,66,0,0,0-21.09,16A72.27,72.27,0,0,0,860.1,136.7a67.11,67.11,0,0,0-3.93,27.2l3.63,69.54,61.13-3.19a74.2,74.2,0,0,0,29.13-7.42,76.23,76.23,0,0,0,38.27-42.49,74.1,74.1,0,0,0,4.36-29.75,69.92,69.92,0,0,0-8-24.6,65.54,65.54,0,0,0-15.9-19.14A69.54,69.54,0,0,0,921,91.35Z"/><path class="cls-11" d="M883.55,316.19V426.82H807.74l-.56-256.08a138.88,138.88,0,0,1,11.51-56.16,146.88,146.88,0,0,1,77.22-77.21,139,139,0,0,1,56.16-11.52A140.52,140.52,0,0,1,1006,36.24a145.9,145.9,0,0,1,44.92,28.92,148.71,148.71,0,0,1,31.73,43.25,138.71,138.71,0,0,1,13.76,53.35,150.56,150.56,0,0,1-12.07,60.08,155.28,155.28,0,0,1-82.27,82.28A150.51,150.51,0,0,1,942,316.19Zm68.52-214.52A68,68,0,0,0,925.39,107a66,66,0,0,0-21.9,14.88,72.32,72.32,0,0,0-14.6,21.9,67.09,67.09,0,0,0-5.34,27v69.64h61.21a74.14,74.14,0,0,0,29.49-5.9,76.3,76.3,0,0,0,40.43-40.43,74.07,74.07,0,0,0,5.9-29.49,70,70,0,0,0-6.74-25A65.61,65.61,0,0,0,999,119.64a69.54,69.54,0,0,0-46.89-18Z"/><path class="cls-12" d="M879.55,303.19V413.82H803.74l-.56-256.08a138.88,138.88,0,0,1,11.51-56.16,146.88,146.88,0,0,1,77.22-77.21,139,139,0,0,1,56.16-11.52A140.52,140.52,0,0,1,1002,23.24a145.9,145.9,0,0,1,44.92,28.92,148.71,148.71,0,0,1,31.73,43.25,138.71,138.71,0,0,1,13.76,53.35,150.56,150.56,0,0,1-12.07,60.08,155.28,155.28,0,0,1-82.27,82.28A150.51,150.51,0,0,1,938,303.19ZM948.07,88.67A68,68,0,0,0,921.39,94a66,66,0,0,0-21.9,14.88,72.32,72.32,0,0,0-14.6,21.9,67.09,67.09,0,0,0-5.34,27v69.64h61.21a74.14,74.14,0,0,0,29.49-5.9,76.3,76.3,0,0,0,40.43-40.43,74.07,74.07,0,0,0,5.9-29.49,70,70,0,0,0-6.74-25A65.61,65.61,0,0,0,995,106.64a69.54,69.54,0,0,0-46.89-18Z"/></g><g id="Layer_4" data-name="Layer 4"><path class="cls-13" d="M566.61,6.85a195.27,195.27,0,0,1,78.06,15.73,201.05,201.05,0,0,1,106.7,106.7,195.44,195.44,0,0,1,15.72,78.06,195.4,195.4,0,0,1-15.72,78.06,201.05,201.05,0,0,1-106.7,106.7,201.67,201.67,0,0,1-156.12,0,201.05,201.05,0,0,1-106.7-106.7,195.07,195.07,0,0,1-15.73-78.06,195.1,195.1,0,0,1,15.73-78.06,201.05,201.05,0,0,1,106.7-106.7A195.2,195.2,0,0,1,566.61,6.85Zm0,324a122.63,122.63,0,0,0,87.6-35.94,127,127,0,0,0,26.68-39.31,123.55,123.55,0,0,0,0-96.59,127.08,127.08,0,0,0-26.68-39.31,122.74,122.74,0,0,0-87.6-35.94,120.67,120.67,0,0,0-47.74,9.55,123.14,123.14,0,0,0-39.31,26.39A126.88,126.88,0,0,0,452.89,159a123.55,123.55,0,0,0,0,96.59,126.76,126.76,0,0,0,26.67,39.31,123,123,0,0,0,39.31,26.4A120.66,120.66,0,0,0,566.61,330.88Z"/><path class="cls-14" d="M540.61,2.85a195.27,195.27,0,0,1,78.06,15.73,201.05,201.05,0,0,1,106.7,106.7,195.44,195.44,0,0,1,15.72,78.06,195.4,195.4,0,0,1-15.72,78.06,201.05,201.05,0,0,1-106.7,106.7,201.67,201.67,0,0,1-156.12,0,201.05,201.05,0,0,1-106.7-106.7,195.07,195.07,0,0,1-15.73-78.06,195.1,195.1,0,0,1,15.73-78.06,201.05,201.05,0,0,1,106.7-106.7A195.2,195.2,0,0,1,540.61,2.85Zm0,324a122.63,122.63,0,0,0,87.6-35.94,127,127,0,0,0,26.68-39.31,123.55,123.55,0,0,0,0-96.59,127.08,127.08,0,0,0-26.68-39.31,122.74,122.74,0,0,0-87.6-35.94,120.67,120.67,0,0,0-47.74,9.55,123.14,123.14,0,0,0-39.31,26.39A126.88,126.88,0,0,0,426.89,155a123.55,123.55,0,0,0,0,96.59,126.76,126.76,0,0,0,26.67,39.31,123,123,0,0,0,39.31,26.4A120.66,120.66,0,0,0,540.61,326.88Z"/><path class="cls-15" d="M547.61,22.85a195.27,195.27,0,0,1,78.06,15.73,201.05,201.05,0,0,1,106.7,106.7,195.44,195.44,0,0,1,15.72,78.06,195.4,195.4,0,0,1-15.72,78.06,201.05,201.05,0,0,1-106.7,106.7,201.67,201.67,0,0,1-156.12,0,201.05,201.05,0,0,1-106.7-106.7,195.07,195.07,0,0,1-15.73-78.06,195.1,195.1,0,0,1,15.73-78.06,201.05,201.05,0,0,1,106.7-106.7A195.2,195.2,0,0,1,547.61,22.85Zm0,324a122.63,122.63,0,0,0,87.6-35.94,127,127,0,0,0,26.68-39.31,123.55,123.55,0,0,0,0-96.59,127.08,127.08,0,0,0-26.68-39.31,122.74,122.74,0,0,0-87.6-35.94,120.67,120.67,0,0,0-47.74,9.55,123.14,123.14,0,0,0-39.31,26.39A126.88,126.88,0,0,0,433.89,175a123.55,123.55,0,0,0,0,96.59,126.76,126.76,0,0,0,26.67,39.31,123,123,0,0,0,39.31,26.4A120.66,120.66,0,0,0,547.61,346.88Z"/></g><g id="Layer_1-2" data-name="Layer 1"><path class="cls-16" d="M119.06,246.52a116.32,116.32,0,0,1-46.34-9.26A118.86,118.86,0,0,1,9.27,173.52,118.31,118.31,0,0,1,0,126.91,116.31,116.31,0,0,1,9.27,80.58,119.59,119.59,0,0,1,72.72,17.12a116.33,116.33,0,0,1,46.34-9.27H289.21V83.67H119.06a43.14,43.14,0,0,0-43.25,43.24,42.6,42.6,0,0,0,12.64,30.88,41.19,41.19,0,0,0,30.61,12.92H169.6a119.6,119.6,0,0,1,84.8,34.82A120,120,0,0,1,280,243.44a120.53,120.53,0,0,1,0,92.66,118.92,118.92,0,0,1-63.74,63.46,118.51,118.51,0,0,1-46.61,9.26H0V333H169.6a42.6,42.6,0,0,0,30.88-12.64,42.71,42.71,0,0,0,0-61.21,42.64,42.64,0,0,0-30.88-12.64Z"/><path class="cls-17" d="M128.49,262A116.19,116.19,0,0,1,82,253.49a118.87,118.87,0,0,1-64.54-62.64A118.48,118.48,0,0,1,7.39,144.4a116.39,116.39,0,0,1,8.47-46.48A119.64,119.64,0,0,1,78.22,33.38a116.35,116.35,0,0,1,46.17-10.06L294.52,20.4l1.3,75.8L125.69,99.12a43.13,43.13,0,0,0-42.49,44,42.57,42.57,0,0,0,13.16,30.66,41.19,41.19,0,0,0,30.82,12.39l50.54-.87a119.6,119.6,0,0,1,85.38,33.36,120,120,0,0,1,26.2,37.46,120.46,120.46,0,0,1,1.59,92.65,118.87,118.87,0,0,1-62.64,64.54,118.29,118.29,0,0,1-46.44,10.07L12.23,426.27l-1.3-75.8,169.57-2.91a42.66,42.66,0,0,0,30.67-13.17,42.71,42.71,0,0,0-1-61.2,42.63,42.63,0,0,0-31.1-12.1Z"/><path class="cls-18" d="M143.15,243.62a116.37,116.37,0,0,1-46-10.82,119.31,119.31,0,0,1-69-112.74A116.28,116.28,0,0,1,39,74.07a119.55,119.55,0,0,1,65.56-61.29,116.4,116.4,0,0,1,46.62-7.7l170.06,5.73L318.7,86.58,148.63,80.85A43.15,43.15,0,0,0,104,122.61a42.63,42.63,0,0,0,11.59,31.3,41.24,41.24,0,0,0,30.15,13.94l50.52,1.7a119.54,119.54,0,0,1,83.57,37.65A119.67,119.67,0,0,1,304.05,246a120.33,120.33,0,0,1-3.12,92.6,119.28,119.28,0,0,1-112.73,69L18.7,401.81,21.25,326l169.5,5.71a42.62,42.62,0,0,0,31.3-11.59A42.71,42.71,0,0,0,224.11,259a42.64,42.64,0,0,0-30.45-13.67Z"/></g><g id="Layer_2-2" data-name="Layer 2"><path class="cls-19" d="M141.06,251.52a116.32,116.32,0,0,1-46.34-9.26,118.86,118.86,0,0,1-63.45-63.74A118.31,118.31,0,0,1,22,131.91a116.31,116.31,0,0,1,9.27-46.33A119.59,119.59,0,0,1,94.72,22.12a116.33,116.33,0,0,1,46.34-9.27H311.21V88.67H141.06a43.14,43.14,0,0,0-43.25,43.24,42.6,42.6,0,0,0,12.64,30.88,41.19,41.19,0,0,0,30.61,12.92H191.6a119.6,119.6,0,0,1,84.8,34.82A120,120,0,0,1,302,248.44a120.53,120.53,0,0,1,0,92.66,118.92,118.92,0,0,1-63.74,63.46,118.51,118.51,0,0,1-46.61,9.26H22V338H191.6a42.6,42.6,0,0,0,30.88-12.64,42.71,42.71,0,0,0,0-61.21,42.64,42.64,0,0,0-30.88-12.64Z"/><path class="cls-19" d="M550.44,12.85A195.27,195.27,0,0,1,628.5,28.58a201.05,201.05,0,0,1,106.7,106.7,195.27,195.27,0,0,1,15.72,78.06A195.23,195.23,0,0,1,735.2,291.4,201.05,201.05,0,0,1,628.5,398.1a201.67,201.67,0,0,1-156.12,0,201.05,201.05,0,0,1-106.7-106.7A195.07,195.07,0,0,1,350,213.34a195.1,195.1,0,0,1,15.73-78.06,201.05,201.05,0,0,1,106.7-106.7A195.2,195.2,0,0,1,550.44,12.85Zm0,324a122.68,122.68,0,0,0,87.61-35.94,126.94,126.94,0,0,0,26.67-39.31,123.55,123.55,0,0,0,0-96.59,127.05,127.05,0,0,0-26.67-39.31,123.4,123.4,0,0,0-39.32-26.39,122.08,122.08,0,0,0-48.29-9.55,120.67,120.67,0,0,0-47.74,9.55,123.36,123.36,0,0,0-39.31,26.39A126.88,126.88,0,0,0,436.72,165a123.55,123.55,0,0,0,0,96.59,126.76,126.76,0,0,0,26.67,39.31,123.22,123.22,0,0,0,39.31,26.4A120.66,120.66,0,0,0,550.44,336.88Z"/><path class="cls-19" d="M872.22,303.19V413.82H796.4l-.56-256.08a138.89,138.89,0,0,1,11.52-56.16,146.81,146.81,0,0,1,77.21-77.21,139,139,0,0,1,56.16-11.52,140.44,140.44,0,0,1,53.91,10.39,145.83,145.83,0,0,1,44.93,28.92,148.89,148.89,0,0,1,31.73,43.25,139.07,139.07,0,0,1,13.76,53.35A150.4,150.4,0,0,1,1073,208.84a155.19,155.19,0,0,1-82.27,82.28,150.48,150.48,0,0,1-60.09,12.07ZM940.73,88.67A68,68,0,0,0,914.06,94a66,66,0,0,0-21.91,14.88,72.69,72.69,0,0,0-14.6,21.9,67.26,67.26,0,0,0-5.33,27v69.64h61.21a74.05,74.05,0,0,0,29.48-5.9,76.37,76.37,0,0,0,40.44-40.43,74.06,74.06,0,0,0,5.89-29.49,69.83,69.83,0,0,0-6.74-25,65.29,65.29,0,0,0-14.88-19.93,69.54,69.54,0,0,0-46.89-18Z"/><path class="cls-19" d="M1335.52,413.82V251.52H1197.93v162.3h-75.81v-401h75.81V175.71h137.59V13.41h75.81V413.82Z"/><path class="cls-19" d="M1543.29,12.85v401h-75.81v-401Z"/><path class="cls-19" d="M1597.2,413.82V157.74a141.91,141.91,0,0,1,11.23-56.16,144.26,144.26,0,0,1,30.89-46,148,148,0,0,1,46-31.16,144,144,0,0,1,112.87,0,148.24,148.24,0,0,1,46,31.16,144.59,144.59,0,0,1,30.89,46.05,141.91,141.91,0,0,1,11.23,56.16V413.82H1810.6V303.19H1673V413.82ZM1742.09,88.67A68,68,0,0,0,1715.41,94a69.84,69.84,0,0,0-37.06,36.78,67.09,67.09,0,0,0-5.34,27v69.64H1810.6V157.74a67.26,67.26,0,0,0-5.34-27,72.5,72.5,0,0,0-14.6-21.9A65.93,65.93,0,0,0,1768.76,94,68,68,0,0,0,1742.09,88.67Z"/></g></g></svg>