<svg id="demo" xmlns="http://www.w3.org/2000/svg" width="675" height="630" viewBox="0 0 675 630">
  <defs>
    <style>
      .cls-1 {
        fill: #280582;
      }

      .cls-1, .cls-2, .cls-3, .cls-4, .cls-5, .cls-6, .cls-7, .cls-8 {
        fill-rule: evenodd;
      }

      .cls-2 {
        fill: #058276;
      }

      .cls-3 {
        fill: #9da612;
      }

      .cls-4 {
        fill: #bf94a2;
      }

      .cls-5 {
        fill: #fb124e;
      }

      .cls-6 {
        fill: #faa847;
      }

      .cls-7 {
        fill: #37a6f6;
      }

      .cls-8 {
        fill: #f71c69;
      }
    </style>
  </defs>
  <g>
    <path id="layer1" data-name="Color Fill 16" class="cls-1" d="M586.111,371.1c59.615-77.82,7.455-230.941-22.755-273.069C481.705-15.828,386.084-4.394,349.322,6.583,239.846,39.273,138.93,181.808,117.165,283.138,68.119,511.473,421.9,696.924,462.16,605.01,506.056,504.792,508.472,472.452,586.111,371.1Z"/>
    <path id="layer2" data-name="Color Fill 11" class="cls-2" d="M37,215c51.781-38.5,110.289-11.422,125,4,17.81,18.671,53.361,138.441,88,160s104.66,58.565-8,67S55.282,433.686,21,368C-12.39,304.024-4.2,245.635,37,215Z"/>
    <path id="layer3" data-name="Color Fill 12" class="cls-3" d="M67.987,277.943c35.2-23.076,89.166-15.146,106.4-12.063s77.224,51.427,62.571,106.946c-18.244,69.124-84.99,114.641-171,53.165C10.433,386.3,31.366,301.95,67.987,277.943Z"/>
    <path id="layer4" data-name="Color Fill 13 copy" class="cls-4" d="M550,416c42.632-23.248,78.729-11.236,90.345,14.727C651.759,456.24,639.685,480.989,606,494c-23.669,9.142-103.976-6.038-143-21C495.212,445.166,501.186,442.619,550,416Z"/>
    <path id="layer5" data-name="Color Fill 13" class="cls-4" d="M579,388.772c23.249-37.544,59.62-29.08,80-7.5s21.583,53.694,1,78.173c-14.48,17.22-81.952,25.622-119,24.63C552.417,447.627,551.08,433.859,579,388.772Z"/>
    <path id="layer6" data-name="Color Fill 15" class="cls-5" d="M84.5,431.636c19.363-13.067,38.87-5.029,48.037,8.728s10.529,27.5,17.468,50.181c-15.766,4.088-55.465,6.05-68.78-8.727S66.974,443.461,84.5,431.636Z"/>
  </g>
  <g>
    <path id="layer7" data-name="Color Fill 9" class="cls-6" d="M168.626,253.688c28.079-34.247,86.015-8.32,203.621-8.289,140.556,0.036,78.045-9.113,169.684-11.448,93.255-2.375,76.99,20.747,59.437,160.679-13.679,109.046-7.164,145.4-88.074,150.546-67.936,4.318-180.885-23.58-275.345-26.373C145.67,516.074,99.724,538.03,98.456,474.91,96.584,381.77,118.365,314.989,168.626,253.688Z"/>
    <path id="layer8" data-name="Color Fill 10" class="cls-7" d="M372.628,261.949c47.513-6.193,190.389-21.131,214.621-16.651s22.956,51.125,15.473,111.444S619.439,503.373,594.6,529.6,287.526,511.354,217.65,515.16s-96.627-31.321-116.973-75.189S81.176,276.291,104.5,251.4,223.349,281.406,372.628,261.949Z"/>
    <path id="layer9" data-name="Color Fill 8" class="cls-8" d="M119.908,228.6C91.1,235.594,104.9,307.448,104.67,382.722c-0.239,79.348-19.161,103.809-2.5,124.421,22.324,27.622,116.562,10.81,250.43,15.756,56.949,2.1,198.129,11.408,218.056-3.883,63.808-48.961,68.065-188.147,11.354-235.969s-112.982-29.13-217.673-34.04S165.362,217.569,119.908,228.6Z"/>
  </g>
</svg>
