<?xml version="1.0" encoding="utf-8"?>
<!-- Generator: Adobe Illustrator 23.0.1, SVG Export Plug-In . SVG Version: 6.00 Build 0)  -->
<svg version="1.1" id="Layer_1" xmlns="http://www.w3.org/2000/svg" xmlns:xlink="http://www.w3.org/1999/xlink" x="0px" y="0px"
	 viewBox="0 0 1000 1000" style="enable-background:new 0 0 1000 1000;" xml:space="preserve">
<style type="text/css">
	.st0{fill:#00ABAF;}
</style>
<path class="st0" d="M520.4,995.7c-31.7,4.6-31.6,4.5-44.7-21.3c-16.4-32.4-32.9-64.7-52.6-96.6c0,39.4,0,78.8,0,118.9
	c-9.5,0-16.8,0-27.2,0c0-27.3,0-54.2,0-81.2c0-26.6,0-53.2,0-79.5c29.4-8.6,34.9-6.2,47.3,18.2c16.1,31.4,32.5,62.6,48.8,93.8
	c0.1,0.2,1,0.1,3.3,0.2c0-37.8,0-75.7,0-114.4c9,0,16.2,0,25,0C520.4,887.3,520.4,940.9,520.4,995.7z"/>
<path class="st0" d="M694.7,916.2c0,4.6,0,9.3,0,13.9c-0.2,52-35.6,80.3-86.3,68.6c-25.7-5.9-42.9-21.8-45.9-48.2
	c-2.5-21.7-2.9-44.1-0.7-65.8c3.6-35.7,28.7-55.4,65.9-55.2c37.4,0.1,61.4,19.9,66,55.5c1.3,10.2,0.2,20.8,0.2,31.2
	C694.1,916.2,694.4,916.2,694.7,916.2z M588.9,916.3c0.5,9.8,0,20.9,1.9,31.7c3.4,19.5,17.4,30.5,36.6,30.6
	c19.3,0.1,34.2-10.4,36.3-30.3c2.3-21.7,2.4-44,0.1-65.7c-2.3-21-17.3-31.2-37.7-30.5c-19.3,0.6-32.3,11.7-35.5,31.8
	C588.9,894,589.4,904.5,588.9,916.3z"/>
<path class="st0" d="M242.2,832.6c17.5,0,33.6-0.1,49.8,0c32.5,0.2,53.5,10,58.2,31.3c6.6,30.1,5.3,44.9-24.9,67
	c13.2,15.2,11.8,40.2,34.8,49.4c2.1,0.8,2.8,8.7,1.7,12.6c-0.8,2.8-5.4,5.9-8.7,6.4c-13.7,2.2-23.7-4.3-30.4-15.7
	c-5.9-10-11.8-20.1-16.1-30.8c-6.8-17-17.9-22.8-36.7-16c0,18.9,0,38.4,0,59.2c-9.8,0-18.1,0-27.7,0
	C242.2,942.5,242.2,888.8,242.2,832.6z M270.2,912.6c19.2-1.6,40.3,6.8,50.3-13.3c4.5-9.1,3.7-25.8-2-33.9
	c-11.5-16.3-31-9.7-48.2-10C270.2,875,270.2,892.7,270.2,912.6z"/>
<path class="st0" d="M861.8,997.8c0-56.2,0-109.4,0-165.3c37,3.5,79.3-13,105.2,24.1c23.3,33.5,21.5,74.8,3.1,109.6
	C947,1009.7,901.8,994.7,861.8,997.8z M890.6,974.4c45.6,3,60.8-9.8,61-49.6c0-7,0-13.9,0-20.9c-0.1-40.9-19.8-56-61-46.5
	C890.6,896,890.6,934.7,890.6,974.4z"/>
<path class="st0" d="M65.8,995.2c15.8-52,31.4-103.5,47.4-154.8c1-3.3,6-6.8,9.6-7.4c27.6-4.5,32.2-1.7,40.8,24.7
	c13.4,41.3,26.6,82.7,39.8,124.1c1.4,4.3,2.3,8.8,3.9,15.1c-12-2-25.3,8.9-32-8.2c-4.2-10.8-7.3-22-11-33.5c-18.9,0-37.3,0-55.4,0
	C96.2,969.8,107.9,1008.1,65.8,995.2z M114.5,929.5c14.8,0,27.8,0,42.4,0c-6.9-24.3-13.5-47.8-21.5-76.1
	C127.5,881.8,121.2,904.9,114.5,929.5z"/>
<path class="st0" d="M734.7,995.9c0-54.5,0-107.7,0-162.1c9.1,0,17.5,0,27.9,0c0,46.1,0,92.3,0,140.3c23.1,0,44.3,0,66.5,0
	c0,8,0,14.1,0,21.8C798.2,995.9,767.3,995.9,734.7,995.9z"/>
<path class="st0" d="M519.9,770.2c-24.9,0.5-50.3-2.1-75.4-7.4c-65.2-13.8-122.1-43.4-170.5-89c-14.8-14-28.3-29.3-40.1-45.9
	c-11.4-16-13.7-33.6-6.1-51.8c25.9-62.4,52.1-124.6,78.2-186.9c42-100.2,83.9-200.4,125.9-300.6c5.4-12.8,10.5-25.7,16.3-38.4
	c6.6-14.5,16.1-27,29.1-36.5C488,6,500.2,1.4,513.5,0.3c14.1-1.2,27.5,1.2,40.2,7.6c11.4,5.7,20.4,14.1,28,24
	c7.8,10.3,12.7,22.1,17.7,33.9C652.8,193.6,706.4,321.5,760,449.3c17.6,42.1,35.4,84.1,52.8,126.3c7.7,18.6,5.6,36.6-6.3,52.8
	c-41,55.9-94.5,95.5-159.6,119.8c-24,9-48.8,15.1-74.3,18.6C555.3,769.2,538,770.5,519.9,770.2z M520.4,104.2
	c-1.5,3.6-2.8,6.6-4,9.6c-45,107.3-89.9,214.7-134.9,322c-21.5,51.4-43.1,102.8-64.7,154.2c-0.7,1.7-0.8,2.9,0.6,4.3
	c7.3,7.3,14.2,15.1,21.9,22.1c42.9,39,93.5,61.6,151.2,68.3c26.8,3.1,53.5,2.1,79.9-3c43.8-8.4,83.3-26.3,118.1-54.2
	c12.6-10.1,24.4-21.1,35-33.4c1.1-1.3,1.3-2.3,0.6-3.8c-1.3-2.6-2.3-5.3-3.4-8c-34.5-82.3-69-164.6-103.4-247
	c-30-71.7-60-143.3-90-215C525,115.1,522.8,110,520.4,104.2z"/>
<path class="st0" d="M684.2,555c-48.9-36.7-103.4-55.3-164-55.3c-60.5,0.1-114.9,18.7-163.8,55.5c1.3-3.1,2.3-5.6,3.3-8
	c15.4-36.7,30.8-73.4,46.1-110.2c0.7-1.7,1.7-2.7,3.5-3.3c22-7.2,44.5-12.4,67.6-15.2c20.5-2.5,41-3.3,61.6-2.2
	c31.8,1.6,62.9,7.3,93.1,17.5c1.7,0.6,2.6,1.5,3.3,3.1c16,38.4,32.1,76.8,48.1,115.1C683.4,552.8,683.7,553.6,684.2,555z"/>
</svg>
