<?xml version="1.0" encoding="utf-8"?>
<!-- Generator: Adobe Illustrator 23.0.1, SVG Export Plug-In . SVG Version: 6.00 Build 0)  -->
<svg version="1.1" id="Layer_1" xmlns="http://www.w3.org/2000/svg" xmlns:xlink="http://www.w3.org/1999/xlink" x="0px" y="0px"
	 viewBox="0 0 1000 1000" style="enable-background:new 0 0 1000 1000;" xml:space="preserve">
<style type="text/css">
	.st0{fill:#00ABAF;}
</style>
<g>
	<path class="st0" d="M1055,750.8l-341-0.4l-0.1,124.4L662.3,929l-0.4-182.8L449,744.6l1.5-68.3C378.6,669,342.8,632,343.2,565.5
		c1.9-73.2,36-110.7,113.5-115c56,0.3,74.5,26.5,77.9,66.2c1.3,38.6-22.3,63.6-57.2,82.4l-26.8-38.2c53.2-20,51-62.6,6.9-63.7
		c-40.1,4.8-62.9,22.1-63.5,69.6c-2.9,41.9,23.5,59,63.4,64.7c52.4-9.8,88.5-42.5,108.1-98.3v-58.9c-12.7-84.8-88-107.1-166.5-52.1
		l-1-50.1c13.2-14.6,29.6-22.6,49.3-24l0.2-188.3c-97.2,65.1-140.8,169.7-160.2,301.3c-18.6-119.7-61.6-225.5-157.9-300.8l-2,723.6
		L75,917.3v-845c96.1,39.2,164.8,119,216.5,224.8C335,191,431.3,86.7,496,71.1l-0.6,279.3c65.8,5.2,105.4,43.4,118.6,114.4
		l1.2,194.2l-43.8,17.4l-3.8-59c-15.9,25.2-38.4,43.8-67.5,55.8l1.5,20.6l156.2-0.6l-2.2-286.9c-29-69.4-68.7-122.8-124-152.7
		l14.4-45.1c73.4,44.6,120.5,99,141.3,163.3c24.9-69.8,73.2-120.1,137.5-157l26.6,39.9c-64.8,33.9-115.1,80.1-133.8,153.5l-1.4,283
		l251.5-0.9l-92.5-242l-70.2,169l94.3-0.8l-22.9,43.4l-145.7,0.5l145.2-333.9L1055,750.8L1055,750.8z"/>
</g>
</svg>
