<?xml version="1.0" encoding="utf-8"?>
<!-- Generator: Adobe Illustrator 23.0.1, SVG Export Plug-In . SVG Version: 6.00 Build 0)  -->
<svg version="1.1" id="Layer_1" xmlns="http://www.w3.org/2000/svg" xmlns:xlink="http://www.w3.org/1999/xlink" x="0px" y="0px"
	 viewBox="0 0 1000 1000" style="enable-background:new 0 0 1000 1000;" xml:space="preserve">
<style type="text/css">
	.st0{fill:#00ABAF;}
</style>
<path class="st0" d="M1.1,790.4C6,784.9,11,779.5,16,773.9c10.7,8.4,22.3,14.4,36.3,13.2c3-0.3,6.3-1.1,8.9-2.6
	c6.2-3.5,6.4-11.9,0.3-15.6c-3.9-2.3-8.4-3.7-12.8-5.2c-8.1-2.7-16.3-4.8-24.3-7.8C13,751.7,6.5,743.2,5.7,730.8
	c-0.9-13.3,3.4-24.4,15.2-31.2c16.8-9.8,34.2-7.6,51.4-0.9c5.1,2,9.7,5.3,15.1,8.4c-4.6,6.7-8.7,12.7-12.9,18.9
	c-4.8-2.5-9.1-5.6-14-7c-6.5-1.8-13.3-2.9-20-3.2c-5.1-0.2-9.4,2.8-10.1,8.5c-0.7,5.5,2.5,8.8,7.3,10.4c6.8,2.4,13.8,4.3,20.6,6.5
	c4.6,1.5,9.2,2.9,13.6,4.9c12.1,5.5,18.7,14.6,18.5,28.3c-0.2,14.2-6.4,24.6-19.3,30.5c-13.9,6.3-28.1,5.4-42.4,1.5
	c-10.4-2.8-19.4-8.1-27.6-14.9C1.1,791.1,1.1,790.8,1.1,790.4z"/>
<path class="st0" d="M1.1,847.2c21.8,0.5,43.8-0.3,65.4,2c16,1.7,29.4,11,39.3,24.1c29.3,39.1,8.7,94.2-39.3,104.9
	c-6.6,1.5-13.6,2-20.4,2.2c-15,0.4-30,0.3-45,0.5C1.1,936.2,1.1,891.7,1.1,847.2z M16.4,966.8c2,0.2,3.8,0.5,5.6,0.4
	c11.1-0.1,22.2,0,33.3-0.6c24.8-1.3,44.5-19.6,48.3-44.4c3.9-25.2-9.3-48.9-32.2-58c-17.9-7.1-36.5-2.9-55-4.3
	C16.4,896,16.4,931.1,16.4,966.8z"/>
<path class="st0" d="M239.8,420.3c-3.6,0-6.2,0-8.9,0c-37.5,0-74.9,0-112.4,0c-3.6,0-7.3-0.3-10.6-1.3c-7.5-2.2-12.3-9-11.5-15.6
	c0.8-7.3,7.4-13.3,15.4-13.5c10.1-0.3,20.3-0.2,30.5-0.2c30,0,60-0.1,90,0.2c6,0.1,7.6-1.7,7.6-7.7c-0.2-65.9,0.4-131.8-0.4-197.7
	c-0.3-22.2,14.2-41.2,41.3-41c65.4,0.5,130.9,0.2,196.3,0.2c9,0,9,0,9-9.3c0-38.1,0-76.3,0-114.4c0-1.1,0-2.3,0-3.4
	c0.4-9,6.9-16.2,14.8-16.5c7.4-0.3,14.5,6.4,15.6,15.1c0.4,3.3,0.2,6.8,0.2,10.1c0,37.2,0,74.5,0,111.7c0,2,0.3,3.9,0.5,6.7
	c3.2,0,6.1,0,8.9,0c65.4,0,130.9-0.1,196.3,0c19.7,0,33.5,9.2,38.3,25.9c1.2,4,1.5,8.4,1.5,12.7c0.1,65.9,0.1,131.8,0.1,197.7
	c0,9.6-0.1,9.7,9.7,9.7c37.5,0,74.9,0,112.4,0c2.9,0,5.9,0,8.8,0.3c6.9,0.9,12.7,6.8,13.5,13.3c0.7,5.9-3.1,12.4-9.6,14.8
	c-3.9,1.4-8.3,2.1-12.5,2.1c-37.7,0.2-75.4,0.1-113.1,0.1c-2.7,0-5.3,0-8.6,0c-0.2,3.4-0.5,6-0.5,8.7c0,65.4,0,130.9,0,196.3
	c0,21.4-9.6,35.6-27.4,39.7c-3.9,0.9-8.1,0.9-12.1,0.9c-147.6,0-295.1-0.3-442.7,0.3c-25.5,0.1-41-18.1-40.7-41.4
	c0.9-65.2,0.3-130.4,0.3-195.6C239.8,426.5,239.8,424,239.8,420.3z M677.2,395.2c0.5-2.2,0.9-3.2,0.9-4.3c0-28,0-56-0.4-83.9
	c0-2.3-2.3-5.4-4.4-6.6c-55.6-32.3-111.3-64.3-166.9-96.5c-3.6-2.1-6.3-1.9-9.9,0.1c-55.2,32-110.5,63.9-165.8,95.7
	c-4.3,2.5-5.8,5.3-5.8,10.2c0.2,25.7,0.3,51.5,0,77.2c-0.1,6.6,2.1,9.3,8.4,11.2c77.2,24,154.2,48.4,231.3,72.7
	c1.8,0.6,3.4,1.4,6.1,2.4c-22,12.9-43,25.1-63.9,37.6c-4.1,2.5-7,2.1-10.9-0.1c-32.6-18.8-65.2-37.6-98.1-56
	c-6.7-3.7-10.8-7.5-9.3-15.5c0.8-4.4-1.7-6.2-5.8-7.5c-17.2-5.3-34.3-11-51.5-16.5c-1.6-0.5-3.4-0.7-5.4-1.2c-0.3,2-0.8,3.5-0.8,5
	c0,27.3-0.1,54.6,0.3,81.9c0,2.7,2.5,6.1,4.8,7.7c5.3,3.8,11.3,6.6,16.9,9.9c49.6,28.6,99.2,57.2,148.8,85.9c3.5,2,6.2,3.1,10.4,0.7
	c55.4-32.2,110.9-64.1,166.4-96c3.7-2.1,5.6-4.5,5.6-9c-0.2-26.9-0.2-53.7-0.1-80.6c0-4.3-1.5-6.3-5.7-7.7
	c-64.4-20.2-128.8-40.6-193.2-61c-15.8-5-31.5-10-48.5-15.5c21.9-12.6,42.7-24.2,63.1-36.5c6-3.6,10.2-2.9,15.8,0.4
	c32.6,19.4,65.2,38.5,98.1,57.4c5.2,3,7.6,6.2,7.1,12.2c-0.2,2.3,1.5,6.3,3.3,6.9C637.4,382.7,656.9,388.7,677.2,395.2z"/>
<path class="st0" d="M234.6,694.7c8.1,0,16.1-0.1,24,0c13,0.2,26.1-0.3,38.9,1.2c19.8,2.4,31,19,25.1,36.6
	c-2.1,6.1-7.2,11.2-11.1,16.9c-0.6-0.4,0,0.1,0.8,0.4c13.4,6.4,19,15.1,18.1,28.3c-1,13.8-7.9,22.6-22.1,26.5
	c-6.5,1.8-13.5,2.7-20.3,2.9c-16.3,0.4-32.7,0.1-49,0.2c-3.5,0-4.9-0.9-4.9-4.7c0.1-34.7,0.1-69.4,0.1-104.1
	C234.1,697.8,234.4,696.6,234.6,694.7z M258.7,785.2c12.4,0,24.2,0.6,36-0.2c7.4-0.5,10.6-4.9,10.7-11.1c0.1-6.4-3.3-11.4-10.7-11.9
	c-11.9-0.8-23.9-0.2-36-0.2C258.7,769.7,258.7,777.4,258.7,785.2z M258.7,740.4c6.9,0,13.6,0.2,20.2-0.1c4.2-0.1,8.6-0.4,12.6-1.5
	c5.2-1.4,7.9-5.4,7.7-10.9c-0.2-5.2-3-9.4-8.1-9.9c-10.7-1.1-21.6-1.2-32.4-1.7C258.7,725,258.7,732.4,258.7,740.4z"/>
<path class="st0" d="M669.6,694.8c7,0,13.5-0.3,20,0.2c1.9,0.1,4.2,2,5.5,3.7c15.4,20,30.6,40.1,45.9,60.1c1,1.3,2.1,2.4,3.9,4.5
	c0-23.3,0-45.5,0-68.1c8.3,0,16.2,0,24.4,0c0,37.3,0,74.4,0,112.4c-6.6,0-13.2,0.3-19.7-0.2c-1.5-0.1-3.1-2.4-4.3-4
	c-15.9-20.7-31.8-41.5-47.6-62.3c-0.9-1.1-1.9-2.2-3.7-4.4c0,24.3,0,47.3,0,70.7c-8.4,0-16.1,0-24.3,0
	C669.6,770,669.6,732.8,669.6,694.8z"/>
<path class="st0" d="M993.8,739.8c0,7.6,0,14.4,0,22c-17.6,0-35.1,0-52.8,0c0,8.2,0,15.6,0,23.7c20.1,0,40.2,0,60.7,0
	c0,7.6,0,14.6,0,22c-28.3,0-56.6,0-85.3,0c0-37.5,0-74.7,0-112.3c27.9,0,55.9,0,84.3,0c0,7,0,14.1,0,21.8c-19.8,0-39.6,0-59.6,0
	c0,7.7,0,14.9,0,22.9C958.5,739.8,976,739.8,993.8,739.8z"/>
<path class="st0" d="M183.8,695.1c8.6,0,16.5,0,24.3,0c0.3,0.5,0.7,0.8,0.7,1.1c-0.1,23.9,0.5,47.9-0.7,71.8
	c-1.2,24-18.1,39.8-42.2,41.2c-5.3,0.3-10.8,0.5-16.1-0.3c-23.8-3.5-37-16.8-38.8-42.7c-1.6-23.4-0.3-47-0.3-71c8,0,15.8,0,24.3,0
	c0.1,2.3,0.4,4.6,0.4,6.9c0,17.3,0,34.5,0,51.8c0,3,0.1,5.9,0.3,8.9c1.3,17.8,13.7,27,31.1,23c10.1-2.3,16.8-10.8,16.9-22.6
	c0.3-19.7,0.1-39.3,0.2-59C183.9,701.3,183.8,698.6,183.8,695.1z"/>
<path class="st0" d="M651.7,807.8c-8.5,0-16.1,0.2-23.6-0.2c-1.3-0.1-2.9-1.9-3.6-3.3c-2.7-6.1-5-12.4-7.8-18.4
	c-0.7-1.5-3.1-3.2-4.7-3.2c-13.5-0.3-27.1-0.3-40.6,0c-1.7,0-4.2,1.9-5,3.6c-2.8,5.8-4.9,12-7.6,17.9c-0.7,1.5-2.6,3.4-4,3.5
	c-7.2,0.4-14.4,0.2-22.5,0.2c1.8-4.4,3.2-8.1,4.7-11.8c13.9-32.5,27.8-65,41.6-97.6c1.4-3.2,2.9-4.7,6.5-4.5
	c6.1,0.4,13.4-1.6,17.9,1.2c4.2,2.6,5.3,10.1,7.6,15.6c13,30.5,26,61,39,91.5C650.1,803.6,650.7,805.1,651.7,807.8z M606.5,760.2
	c-5-12.2-9.7-23.7-14.8-36.3c-5.1,12.6-9.9,24.2-14.8,36.3C587,760.2,596.2,760.2,606.5,760.2z"/>
<path class="st0" d="M429.1,707.6c-4.4,6.4-8.6,12.4-11.7,17c-10.2-3.3-19.3-6.7-28.7-9c-3.3-0.8-7.6,0.1-10.7,1.7
	c-2.5,1.3-5.3,4.9-5.3,7.5c-0.1,2.9,2.1,7.1,4.6,8.5c4.9,2.8,10.7,4,16.1,5.9c7.2,2.5,14.6,4.4,21.5,7.4
	c11.8,5.2,17.8,14.6,17.7,27.7c-0.1,13.7-5.7,24.4-18.2,30c-19.3,8.7-38.4,5.9-56.8-3.2c-5.1-2.5-9.6-6.1-14.7-9.5
	c5.3-6.3,10-12,14.7-17.7c4.2,2.7,7.9,5.3,11.9,7.6c7.9,4.6,16.6,6.4,25.7,5.5c2.2-0.2,4.9-0.3,6.3-1.6c2.5-2.3,5.1-5.2,6.1-8.4
	c1.2-4-1.4-7.4-5.1-8.8c-6.5-2.5-13.3-4.6-19.9-6.8c-5.6-1.9-11.4-3.4-16.8-5.7c-11.5-4.9-17.7-13.7-18-26.3
	c-0.3-12.8,4.1-23.8,15.7-29.9c20.9-11.1,41.2-7.1,60.7,4.3C425.6,704.8,427.1,706.2,429.1,707.6z"/>
<path class="st0" d="M709.2,954.2c0-36.7,0-71.6,0-107.1c4.9,0,9.2,0,13.9,0c0,44.3,0,88.4,0,132.7c-6.4,1.4-11.3,0.9-15.9-5.1
	c-25.9-33.5-52.2-66.5-78.4-99.7c-1-1.3-2.1-2.4-4.2-4.8c0,37.5,0,73.5,0,109.9c-4.9,0-9.1,0-13.8,0c-0.1-1.8-0.3-3.5-0.3-5.3
	c0-39.9-0.1-79.8,0.1-119.7c0-2.8,1.2-7.8,2.1-7.9c4.8-0.4,10.2-2.3,14.2,3.1c8.6,11.4,17.6,22.5,26.4,33.7c17,21.6,34,43.1,51,64.7
	C705.4,950.1,706.8,951.5,709.2,954.2z"/>
<path class="st0" d="M960,925.8c7.1,9.4,13.7,18.2,20.4,27.1c6.6,8.8,13.2,17.7,20.7,27.5c-6.1,0-10.9,0.3-15.6-0.2
	c-1.6-0.2-3.4-2-4.6-3.5c-11.2-14.8-22.4-29.6-33.3-44.5c-2.2-3-4.6-4.2-8.3-4.1c-9.3,0.2-18.6,0.4-27.8,0c-5.5-0.3-6.5,1.9-6.4,6.7
	c0.2,12.8,0.1,25.6,0.1,38.4c0,7.3,0,7.3-7.2,7.3c-2,0-4,0-6.6,0c-0.1-2.2-0.3-4-0.3-5.8c0-40.6,0.1-81.3-0.1-121.9
	c0-4.8,1.2-6.4,6.2-6.3c20,0.5,40.1,0,60.1,1.1c15.3,0.9,28.8,7,35.6,21.9c9,19.4,3.6,45.5-24.9,54.2
	C965.5,924.3,963.3,924.9,960,925.8z M905.1,887.9c0,7,0.2,14.1-0.1,21.1c-0.2,4.7,1,6.6,6.2,6.4c12.2-0.4,24.5,0.1,36.7-0.2
	c4.9-0.1,10-0.9,14.7-2.5c9.1-2.9,16-8.6,18.6-18.3c4.8-18.1-7.3-33.4-27.6-34.2c-14.6-0.6-29.3-0.1-43.9-0.3
	c-3.4,0-4.6,1.2-4.6,4.5C905.2,872.3,905.1,880.1,905.1,887.9z"/>
<path class="st0" d="M895.1,710.7c-5.2,6-10.2,11.7-15.5,17.9c-10.4-8.8-21.5-14.8-35.5-11.9c-8,1.6-14.3,5.9-19.2,12.4
	c-10.4,13.8-9,35.9,3.1,48.2c13.2,13.6,30.2,12.5,51.8-2.9c5.4,5.2,10.7,10.2,16.1,15.3c-21.5,25.1-62.5,27.1-86.4,4.3
	c-23.6-22.5-23.5-62.8,0.4-85.4C832.6,686.9,875.5,687.8,895.1,710.7z"/>
<path class="st0" d="M570.1,862.2c-3,3.6-5.9,6.9-9,10.5c-8.4-6.9-17.3-11.9-27.8-13.9c-44.2-8.3-68.3,28.2-64.4,61.7
	c2.4,21.3,12.2,37.8,32.9,45.6c19.3,7.3,37.9,3.9,55.3-6.7c3.1-1.9,4.5-4.3,4.4-8.1c-0.3-9.4-0.1-18.9-0.1-29.2
	c-7.6,0-14.8,0-21.9,0c-5.2,0-10.4,0-15.6-0.1c-4.5-0.1-3.5-3.5-3.4-6.1c0.1-2.4-1.4-6.2,3.2-6.2c16.9,0,33.7,0.2,50.6,0.4
	c0.1,0,0.3,0.2,1.1,0.9c0,1.4,0,3.4,0,5.4c0,12.1-0.6,24.1,0.2,36.1c0.6,8-2.4,12.6-8.8,16.6c-20.6,12.8-42.4,17.2-65.9,10.7
	c-32.4-9-48.6-38.4-46.9-69.1c1.4-26.1,13-46.4,36.6-58.9C514.7,838.7,550.2,843.4,570.1,862.2z"/>
<path class="st0" d="M777,859.9c0,15.6,0,30.7,0,46.5c3.1,0,5.8,0,8.5,0c18.9,0,37.8,0,56.7,0c8,0,8,0,7.8,8.3
	c0,1.3-0.2,2.5-0.4,4.5c-24.1,0-48.1,0-72.9,0c0,7.1,0,13.5,0,20c0,7.6,0.3,15.2-0.1,22.8c-0.2,4.6,1.6,5.7,5.8,5.6
	c23.4-0.1,46.7-0.1,70.1-0.1c6.2,0,9.6,5.8,6.5,11.3c-0.5,0.9-2.4,1.5-3.7,1.5c-29.7,0.1-59.3,0-89,0.1c-4.7,0-4.3-2.9-4.3-5.9
	c0-26.9,0-53.8,0-80.7c0-13.9,0.1-27.8-0.1-41.7c-0.1-4.4,1.3-5.8,5.7-5.7c28.4,0.2,56.7,0.2,85.1,0c4.4,0,6.1,1.3,5.7,5.7
	c-0.3,3.9,0.6,7.6-5.7,7.5c-23-0.3-46-0.1-69-0.1C781.7,859.6,779.5,859.8,777,859.9z"/>
<path class="st0" d="M248.9,967.8c0,4.5,0,8.1,0,12.3c-2.3,0.1-4.2,0.3-6.2,0.3c-28.4,0-56.8-0.1-85.1,0.1c-4.3,0-5.8-1-5.8-5.6
	c0.2-41,0.1-82,0.1-123c0-3.1,0.1-5.4,4.3-5.4c29.7,0.1,59.4,0.1,89,0.1c0.7,0,1.4,0.3,2,0.4c0.3,0.5,0.7,0.7,0.7,1
	c1.3,11.5,1.3,11.5-9.9,11.5c-21.3,0-42.7,0-64,0.1c-2.2,0-4.4,0-7.5,0c0,6.1,0,11.6,0,17.1c0,8.2,0.2,16.3-0.1,24.5
	c-0.1,4.2,1.3,5.4,5.4,5.4c20.2-0.2,40.4,0.1,60.7-0.1c4.8,0,7.3,0.4,7.4,6.3c0.1,6.3-2.7,6.7-7.7,6.7c-20-0.2-40.1,0.1-60.1-0.1
	c-4.4,0-5.8,1.3-5.7,5.7c0.3,12.2,0.3,24.5,0,36.7c-0.1,4.7,1.5,6,6,6c23.4-0.2,46.7-0.1,70.1-0.1
	C244.5,967.5,246.5,967.7,248.9,967.8z"/>
<path class="st0" d="M367.2,861.5c-2.4,3.2-4.8,6.5-7.6,10.2c-2.7-1.8-5.3-3.5-7.9-5.1c-13.4-8.3-27.8-11.4-43.1-7.2
	c-13.3,3.7-19.8,15.2-16.2,27.2c2,6.6,6.9,10.7,12.9,12.8c8.7,3.1,17.7,5.3,26.5,8c6.4,2,12.8,3.7,18.9,6.3
	c14.4,6.2,22.1,16.9,20.9,33.1c-1.1,15.4-9.2,26-23.2,30.9c-25.1,8.8-48.5,3.8-69.9-11.5c-2.1-1.5-4-3.2-6.4-5.2
	c1.6-2,2.9-3.7,4.3-5.3c1.3-1.6,2.6-3.1,4.2-4.9c4.4,3.1,8.4,6.3,12.7,9c14.2,8.7,29.5,11.8,45.8,7.6c13.9-3.6,21-15.7,17.4-28.3
	c-1.7-6-5.8-10.2-11.3-12.2c-9.7-3.5-19.8-5.9-29.6-9.1c-6.7-2.1-13.5-4.1-19.8-7c-25.3-11.5-23.3-45.3-3-58.3
	c12.3-7.9,25.8-8.8,39.6-7.3c11.4,1.3,21.8,5.5,31.2,12.3c0.9,0.7,1.8,1.3,2.6,2.1C366.6,860.3,366.8,860.8,367.2,861.5z"/>
<path class="st0" d="M503.1,807.4c-8.5,0-16.4,0-24.9,0c0-29.7,0-59.2,0-89.3c-11.7,0-22.7,0-34.2,0c0-7.9,0-15.2,0-22.9
	c30.9,0,61.7,0,93,0c0,7.4,0,14.7,0,22.6c-11.2,0-22.2,0-33.8,0C503.1,747.9,503.1,777.5,503.1,807.4z"/>
<path class="st0" d="M419.2,979.7c-0.9,0.3-1.2,0.6-1.6,0.6c-15.3,0.2-12.3,1.9-12.3-11.3c-0.2-37.8,0-75.6,0-113.3
	c0-9.3-0.1-9.3,9.4-9c1.4,0,2.9,0.3,4.5,0.5C419.2,891.5,419.2,935.5,419.2,979.7z"/>
</svg>
