<?xml version="1.0" encoding="utf-8"?>
<!-- Generator: Adobe Illustrator 23.0.1, SVG Export Plug-In . SVG Version: 6.00 Build 0)  -->
<svg version="1.1" id="Layer_1" xmlns="http://www.w3.org/2000/svg" xmlns:xlink="http://www.w3.org/1999/xlink" x="0px" y="0px"
	 viewBox="0 0 1000 1000" style="enable-background:new 0 0 1000 1000;" xml:space="preserve">
<style type="text/css">
	.st0{fill:#00ABAF;}
</style>
<path class="st0" d="M221,405.7c0.1-149.3,120.7-269.5,270-269.3c148.6,0.2,268.8,121,268.5,269.9
	c-0.3,149.4-120.8,269.6-269.9,269.4C341.1,675.5,220.9,554.7,221,405.7z M310,416.3c-0.5,2.5-1,3.7-1,5
	c-0.1,28.6-0.3,57.3,0.1,85.9c0,2.8,3.2,6.5,5.9,8.1c56.1,32.7,112.4,65,168.5,97.7c5.6,3.3,9.6,3.1,15.1-0.1
	c56.1-32.7,112.4-65.1,168.7-97.5c4.6-2.6,6-5.8,6-10.8c-0.2-25.7-0.5-51.4,0.1-77.1c0.2-9-3.3-12.2-11.3-14.7
	c-78.4-24.5-156.7-49.5-235-74.3c-2.6-0.8-5.2-1.8-9.4-3.3c23.3-13.4,44.9-25.6,66.3-38.3c5-3,8.7-2.9,13.7,0.1
	c34.6,20.6,69.4,40.9,104.2,61.2c4.2,2.4,6.6,5.1,5.8,10c-1.1,6.7,2.3,9.2,8.3,10.9c16,4.7,31.9,10,47.8,15c2.6,0.8,5.4,1.4,8.3,2.1
	c0.5-2,0.9-3,0.9-4.1c0-28.6,0.2-57.3-0.3-85.9c-0.1-2.9-3.5-6.9-6.4-8.6c-56.3-32.9-112.8-65.4-169.1-98.2
	c-4.5-2.6-7.8-2.7-12.3-0.1c-56.6,32.9-113.2,65.7-170,98.4c-4.5,2.6-6.2,5.6-6.2,10.7c0.2,25.7,0.6,51.4-0.2,77.1
	c-0.3,9.2,2.8,12.7,11.3,15.4c67.8,21,135.5,42.5,203.2,63.9c12.8,4,25.5,8.1,39.4,12.6c-2.3,1.7-3.5,2.7-4.9,3.4
	c-20.3,11.9-40.8,23.7-61,35.9c-4.2,2.5-7.2,2.6-11.5,0.1c-34.4-19.9-68.9-39.7-103.5-59.2c-5.5-3.1-8.2-6.4-7.8-13
	c0.2-2.9-1.9-8-4.1-8.7C350.4,429.1,330.7,423,310,416.3z"/>
<path class="st0" d="M884.7,610.6c0,38.5-31.4,69.8-69.9,69.6c-38-0.2-69.2-31.6-69.2-69.6c0-38.4,31.6-69.7,70.1-69.5
	C853.7,541.2,884.7,572.4,884.7,610.6z"/>
<path class="st0" d="M308.4,763.4c1.6,0.9,2.8,1.7,4.1,2.3c11.7,5.8,16.8,15.3,15.8,28.3c-1,12.9-8.1,20.8-19.8,25.1
	c-2.6,0.9-5.2,2-7.9,2.1c-22.4,0.8-44.9,1.4-67.8,2.1c0-38.5,0-75.6,0-113.2c2.1-0.2,3.9-0.5,5.7-0.5c15.8,0,31.6-0.2,47.4,0.2
	c5.8,0.2,11.9,1,17.3,3c21.8,7.9,26,33.7,8,48.5C310.3,761.7,309.6,762.4,308.4,763.4z M256.7,800.3c12.5,0,23.9,0.4,35.2-0.2
	c7.6-0.4,11.7-5.1,11.9-11.6c0.1-6.5-4.2-11.5-12.1-12c-11.3-0.6-22.7-0.2-34.3-0.2c-0.2,1.4-0.6,2.6-0.6,3.8
	C256.6,786.7,256.7,793.2,256.7,800.3z M272.7,731.1c0,0.1,0,0.2,0,0.3c-3.8,0-7.6,0.1-11.4,0c-3.1-0.1-4.8,0.8-4.7,4.2
	c0.2,5.3-0.1,10.5,0.3,15.8c0.1,1.3,1.9,3.7,2.9,3.7c9.4,0,18.9,0,28.3-1c5.8-0.6,9.2-4.8,9.3-11c0.1-5.8-3.6-9.9-10.2-10.9
	C282.4,731.4,277.6,731.4,272.7,731.1z"/>
<path class="st0" d="M766.8,709.5c0,38,0,75.2,0,113.1c-6.3,0-12.4,0.4-18.3-0.2c-2-0.2-4.3-2.3-5.7-4.2
	c-15.3-19.9-30.4-39.8-45.6-59.8c-1.4-1.8-2.8-3.6-5.5-7c0,24.7,0,47.5,0,70.7c-8.5,0-16.2,0-24.3,0c0-37.3,0-74.5,0-112.6
	c7,0,13.9-0.3,20.7,0.2c1.9,0.2,4,2.7,5.4,4.6c15.2,19.9,30.4,39.9,45.5,59.8c0.7,1,1.6,1.8,3.7,4.1c0-4.8,0-8.1,0-11.3
	c0-17.3,0.1-34.6-0.1-51.8c-0.1-4.4,1.3-6,5.7-5.8C754.3,709.7,760.4,709.5,766.8,709.5z"/>
<path class="st0" d="M990.9,754.6c0,7.8,0,14.5,0,22c-17.5,0-34.9,0-52.6,0c0,8.1,0,15.4,0,23.6c20,0,40,0,60.5,0
	c0,7.7,0,14.6,0,21.9c-28.4,0-56.5,0-85,0c0-37.4,0-74.5,0-112.3c1.9-0.1,3.7-0.4,5.5-0.4c24.4,0,48.9,0.1,73.3-0.2
	c4.8,0,6,1.5,6,6.1c-0.2,16.4-0.1,16.4-16.6,16.4c-14.3,0-28.6,0-43.5,0c0,7.6,0,14.8,0,22.7C955.8,754.6,973,754.6,990.9,754.6z"/>
<path class="st0" d="M649.4,822.6c-8.5,0-15.9,0.2-23.2-0.2c-1.5-0.1-3.4-2.1-4.2-3.7c-2.6-5.7-4.6-11.8-7.4-17.5
	c-0.9-1.8-3.6-3.7-5.5-3.7c-13.3-0.4-26.5-0.4-39.8-0.1c-1.8,0-4.4,2.1-5.3,3.9c-2.8,5.7-4.7,11.7-7.4,17.4
	c-0.7,1.6-2.8,3.5-4.3,3.6c-7.1,0.4-14.2,0.2-22.4,0.2c2.6-6.1,4.8-11.5,7-16.8c12.9-30.4,25.9-60.8,38.7-91.3
	c1.7-4,3.5-5.8,8.2-5.8c17,0.1,17-0.1,23.7,15.6c12.7,29.6,25.3,59.3,37.9,88.9C646.7,815.8,647.8,818.5,649.4,822.6z M604.2,774.9
	c-5-12-9.6-23.2-14.9-35.9c-5.2,12.8-9.8,24-14.6,35.9C584.8,774.9,593.9,774.9,604.2,774.9z"/>
<path class="st0" d="M109.2,709.8c8.3,0,15.9,0,24,0c0.2,1.9,0.5,3.7,0.5,5.5c0,17.7,0,35.4,0,53.1c0,3.8,0.1,7.6,0.6,11.3
	c2.3,17.7,18.1,26.6,34.5,19.7c7.7-3.3,11.8-9.6,12.7-17.6c0.8-7.7,0.8-15.5,0.9-23.3c0.1-16,0-32,0-49c7.7,0,15-0.2,22.2,0.2
	c0.9,0.1,2.5,3,2.5,4.7c0.1,20.4,0.4,40.9,0,61.3c-0.8,34.4-23.5,53.1-57.8,48.2c-24.3-3.4-38.8-17.8-39.9-42.2
	C108.3,758,109.2,734.2,109.2,709.8z"/>
<path class="st0" d="M341.4,805.7c4.6-5.5,9.3-11.1,14.2-16.9c3.2,2.2,5.9,4.1,8.7,5.9c9.2,5.9,19.2,8.5,30.1,7.1
	c5.5-0.7,10.3-2.8,11-9.4c0.8-6.4-3.5-9.2-8.5-10.9c-6.3-2.2-12.9-4-19.3-6c-3.8-1.2-7.7-2.3-11.4-3.8
	c-14.4-5.8-20.6-14.3-20.7-28.5c-0.1-14.8,6.4-26,20.2-31.3c21.9-8.4,42-3.4,61.4,10.3c-4.4,6.4-8.5,12.4-12.2,17.8
	c-8.6-3.3-16.4-7-24.5-9.2c-4.2-1.1-9.4-0.6-13.5,1c-2.8,1.1-5.9,5.2-6.2,8.2c-0.3,2.7,2.4,6.9,5,8.4c4.4,2.6,9.8,3.7,14.7,5.4
	c7.7,2.7,15.7,4.9,23.1,8.2c11,4.9,16.7,13.8,16.8,26c0.1,13.2-4.7,23.9-16.6,30.5C393.5,829.9,357.8,823.6,341.4,805.7z"/>
<path class="st0" d="M0,805.7c4.6-5.5,9.3-11.1,14.2-16.9c3.4,2.3,6.5,4.5,9.6,6.4c9.1,5.6,19,7.9,29.7,6.4
	c5.3-0.8,9.9-2.8,10.6-9.1c0.7-5.9-2.9-9.2-7.8-10.8c-9-3.1-18.1-5.5-27.1-8.4c-20.6-6.7-28.9-20.9-23.6-40.7
	c3-11.2,10.5-18.3,21.1-21.8c21.3-6.9,40.6-2,59.1,11.2c-4.4,6.4-8.4,12.4-12.6,18.5c-5.6-2.8-10.6-6.3-16.2-7.7
	c-6.3-1.7-13.1-2.1-19.7-2c-4.5,0.1-7.6,3.4-8.2,8.3c-0.6,5,2.1,8.1,6.3,9.8c4.7,1.9,9.5,3.2,14.3,4.9c7.4,2.5,14.9,4.6,22,7.7
	c12,5.3,17.6,15,17.4,28.2c-0.2,13.2-5.9,23.2-17.6,29.2C50.9,829.7,16.6,823.3,0,805.7z"/>
<path class="st0" d="M863.1,941.2c13.4,18,26.5,35.4,40.3,53.9c-5.8,0-10.4,0.4-14.8-0.2c-2.1-0.3-4.4-2.3-5.8-4.1
	c-10.7-14.1-21.3-28.2-31.7-42.6c-2.6-3.6-5.4-5.3-9.9-5.1c-9,0.3-18.1,0.3-27.2,0c-4.1-0.1-5.5,1.4-5.4,5.5
	c0.2,15.1,0.1,30.3,0.1,45.9c-4.8,0-9.1,0-14,0c0-43.8,0-87.7,0-132.3c2.4,0,4.5,0,6.5,0c16.4,0,32.9-0.4,49.3,0.2
	c7.9,0.3,16,1.5,23.5,3.8c15.7,5,24.6,17.8,25,34.3c0.4,16.9-7.9,29.9-23.3,36.2C871.8,938.4,867.8,939.6,863.1,941.2z M808.6,930.7
	c19.2-1.6,37.9,2.5,56.3-2.6c9.4-2.6,16.3-8.7,18.8-18.7c4.2-16.7-5.6-31.1-23.9-32.9c-15.6-1.5-31.5-0.9-47.3-1
	c-1.3,0-3.7,2.3-3.7,3.5C808.5,895.8,808.6,912.6,808.6,930.7z"/>
<path class="st0" d="M892.2,725.6c-4.9,5.6-9.8,11.3-15.3,17.6c-10.5-9-21.9-14.9-35.8-11.9c-7.6,1.7-14,5.8-18.7,12.2
	c-10.6,14.4-9.1,36.3,3.3,48.9c12.6,12.8,29.3,11.8,51.5-3.2c5.2,4.9,10.3,9.8,15.4,14.7c-9.8,16-37.2,24.6-60.1,18.9
	c-25.1-6.3-42.1-27.7-43.3-54.3c-1.1-25.7,13.9-48.7,37.5-57.3C849.7,702.8,879.9,709.3,892.2,725.6z"/>
<path class="st0" d="M417.9,887.8c0,35.4,0,70.9,0,106.8c-4.8,0-8.9,0-13.7,0c-0.1-2.4-0.4-4.8-0.4-7.2c0-39-0.1-78,0.1-116.9
	c0-2.6,1.1-7.5,1.9-7.5c4.7-0.4,10-2.6,14,2.5c9.2,11.8,18.5,23.5,27.7,35.3c16.1,20.5,32.2,41.1,48.4,61.7c1.4,1.7,2.9,3.4,5.5,6.5
	c0.2-4.3,0.4-6.7,0.4-9.1c0-30.5,0.1-61.1,0-91.6c0-4.4,1.3-6.3,5.7-5.8c3.6,0.4,8.3-1.6,8.3,5.2c-0.1,41.5-0.1,83-0.1,124.5
	c0,0.8-0.3,1.6-0.4,2.5c-6.8,1.9-11.6,0.3-16.2-5.7c-24.3-31.6-49-62.7-73.7-94c-2-2.6-4.1-5-6.2-7.6
	C418.9,887.4,418.4,887.6,417.9,887.8z"/>
<path class="st0" d="M670.6,994.7c0-44,0-87.7,0-132.3c2.9,0,5.4,0,7.8,0c25.7,0,51.4,0,77.1-0.1c11.4,0,11.6,0.3,9.6,12.7
	c-2.3,0-4.7,0-7.2,0c-22.1,0-44.3,0.2-66.4-0.1c-5.5-0.1-7.4,1.6-7.2,7.2c0.4,10.7,0.4,21.5-0.1,32.2c-0.3,6,2.1,7.5,7.7,7.4
	c19-0.3,37.9-0.1,56.9-0.1c2.5,0,5,0,8,0c0,4.5,0,8.3,0,12.9c-14.1,0-27.8,0-41.4,0c-7.8,0-15.6,0.3-23.4-0.2
	c-6.3-0.4-7.9,2.1-7.7,8c0.4,11.2,0.4,22.3,0,33.5c-0.1,5.1,1.8,6.5,6.6,6.5c21.9-0.2,43.8-0.1,65.8-0.1c11.3,0,11.5,0.3,9.2,12.4
	C734.5,994.7,702.8,994.7,670.6,994.7z"/>
<path class="st0" d="M327.7,994.4c-0.6,0.3-0.8,0.4-1,0.4c-13.2,1.2-13.2,1.2-18.5-10.8c-3-6.7-5.7-13.6-9.1-20.1
	c-1-1.9-3.9-3.9-6-3.9c-21.3-0.3-42.5-0.1-63.8-0.3c-3.9,0-5.7,1.6-7,4.8c-2.9,7-6.1,13.9-9.2,20.8c-5.1,11.3-5.1,11.3-18.6,9.2
	c4.3-9.7,8.6-19.3,12.9-28.8c14.9-33,29.9-65.9,44.6-99c1.6-3.7,3.3-6,7.8-5.4c4.2,0.5,8.2-0.8,10.7,4.9
	c18.4,41.4,37.1,82.5,55.8,123.8C326.9,991.3,327.3,992.9,327.7,994.4z M230.3,946.2c21,0,40.8,0,61.4,0
	c-10.2-22.9-20-44.8-30.6-68.5C250.3,901.6,240.5,923.5,230.3,946.2z"/>
<path class="st0" d="M109.3,994.1c-1.3,0.6-1.6,0.8-2,0.9c-12.2,1.2-12.2,1.2-12.2-10.9c0-38.1,0.1-76.2-0.1-114.3
	c0-5.7,1.4-7.7,7.4-7.5c13.7,0.4,27.4,0,41.1,0.2c5.9,0.1,11.8,0.5,17.5,1.7c19.5,4.1,32.1,18.2,33.1,36.3
	c1.2,21.2-8.7,37-28.3,43.4c-7.7,2.5-16,3.4-24.1,4c-8.8,0.7-17.7,0.3-26.5,0c-4.3-0.1-6,1.3-5.9,5.8c0.3,10.9,0.1,21.9,0.1,32.8
	C109.3,989,109.3,991.5,109.3,994.1z M131.4,934.8c0,0,0-0.1,0-0.1c5.7,0,11.4,0.3,17-0.1c18.2-1.3,30.6-12.9,31.2-28.8
	c0.6-16.6-9.9-27.9-29.3-29.8c-12.1-1.2-24.4-0.7-36.6-0.5c-1.5,0-4.3,2.8-4.3,4.3c-0.3,16.8-0.2,33.7-0.2,50.5
	c0,3.2,1.2,4.5,4.5,4.5C119.6,934.7,125.5,934.8,131.4,934.8z"/>
<path class="st0" d="M475.9,822.1c0-12.3,0-24.3,0-36.2c0-15.8-0.1-31.6,0.1-47.4c0.1-4.6-1.1-6.3-6-6.1c-9,0.4-18.1,0.1-27.8,0.1
	c0-7.6,0-14.8,0-22.6c30.6,0,61.2,0,92.4,0c0,7.3,0,14.5,0,22.5c-9.2,0-18.2,0.3-27.2-0.1c-5.3-0.2-6.8,1.5-6.7,6.7
	c0.3,24.4,0.2,48.8,0.2,73.3c0,3.1,0,6.2,0,9.9C492.2,822.1,484.4,822.1,475.9,822.1z"/>
<path class="st0" d="M533.7,44.5c0.1,24.1-19.1,43.4-43.4,43.6c-23.4,0.1-43.4-19.4-43.7-42.7c-0.3-24.6,19-44.5,43.2-44.8
	C514.3,0.4,533.5,19.6,533.7,44.5z"/>
<path class="st0" d="M600.2,994.8c-5.1,0-9.2,0-13.9,0c-0.2-2.9-0.5-5.6-0.5-8.3c0-34.5-0.2-69.1,0.1-103.6c0-6.1-1.8-8-7.9-7.8
	c-10.9,0.4-21.9-0.1-32.8,0.1c-5.2,0.1-4.2-3.5-4.3-6.5c-0.1-3.1-0.9-6.5,4.3-6.5c32.4,0.1,64.9,0.1,97.3,0.2c0.6,0,1.2,0.3,2.2,0.6
	c0,3.6,0,7.3,0,12.2c-6.2,0-12.4,0-18.6,0c-6.3,0-12.7,0.3-18.9-0.2c-5.6-0.4-7.2,1.7-7.2,7.2c0.2,34.7,0.1,69.5,0.1,104.2
	C600.2,989.1,600.2,991.6,600.2,994.8z"/>
<path class="st0" d="M240.2,610.7c-0.1,16.7-13.7,30.3-30.4,30.3c-16.7,0-30.5-13.6-30.6-30.2c-0.1-17,13.9-30.8,31-30.6
	C227,580.4,240.3,593.8,240.2,610.7z"/>
<path class="st0" d="M354,863.4c0.4-0.3,0.5-0.6,0.7-0.6c12.3-2,12.9-1.5,12.9,10.7c0,37.5,0,75,0,112.5c0,2.7,0,5.4,0,8.6
	c-4.8,0-8.9,0-13.6,0C354,950.9,354,907.1,354,863.4z"/>
</svg>
