<?xml version="1.0" encoding="utf-8"?>
<!-- Generator: Adobe Illustrator 23.0.1, SVG Export Plug-In . SVG Version: 6.00 Build 0)  -->
<svg version="1.1" id="Layer_1" xmlns="http://www.w3.org/2000/svg" xmlns:xlink="http://www.w3.org/1999/xlink" x="0px" y="0px"
	 viewBox="0 0 500 500" style="enable-background:new 0 0 500 500;" xml:space="preserve">
<style type="text/css">
	.st0{fill:#00ABAF;}
</style>
<g id="XMLID_1_">
	<path id="XMLID_6_" class="st0" d="M98.8,367.1l-0.8-2.5c-0.4-0.8-0.9-3.2,2.4-3.2h4.2h7c1.9,0,2.1,1.8,2.5,2.5l18.6,53.6
		c0,0,1.4,4.7,2.7,4.7c1.3,0,2.8-4.7,2.8-4.7l18.2-53.6c0.4-0.8,0.6-2.5,3.2-2.5H170c2.9,0,2.8,1.8,2.5,2.5l-1,2.8l-31.9,92.3
		c-0.6,3-8.4,2.9-8.8,0L98.8,367.1z"/>
	<path id="XMLID_7_" class="st0" d="M360.4,461.6l-32.9-97.9c-0.4-0.8-0.4-2.5,2.5-2.5h12.3c0.8,0,2,0.4,2.5,2.5
		c0,0,21.1,63.9,21.8,65.9c0.8,2.3,1.5,4.7,2.5,4.8c0.8,0.1,1.8-1.8,2.5-3.7c0.9-2.7,25.8-66.6,25.8-66.6c0.3-0.8,0.6-1.4,0.8-1.9
		c0.3-0.4,0.8-0.6,1.5-0.6h7.7h4.7c3,0,2.8,1.8,2.5,2.5l-44.3,114l-11,26.7c-0.4,0.8-0.6,1.4-1,1.8c-0.1,0.5-0.6,0.8-1.4,0.8h-11.1
		c-0.8,0-1.5-0.3-2.3-0.8c-0.5-0.4-0.5-0.9-0.3-1.8L360.4,461.6z"/>
	<path id="XMLID_8_" class="st0" d="M167,419.1c0-2.4,0.8-4.3,2.4-6.1c1.8-1.8,3.8-2.7,6.3-2.7c2.4,0,4.3,0.9,6.1,2.7
		c1.8,1.8,2.7,3.8,2.7,6.1c0,2.5-0.9,4.6-2.7,6.3c-1.8,1.5-3.8,2.4-6.1,2.4c-2.5,0-4.4-0.8-6.2-2.5S167,421.7,167,419.1"/>
	<path id="XMLID_9_" class="st0" d="M225.8,378c-2.1,0.8-3.8,2.3-5.6,3.5c-0.5,0.3-1,0.8-1.4,1.1l-1.1,1.1c-1.4,1.9-2.7,3.8-3.4,5.9
		c-1.1,2.7-1.8,5.6-1.8,8.7v59.8c0,1.8-0.8,2.5-2.5,2.5h-10c-1.8,0-2.5-0.8-2.5-2.5v-59.5c0-2.4,0.1-4.6,0.5-7
		c0.5-2.7,1.3-5.2,2.5-7.5c2-4.6,4.6-8.7,7.9-11.9c3.3-3.3,7.2-5.9,11.7-7.9c2.5-1,4.9-1.8,7.5-2.3c1.4-0.4,3-0.5,4.4-0.8h2.8
		c20.1-0.4,29.6,12.1,32.2,14.4c1.1,1.1,1.3,3.3-0.6,4.1l-9,2.4c-2.5,0.9-4.1,0.5-5.9-1.1C251,380.5,239.5,372.3,225.8,378"/>
	<path id="XMLID_12_" class="st0" d="M309.9,445.8h-26.3c-4.2-0.1-14.8-2.7-14.8-14.8c0-4.3,1.9-8.5,4.3-10.8
		c4.9-4.3,10.5-4.1,10.5-4.1h23.8c1.3,0,2.1,0.6,2.5,2L309.9,445.8L309.9,445.8z M321.8,384.1c-2-4.6-4.6-8.5-8-11.8
		c-3.3-3.3-15.3-13.2-40.2-9.2c-2.5,0.9-2.1,2.5,0.3,4.8c1,0.9,5.2,5.6,6.6,6.7c2.8,2.3,4.3,2,5.4,1.9c22-1.1,24,19,24,22v0.8
		c-0.4,1.1-1.1,1.8-2.5,1.8h-23.8c-3.9,0-7.7,0.8-11.4,2.4c-3.7,1.5-6.8,3.7-9.6,6.3s-4.8,5.8-6.5,9.5c-1.5,3.7-2.4,7.5-2.4,11.7
		c0,3.9,0.8,7.7,2.4,11.4c1.5,3.7,3.7,6.8,6.5,9.6c2.8,2.8,5.9,4.8,9.6,6.5c3.7,1.5,7.5,2.4,11.4,2.4h28.1h0.8h10
		c1.8,0,2.5-0.8,2.5-2.5v-59.5C324.8,393.5,323.8,388.6,321.8,384.1"/>
	<path id="XMLID_17_" class="st0" d="M259.6,44.6c23.6,0,43.1-6,43.1-13.2c0.3-7.2-18.8-13.2-42.4-13.2s-43.1,6-43.1,13.2
		C217,38.3,236,44.6,259.6,44.6 M256.1,302.6c-82.7,0-149.7-67-149.7-149.7c0-48.4,23-91.1,58.5-118.6
		c-59.7,67.5,7.2,213,45.7,216.8c48.1,3,66.3-148.7,122.8-168.2c42.4-15.9,74.4,47.5,55,118.9C368.7,262.8,318.5,301.4,256.1,302.6
		 M187.1,29.3C198.4,16.4,217.6,6.7,243.5,4c4.2-0.3,8.3-0.6,12.6-0.6c42.4,0,80.3,17.6,107.5,45.7c-3.9-1.2-9.3-3-19.4-3
		c-82.7,0-110.8,163.7-135.7,163C192.1,209.7,136,86.6,187.1,29.3 M256.1-7.4c-92.9,0-167.9,75.3-167.9,167.9
		s75.3,167.9,167.9,167.9S424,253,424,160.4C423.9,67.8,348.9-7.4,256.1-7.4"/>
</g>
</svg>
