<?xml version="1.0" encoding="utf-8"?>
<!-- Generator: Adobe Illustrator 23.0.1, SVG Export Plug-In . SVG Version: 6.00 Build 0)  -->
<svg version="1.1" id="Layer_1" xmlns="http://www.w3.org/2000/svg" xmlns:xlink="http://www.w3.org/1999/xlink" x="0px" y="0px"
	 viewBox="0 0 1000 1000" style="enable-background:new 0 0 1000 1000;" xml:space="preserve">
<style type="text/css">
	.st0{fill:#00ABAF;}
</style>
<path class="st0" d="M595.6,25.1c3.6,1.2,7.3,2.4,10.9,3.8c14.8,5.7,26.5,15.5,36.2,27.9c14.3,18.1,25.5,37.8,29.4,60.9
	c0.7,4.4,0.9,9,0.4,13.4c-0.9,8.5-4.9,15.6-13.7,17.9c-12.2,3.1-24.6,5.7-37.1,7.6c-16.4,2.6-32.9,3.7-49.5,0.6
	c-28.6-5.3-49.1-26.1-52.3-53.9c-0.6-5.4,0.4-11.3,1.9-16.7c7.5-26.3,22.7-46.3,48.2-57.5c3.3-1.5,6.8-2.7,10.2-4
	C585.4,25.1,590.5,25.1,595.6,25.1z"/>
<path class="st0" d="M501,448c16.9,1.1,33.7,1.3,50.3,3.4c47,6,91.5,20.6,134.3,40.9C749.4,522.5,806,562.8,853,615.8
	c36.1,40.7,65.1,86.2,86.3,136.3c3.2,7.5,4.8,16.1,5.4,24.3c0.6,8.2-4.6,12.3-12.8,10.9c-5.1-0.9-10.1-2.9-14.8-5.2
	c-24.3-11.3-45-28-65.9-44.2c-13.1-10.1-25.5-21.1-38.2-31.8c-1.6-1.4-2.9-3.2-4.4-4.7c-12.7-12.8-16.1-27.4-9.1-44.4
	c7.5-18.1-0.3-32.6-12-45.8c-12.7-14.2-29.1-22.7-46.1-30.3c-39.3-17.5-80.6-28.1-123.1-33.5c-35-4.5-70-9.1-105.2-11.4
	c-25.8-1.7-51.8,0.3-77.7,0.5c-4.5,0-7.6,1.6-10.4,5c-31.2,37.7-66.9,71-103.4,103.4c-33.4,29.6-71.5,52.8-111.3,73
	c-29,14.8-59.2,26.3-91.7,30.2c-10.5,1.3-21.4,1-32,0.4c-9.1-0.5-11.9-4-12.4-13.2c-0.8-15.2,4-29.3,12.3-41.4
	c11.8-17.4,24.1-34.6,38.2-50.2C171.5,592.1,228,553,289.4,520.8c33.5-17.6,66.7-35.8,102.8-47.7c16.1-5.3,32.5-9.7,48.6-14.9
	c3.4-1.1,7-3.5,9.1-6.3c36.5-48.5,77-93.2,122.5-133.3c1.2-1,2.7-1.6,4.8-2.9c-12.4-8-23-15.1-33.9-21.9
	c-23.8-15-47.1-30.6-71.6-44.3c-12.6-7.1-26.8-11.6-40.7-15.9c-19.2-5.9-38.4-4.9-57.3,2.5c-25.9,10.1-50.1,22.8-70.2,42.3
	c-11.8,11.5-16.4,26.2-17.7,42.1c-0.2,2.3-0.3,4.7,0,7c1.8,11.8-3.6,20.2-13.2,25.9c-28.1,16.5-57.8,29-89.9,35.1
	c-3.7,0.7-9.1-0.2-11.7-2.6c-3.9-3.5-1.5-8.8,0.7-13c12.3-23.3,28.5-43.7,45.5-63.7c29.5-34.6,62.9-64.5,102.7-86.8
	c33.1-18.5,67.9-32.3,106-36.3c37.5-3.9,74.3-0.9,110.6,9.3c42.7,12,83.1,30.3,124.3,46.3c4.6,1.8,7.7,1.4,11.6-1.4
	c19.7-13.7,39.3-27.5,61.8-36.5c19.4-7.8,38.8-7.8,58.2-0.6c24.8,9.2,34.4,32.8,22.3,56.4c-4.4,8.6-10,16.9-16.5,24
	c-16.2,17.7-33.9,33.9-54.2,47c-37.4,24-76.3,28.9-117.4,10.5c-5.3-2.4-10.8-4.7-15.9-7.5c-3.7-2-6-1.5-9.1,1.4
	c-34.1,32-64.2,67.6-93.7,103.7c-2.2,2.7-4.4,5.5-6.6,8.2C501,447.3,501.1,447.7,501,448z M374.9,545.5c-0.3-0.7-0.6-1.3-0.8-2
	c-12.1,2.8-24.2,5.3-36.3,8.3C283,565.3,231.5,586.4,183.9,617c-27.5,17.7-48.5,40.9-59.6,72.1c-1.5,4.2-2.4,8.7-2.6,13.1
	c-0.3,6.6,3,11.3,9.4,12.2c5.8,0.8,12.1,0.8,17.8-0.4c28.5-6.3,53.1-21.2,77.2-36.7c47.2-30.3,89.4-66.5,127.1-108.2
	C360.3,561.1,367.7,553.3,374.9,545.5z M700.8,254.5c19.2,6.6,38.6,10.2,58.7,7.9c12.6-1.4,24.4-5.3,34.3-13.6
	c3.9-3.3,8.8-7.5,6.6-12.5c-1.5-3.4-7-6.7-11-7.1c-9.7-1-19.8-1.4-29.5-0.2C738,231.9,719.2,242.7,700.8,254.5z"/>
<path class="st0" d="M211.2,958.1c0-53.6,0-106.6,0-160c2.5-0.1,4.5-0.4,6.5-0.4c34.6,0.1,69.1,0.1,103.7,0.4
	c15.3,0.1,30.7,1.4,44.6,8.9c11.9,6.4,21.3,15.1,22.2,29.7c1,15.5-8,25-20.1,32.3c-2.1,1.3-4.4,2.3-7.1,3.7c6.7,3,13,5.2,18.7,8.6
	c24.3,13.8,26.6,42.7,5.1,60.8c-12.5,10.5-27.2,15.3-43,15.6c-42.4,0.8-84.9,0.8-127.3,1.1C213.4,958.5,212.6,958.2,211.2,958.1z
	 M257.2,929.3c24.6,0,48.5,0.5,72.3-0.1c13.3-0.4,22.2-8.4,22.6-18.3c0.4-9.7-7.1-18.3-20.7-19.4c-24.3-1.8-48.5-1.7-72.8-2.4
	c-0.4,0-0.7,0.5-1.3,1C257.2,903,257.2,916.1,257.2,929.3z M257.1,860.8c18.5,0,36.4,0.5,54.1-0.2c8-0.2,15.9-2,23.5-4.5
	c5.8-1.9,8.8-7.4,8.6-13.8c-0.2-6.5-3.8-10.9-9.5-13.3c-3.8-1.5-8-2.7-12-2.9c-20.3-0.6-40.8-0.7-61.1-1c-1.1,0-2.1,0.5-3.4,0.7
	C257.1,837.5,257.1,848.8,257.1,860.8z"/>
<path class="st0" d="M113.9,825.5c-33.2,0-66.2,0-100,0c0-9.3,0-18.2,0-27.5c54.3,0,108.5,0,163.7,0c0,8,0.4,15.8-0.2,23.5
	c-0.1,2-2.5,4.3-4.3,5.8c-36.5,32.5-73.2,64.7-110,97.1c-1.7,1.4-3.2,3-6.3,5.9c4.4,0,6.8,0,9.3,0c35.9,0,71.9,0,107.8,0
	c8.9,0,8.9,0,8.9,9.3c0,5.9,0,12,0,18.4c-61.1,0-121.5,0-182.9,0c0-9.5-0.2-18.9,0.2-28.3c0.1-1.8,2.6-3.7,4.3-5.1
	c34.1-30.1,68.2-60.2,102.2-90.2c2.7-2.4,5.4-4.9,8-7.3C114.5,826.7,114.3,826.1,113.9,825.5z"/>
<path class="st0" d="M519.9,910.7c6.9,5.8,14.4,11.2,20.7,17.7c8.9,9,17,18.9,27,30.1c-6.9,0-12.1-0.7-17,0.1
	c-15.9,2.6-27.2-3.7-36.6-16.3c-5.6-7.6-13.1-13.8-19.6-20.7c-8.4-8.8-19.5-8.7-30.4-8.3c-1.2,0-3.1,3.6-3.1,5.5
	c-0.2,10.7-0.1,21.3-0.1,32c0,2.3,0,4.5,0,7.3c-10.5,0-20.3,0-30.8,0c0-36.1,0-71.9,0-108.1c0.6-0.2,1.4-0.8,2.3-0.8
	c29.5,0.4,58.9,0.5,88.2,1.4c6.4,0.2,13.2,2.7,19.1,5.6c9.6,4.8,14.7,13.2,14.6,24.3c-0.1,10.8-5.7,18.5-15.1,23.1
	C532.8,906.7,525.9,908.6,519.9,910.7z M461.3,893.7c16.6,0,32.6,0.4,48.4-0.2c7.3-0.2,11.9-6.1,11.9-12.2c0-5.8-4.2-11.3-11.7-11.7
	c-16.1-0.7-32.2-0.2-48.7-0.2C461.3,877.4,461.3,885.6,461.3,893.7z"/>
<path class="st0" d="M728.1,922.3c6.3-0.5,12.4-0.7,18.3-1.5c7-1,12.7-1.1,15.8,7.5c1.3,3.6,5.7,6.9,9.5,8.6
	c12.8,5.6,26.4,5.7,39.1,0.2c4-1.7,8.3-6.7,9.2-10.8c1.3-6.1-5-8.4-10-9.5c-14.5-3.3-29.1-5.7-43.5-9.3c-7.1-1.8-14.3-4.5-20.4-8.4
	c-17.6-11.2-17.4-31.7,0.7-42.2c7-4,15.3-6.5,23.4-8c17.7-3.1,35.5-2.5,52.9,3.1c15,4.8,23.4,15.1,23.9,28.8
	c-9.4,0.5-18.8,1-28.2,1.2c-1.1,0-2.7-1.1-3.1-2c-4.6-12.7-15.7-13.4-26.4-13.6c-6.5,0-13.3,1.5-19.7,3.4c-2.4,0.7-5.5,4.4-5.5,6.8
	s3.1,6.2,5.5,6.8c11.2,3.1,22.5,5.2,33.8,8c9,2.1,18.1,4.2,26.9,7.1c13.8,4.8,21.4,14.6,21.5,26.9c0.2,13.9-7.7,23.2-19.6,27.7
	c-26.6,10.5-54,10.6-80.8,0.4C737.5,948.1,729.9,937,728.1,922.3z"/>
<path class="st0" d="M877.9,849.5c10.6,0,20.4,0,31,0c0,13.9,0,27.6,0,41.7c19.9,0,38.9,0,59,0c0-13.8,0-27.6,0-41.7
	c11.1,0,21,0,32,0c0,10.9,0,21.6,0,32.2c0,22.9-0.2,45.9,0.1,68.8c0.1,6.7-2.1,8.3-8.3,8c-7.6-0.5-15.2-0.1-23.5-0.1
	c0-15.9,0-31.4,0-47.3c-19.9,0-39,0-58.9,0c0,15.7,0,31.1,0,47c-10.8,0-20.9,0-31.4,0C877.9,921.9,877.9,886,877.9,849.5z"/>
<path class="st0" d="M673.3,849.1c3,0,5.2,0,7.5,0c7.4,0,14.7,0,22.6,0c0.2,2.3,0.7,4,0.7,5.8c0,21.3,0.1,42.7-0.2,64
	c-0.4,21.4-9.4,33.3-30.2,38.3c-19.9,4.8-40.2,4.8-59.9,0c-20.9-5.1-30.4-17.4-30.8-38.9c-0.4-22.7-0.1-45.4-0.1-68.6
	c10.5,0,20.4,0,31.3,0c0,18.9,0,37.7,0,56.4c0,4.2,0.6,8.3,0.2,12.5c-1.1,12.6,7.3,20.1,21,22c5.9,0.8,12.1,0.8,18.1,0.1
	c12.1-1.7,19.1-7.8,19-20.4c-0.4-21.8,0.4-43.5,0.6-65.4C673,853.3,673.2,851.8,673.3,849.1z"/>
<path class="st0" d="M966.6,753.1c0.2-9.4,7.5-16.3,17.1-16c9.3,0.2,16.3,7.6,16.1,17.1c-0.2,9.2-7.8,16.5-17.1,16.2
	C973.3,769.9,966.4,762.5,966.6,753.1z M983.2,767.3c7.7-0.1,13.6-6,13.7-13.7c0.1-7.5-6.1-13.8-13.6-13.9
	c-7.8-0.1-14.1,6.2-14,14.1C969.5,761.5,975.5,767.4,983.2,767.3z"/>
<path class="st0" d="M976.6,761.8c0-5.2,0-10.5,0-17.2c4.1,0.9,8.2,1.4,11.7,3c0.8,0.4-0.3,4.8-0.5,7.4c-0.5,0-1,0-1.5,0
	c1.1,2.1,2.3,4.2,3.4,6.3c-0.4,0.4-0.8,0.8-1.2,1.1c-2.6-2.4-5.2-4.8-8.3-7.6c-0.8,3.1-1.3,5.2-1.8,7.2
	C977.8,761.9,977.2,761.8,976.6,761.8z"/>
</svg>
