{"accessors" : [{"bufferView" : 0, "byteOffset" : 0, "componentType" : 5125, "count" : 2083578, "type" : "SCALAR", "max" : [352807], "min" : [0]}, {"bufferView" : 1, "byteOffset" : 0, "componentType" : 5126, "count" : 352808, "type" : "VEC3", "max" : [3.69782733917236, 3.75983023643494, 17.428108215332], "min" : [-3.72899723052979, -2.12517309188843, 10.4401512145996]}, {"bufferView" : 1, "byteOffset" : 12, "componentType" : 5126, "count" : 352808, "type" : "VEC3", "max" : [1.00000393390656, 1.00000441074371, 1.00000429153442], "min" : [-1.00000441074371, -1.00000357627869, -1.00000441074371]}, {"bufferView" : 1, "byteOffset" : 24, "componentType" : 5126, "count" : 352808, "type" : "VEC2", "max" : [0.992454171180725, -0.00754584232345223], "min" : [-67.264892578125, -222.6474609375]}, {"bufferView" : 0, "byteOffset" : 8334312, "componentType" : 5123, "count" : 26208, "type" : "SCALAR", "max" : [5220], "min" : [0]}, {"bufferView" : 2, "byteOffset" : 0, "componentType" : 5126, "count" : 5221, "type" : "VEC3", "max" : [1.45496678352356, -1.24665153026581, 14.7515277862549], "min" : [-2.02417945861816, -2.24646854400635, 12.1744909286499]}, {"bufferView" : 2, "byteOffset" : 12, "componentType" : 5126, "count" : 5221, "type" : "VEC3", "max" : [1.00000441074371, 1.00000441074371, 1.00000047683716], "min" : [-0.999997079372406, -1.00000441074371, -1.00000441074371]}, {"bufferView" : 2, "byteOffset" : 24, "componentType" : 5126, "count" : 5221, "type" : "VEC2", "max" : [0.966844081878662, -0.00121639540884644], "min" : [0.00121639540884644, -0.934313178062439]}, {"bufferView" : 0, "byteOffset" : 8386728, "componentType" : 5123, "count" : 38100, "type" : "SCALAR", "max" : [19008], "min" : [0]}, {"bufferView" : 3, "byteOffset" : 0, "componentType" : 5126, "count" : 19009, "type" : "VEC3", "max" : [1.32941460609436, -1.26180195808411, 14.7259759902954], "min" : [-1.67344927787781, -2.13680267333984, 12.2406587600708]}, {"bufferView" : 3, "byteOffset" : 12, "componentType" : 5126, "count" : 19009, "type" : "VEC3", "max" : [1.00000441074371, 1.00000441074371, 1.00000441074371], "min" : [-1.00000441074371, -1.00000441074371, -1.00000441074371]}, {"bufferView" : 3, "byteOffset" : 24, "componentType" : 5126, "count" : 19009, "type" : "VEC2", "max" : [0.998783707618713, -0.00121639540884644], "min" : [0.00121639540884644, -0.998687386512756]}, {"bufferView" : 0, "byteOffset" : 8462928, "componentType" : 5123, "count" : 31104, "type" : "SCALAR", "max" : [5185], "min" : [0]}, {"bufferView" : 4, "byteOffset" : 0, "componentType" : 5126, "count" : 5186, "type" : "VEC3", "max" : [1.30380535125732, -0.175671130418777, 18.2597923278809], "min" : [-1.30380535125732, -1.95086574554443, 15.5462608337402]}, {"bufferView" : 4, "byteOffset" : 12, "componentType" : 5126, "count" : 5186, "type" : "VEC3", "max" : [0.99995082616806, 0.99999076128006, 0.945478200912476], "min" : [-0.99995082616806, -0.999742209911346, -0.969497263431549]}, {"bufferView" : 0, "byteOffset" : 8525136, "componentType" : 5123, "count" : 300, "type" : "SCALAR", "max" : [51], "min" : [0]}, {"bufferView" : 5, "byteOffset" : 0, "componentType" : 5126, "count" : 52, "type" : "VEC3", "max" : [2.14214444160461, 3.45617985725403, 17.0965938568115], "min" : [-2.14214444160461, 1.83000099658966, 10.7548980712891]}, {"bufferView" : 5, "byteOffset" : 12, "componentType" : 5126, "count" : 52, "type" : "VEC3", "max" : [0.92558479309082, 1.00000441074371, 0.923884272575378], "min" : [-0.92558479309082, -0.995359063148499, -0.929682910442352]}, {"bufferView" : 5, "byteOffset" : 24, "componentType" : 5126, "count" : 52, "type" : "VEC2", "max" : [0, 0], "min" : [0, 0]}, {"bufferView" : 0, "byteOffset" : 8525736, "componentType" : 5125, "count" : 1662444, "type" : "SCALAR", "max" : [287819], "min" : [0]}, {"bufferView" : 6, "byteOffset" : 0, "componentType" : 5126, "count" : 287820, "type" : "VEC3", "max" : [4.54189538955688, 0.514514863491058, 10.8561038970947], "min" : [-4.54189538955688, -1.8881721496582, 7.58941841125488]}, {"bufferView" : 6, "byteOffset" : 12, "componentType" : 5126, "count" : 287820, "type" : "VEC3", "max" : [0.999999105930328, 0.999981224536896, 0.999984502792358], "min" : [-0.999999225139618, -0.99995493888855, -0.999973952770233]}, {"bufferView" : 6, "byteOffset" : 24, "componentType" : 5126, "count" : 287820, "type" : "VEC2", "max" : [0.987857460975647, -0.0121425297111273], "min" : [0.0121425297111273, -0.955950021743774]}, {"bufferView" : 0, "byteOffset" : 15175512, "componentType" : 5123, "count" : 33486, "type" : "SCALAR", "max" : [11626], "min" : [0]}, {"bufferView" : 7, "byteOffset" : 0, "componentType" : 5126, "count" : 11627, "type" : "VEC3", "max" : [2.01259207725525, 1.72227644920349, 18.4271297454834], "min" : [-2.01320052146912, -2.28897714614868, 10.1149635314941]}, {"bufferView" : 7, "byteOffset" : 12, "componentType" : 5126, "count" : 11627, "type" : "VEC3", "max" : [1.00000262260437, 0.999671936035156, 1.00000405311584], "min" : [-1.00000262260437, -0.999692559242249, -0.999995768070221]}, {"bufferView" : 7, "byteOffset" : 24, "componentType" : 5126, "count" : 11627, "type" : "VEC2", "max" : [0.922222912311554, -0.000466873694676906], "min" : [0.000466873694676906, -0.999533116817474]}, {"bufferView" : 0, "byteOffset" : 15242484, "componentType" : 5123, "count" : 27948, "type" : "SCALAR", "max" : [6762], "min" : [0]}, {"bufferView" : 8, "byteOffset" : 0, "componentType" : 5126, "count" : 6763, "type" : "VEC3", "max" : [1.94973564147949, 1.43195843696594, 18.6578674316406], "min" : [-1.94973564147949, -1.40617883205414, 15.7146129608154]}, {"bufferView" : 8, "byteOffset" : 12, "componentType" : 5126, "count" : 6763, "type" : "VEC3", "max" : [0.999979376792908, 0.999976336956024, 0.999440729618073], "min" : [-0.999980211257935, -0.998489677906036, -0.998858690261841]}, {"bufferView" : 8, "byteOffset" : 24, "componentType" : 5126, "count" : 6763, "type" : "VEC2", "max" : [0.846131980419159, -0.00383063638582826], "min" : [0.00109356618486345, -0.8766268491745]}, {"bufferView" : 0, "byteOffset" : 15298380, "componentType" : 5125, "count" : 761280, "type" : "SCALAR", "max" : [133280], "min" : [0]}, {"bufferView" : 9, "byteOffset" : 0, "componentType" : 5126, "count" : 133281, "type" : "VEC3", "max" : [2.63650274276733, 1.34013879299164, 11.7371854782104], "min" : [-3.0822274684906, -2.9476478099823, 6.00007009506226]}, {"bufferView" : 9, "byteOffset" : 12, "componentType" : 5126, "count" : 133281, "type" : "VEC3", "max" : [1.00000417232513, 0.999998807907104, 0.99994021654129], "min" : [-0.999980032444, -1.00000309944153, -0.999992609024048]}, {"bufferView" : 9, "byteOffset" : 24, "componentType" : 5126, "count" : 133281, "type" : "VEC2", "max" : [0.927759170532227, -0.00176155392546207], "min" : [0.654974520206451, -0.972097516059875]}, {"bufferView" : 0, "byteOffset" : 18343500, "componentType" : 5125, "count" : 217056, "type" : "SCALAR", "max" : [69936], "min" : [0]}, {"bufferView" : 10, "byteOffset" : 0, "componentType" : 5126, "count" : 69937, "type" : "VEC3", "max" : [0.604591488838196, -2.57911896705627, 13.0120553970337], "min" : [-1.03890013694763, -3.09137058258057, 11.5494527816772]}, {"bufferView" : 10, "byteOffset" : 12, "componentType" : 5126, "count" : 69937, "type" : "VEC3", "max" : [0.998781621456146, 0.99998676776886, 0.99982362985611], "min" : [-0.999966144561768, -1.00000143051147, -0.999916732311249]}, {"bufferView" : 10, "byteOffset" : 24, "componentType" : 5126, "count" : 69937, "type" : "VEC2", "max" : [0.982592165470123, -0.0407919213175774], "min" : [0.0136871580034494, -0.985580921173096]}, {"bufferView" : 0, "byteOffset" : 19211724, "componentType" : 5123, "count" : 121578, "type" : "SCALAR", "max" : [46991], "min" : [0]}, {"bufferView" : 11, "byteOffset" : 0, "componentType" : 5126, "count" : 46992, "type" : "VEC3", "max" : [2.96820688247681, 3.54601407051086, 16.4062004089355], "min" : [-2.88171792030334, -3.37338995933533, 8.44614410400391]}, {"bufferView" : 11, "byteOffset" : 12, "componentType" : 5126, "count" : 46992, "type" : "VEC3", "max" : [1.00000441074371, 1.00000441074371, 1.00000441074371], "min" : [-1.00000441074371, -1.00000441074371, -1.00000441074371]}, {"bufferView" : 11, "byteOffset" : 24, "componentType" : 5126, "count" : 46992, "type" : "VEC2", "max" : [0.998152911663055, -0.00176155392546207], "min" : [0.00176155392546207, -0.998238444328308]}, {"bufferView" : 0, "byteOffset" : 19454880, "componentType" : 5125, "count" : 1888884, "type" : "SCALAR", "max" : [319627], "min" : [0]}, {"bufferView" : 12, "byteOffset" : 0, "componentType" : 5126, "count" : 319628, "type" : "VEC3", "max" : [4.43968439102173, 1.7460024356842, 16.0809707641602], "min" : [-4.4345269203186, -2.31464123725891, 9.77557563781738]}, {"bufferView" : 12, "byteOffset" : 12, "componentType" : 5126, "count" : 319628, "type" : "VEC3", "max" : [1.00000250339508, 1.00000333786011, 0.999959528446198], "min" : [-0.999999046325684, -1.00000393390656, -0.999914169311523]}, {"bufferView" : 12, "byteOffset" : 24, "componentType" : 5126, "count" : 319628, "type" : "VEC2", "max" : [0.991472005844116, -0.00852802861481905], "min" : [0.00852802861481905, -0.880068600177765]}, {"bufferView" : 0, "byteOffset" : 27010416, "componentType" : 5125, "count" : 558663, "type" : "SCALAR", "max" : [96720], "min" : [0]}, {"bufferView" : 13, "byteOffset" : 0, "componentType" : 5126, "count" : 96721, "type" : "VEC3", "max" : [3.11605334281921, 1.62723982334137, 10.7773027420044], "min" : [-3.08515286445618, -2.12671828269959, -0.0647700726985931]}, {"bufferView" : 13, "byteOffset" : 12, "componentType" : 5126, "count" : 96721, "type" : "VEC3", "max" : [0.999997198581696, 1.00000262260437, 1.00000441074371], "min" : [-0.999988496303558, -0.999992847442627, -0.99998015165329]}, {"bufferView" : 13, "byteOffset" : 24, "componentType" : 5126, "count" : 96721, "type" : "VEC2", "max" : [0.987625479698181, -0.0123745715245605], "min" : [0.0123745715245605, -0.968957245349884]}], "asset" : {"generator" : "Aspose.3D 20.2.1", "version" : "2.0"}, "buffers" : [{"uri" : "buffer.bin", "byteLength" : 72565076}], "bufferViews" : [{"buffer" : 0, "byteOffset" : 0, "byteLength" : 29245068, "target" : 34963}, {"buffer" : 0, "byteOffset" : 29245072, "byteLength" : 11289856, "byteStride" : 32, "target" : 34962}, {"buffer" : 0, "byteOffset" : 40534932, "byteLength" : 167072, "byteStride" : 32, "target" : 34962}, {"buffer" : 0, "byteOffset" : 40702008, "byteLength" : 608288, "byteStride" : 32, "target" : 34962}, {"buffer" : 0, "byteOffset" : 41310300, "byteLength" : 124464, "byteStride" : 24, "target" : 34962}, {"buffer" : 0, "byteOffset" : 41434768, "byteLength" : 1664, "byteStride" : 32, "target" : 34962}, {"buffer" : 0, "byteOffset" : 41436436, "byteLength" : 9210240, "byteStride" : 32, "target" : 34962}, {"buffer" : 0, "byteOffset" : 50646680, "byteLength" : 372064, "byteStride" : 32, "target" : 34962}, {"buffer" : 0, "byteOffset" : 51018748, "byteLength" : 216416, "byteStride" : 32, "target" : 34962}, {"buffer" : 0, "byteOffset" : 51235168, "byteLength" : 4264992, "byteStride" : 32, "target" : 34962}, {"buffer" : 0, "byteOffset" : 55500164, "byteLength" : 2237984, "byteStride" : 32, "target" : 34962}, {"buffer" : 0, "byteOffset" : 57738152, "byteLength" : 1503744, "byteStride" : 32, "target" : 34962}, {"buffer" : 0, "byteOffset" : 59241900, "byteLength" : 10228096, "byteStride" : 32, "target" : 34962}, {"buffer" : 0, "byteOffset" : 69470000, "byteLength" : 3095072, "byteStride" : 32, "target" : 34962}], "images" : [{"uri" : "C:\\Users\\eric\\Downloads\\EMU NASA Space Suit\\EMU NASA Space Suit\\Textures\\BACKPACK\\BACKPACK_BACKPACK_BaseColor.png"}, {"uri" : "C:\\Users\\eric\\Downloads\\EMU NASA Space Suit\\EMU NASA Space Suit\\Textures\\TORSO_RADIO\\TORSO_RADIO_BUST_RADIO_BaseColor.png"}, {"uri" : "C:\\Users\\eric\\Downloads\\EMU NASA Space Suit\\EMU NASA Space Suit\\Textures\\TORSO_RADIO\\TORSO_RADIO_BUST_RADIO_BaseColor.png"}, {"uri" : "C:\\Users\\eric\\Downloads\\EMU NASA Space Suit\\EMU NASA Space Suit\\Textures\\GOLVES\\GLOVES_GLOVES_BaseColor.png"}, {"uri" : "C:\\Users\\eric\\Downloads\\EMU NASA Space Suit\\EMU NASA Space Suit\\Textures\\HELMET\\HELMET_HELMET_BaseColor.png"}, {"uri" : "C:\\Users\\eric\\Downloads\\EMU NASA Space Suit\\EMU NASA Space Suit\\Textures\\HELMET\\HELMET_HELMET_BaseColor.png"}, {"uri" : "C:\\Users\\eric\\Downloads\\EMU NASA Space Suit\\EMU NASA Space Suit\\Textures\\SAFER\\SAFER_SAFER_BaseColor.png"}, {"uri" : "C:\\Users\\eric\\Downloads\\EMU NASA Space Suit\\EMU NASA Space Suit\\Textures\\SAFER\\SAFER_SAFER_BaseColor.png"}, {"uri" : "C:\\Users\\eric\\Downloads\\EMU NASA Space Suit\\EMU NASA Space Suit\\Textures\\SAFER\\SAFER_SAFER_BaseColor.png"}, {"uri" : "C:\\Users\\eric\\Downloads\\EMU NASA Space Suit\\EMU NASA Space Suit\\Textures\\TORSO\\TORSO_TORSO_BaseColor.png"}, {"uri" : "C:\\Users\\eric\\Downloads\\EMU NASA Space Suit\\EMU NASA Space Suit\\Textures\\PANTS\\PANTS_PANTS_BaseColor.png"}], "materials" : [{"pbrMetallicRoughness" : {"baseColorFactor" : [0.5, 0.5, 0.5, 1], "baseColorTexture" : {"index" : 0, "texCoord" : 0}, "metallicFactor" : 0, "roughnessFactor" : 0}, "emissiveFactor" : [0, 0, 0], "alphaMode" : "OPAQUE", "doubleSided" : false}, {"pbrMetallicRoughness" : {"baseColorFactor" : [0.5, 0.5, 0.5, 1], "baseColorTexture" : {"index" : 1, "texCoord" : 0}, "metallicFactor" : 0, "roughnessFactor" : 0}, "emissiveFactor" : [0, 0, 0], "alphaMode" : "OPAQUE", "doubleSided" : false}, {"pbrMetallicRoughness" : {"baseColorFactor" : [0.5, 0.5, 0.5, 1], "baseColorTexture" : {"index" : 2, "texCoord" : 0}, "metallicFactor" : 0, "roughnessFactor" : 0}, "emissiveFactor" : [0, 0, 0], "alphaMode" : "OPAQUE", "doubleSided" : false}, {"pbrMetallicRoughness" : {"baseColorFactor" : [0.5, 0.5, 0.5, 1], "metallicFactor" : 0, "roughnessFactor" : 0}, "emissiveFactor" : [0, 0, 0], "alphaMode" : "OPAQUE", "doubleSided" : false}, {"pbrMetallicRoughness" : {"baseColorFactor" : [0.800000011920929, 0.800000011920929, 0.800000011920929, 1], "metallicFactor" : 0, "roughnessFactor" : 0}, "emissiveFactor" : [0, 0, 0], "alphaMode" : "OPAQUE", "doubleSided" : false}, {"pbrMetallicRoughness" : {"baseColorFactor" : [0.5, 0.5, 0.5, 1], "baseColorTexture" : {"index" : 3, "texCoord" : 0}, "metallicFactor" : 0, "roughnessFactor" : 0}, "emissiveFactor" : [0, 0, 0], "alphaMode" : "OPAQUE", "doubleSided" : false}, {"pbrMetallicRoughness" : {"baseColorFactor" : [0.5, 0.5, 0.5, 1], "baseColorTexture" : {"index" : 4, "texCoord" : 0}, "metallicFactor" : 0, "roughnessFactor" : 0}, "emissiveFactor" : [0, 0, 0], "alphaMode" : "OPAQUE", "doubleSided" : false}, {"pbrMetallicRoughness" : {"baseColorFactor" : [0.5, 0.5, 0.5, 1], "baseColorTexture" : {"index" : 5, "texCoord" : 0}, "metallicFactor" : 0, "roughnessFactor" : 0}, "emissiveFactor" : [0, 0, 0], "alphaMode" : "OPAQUE", "doubleSided" : false}, {"pbrMetallicRoughness" : {"baseColorFactor" : [0.5, 0.5, 0.5, 1], "baseColorTexture" : {"index" : 6, "texCoord" : 0}, "metallicFactor" : 0, "roughnessFactor" : 0}, "emissiveFactor" : [0, 0, 0], "alphaMode" : "OPAQUE", "doubleSided" : false}, {"pbrMetallicRoughness" : {"baseColorFactor" : [0.5, 0.5, 0.5, 1], "baseColorTexture" : {"index" : 7, "texCoord" : 0}, "metallicFactor" : 0, "roughnessFactor" : 0}, "emissiveFactor" : [0, 0, 0], "alphaMode" : "OPAQUE", "doubleSided" : false}, {"pbrMetallicRoughness" : {"baseColorFactor" : [0.5, 0.5, 0.5, 1], "baseColorTexture" : {"index" : 8, "texCoord" : 0}, "metallicFactor" : 0, "roughnessFactor" : 0}, "emissiveFactor" : [0, 0, 0], "alphaMode" : "OPAQUE", "doubleSided" : false}, {"pbrMetallicRoughness" : {"baseColorFactor" : [0.5, 0.5, 0.5, 1], "baseColorTexture" : {"index" : 9, "texCoord" : 0}, "metallicFactor" : 0, "roughnessFactor" : 0}, "emissiveFactor" : [0, 0, 0], "alphaMode" : "OPAQUE", "doubleSided" : false}, {"pbrMetallicRoughness" : {"baseColorFactor" : [0.5, 0.5, 0.5, 1], "baseColorTexture" : {"index" : 10, "texCoord" : 0}, "metallicFactor" : 0, "roughnessFactor" : 0}, "emissiveFactor" : [0, 0, 0], "alphaMode" : "OPAQUE", "doubleSided" : false}], "meshes" : [{"primitives" : [{"attributes" : {"POSITION" : 1, "NORMAL" : 2, "TEXCOORD_0" : 3}, "indices" : 0, "material" : 0, "mode" : 4}]}, {"primitives" : [{"attributes" : {"POSITION" : 5, "NORMAL" : 6, "TEXCOORD_0" : 7}, "indices" : 4, "material" : 1, "mode" : 4}]}, {"primitives" : [{"attributes" : {"POSITION" : 9, "NORMAL" : 10, "TEXCOORD_0" : 11}, "indices" : 8, "material" : 2, "mode" : 4}]}, {"primitives" : [{"attributes" : {"POSITION" : 13, "NORMAL" : 14}, "indices" : 12, "material" : 3, "mode" : 4}]}, {"primitives" : [{"attributes" : {"POSITION" : 16, "NORMAL" : 17, "TEXCOORD_0" : 18}, "indices" : 15, "material" : 4, "mode" : 4}]}, {"primitives" : [{"attributes" : {"POSITION" : 20, "NORMAL" : 21, "TEXCOORD_0" : 22}, "indices" : 19, "material" : 5, "mode" : 4}]}, {"primitives" : [{"attributes" : {"POSITION" : 24, "NORMAL" : 25, "TEXCOORD_0" : 26}, "indices" : 23, "material" : 6, "mode" : 4}]}, {"primitives" : [{"attributes" : {"POSITION" : 28, "NORMAL" : 29, "TEXCOORD_0" : 30}, "indices" : 27, "material" : 7, "mode" : 4}]}, {"primitives" : [{"attributes" : {"POSITION" : 32, "NORMAL" : 33, "TEXCOORD_0" : 34}, "indices" : 31, "material" : 8, "mode" : 4}]}, {"primitives" : [{"attributes" : {"POSITION" : 36, "NORMAL" : 37, "TEXCOORD_0" : 38}, "indices" : 35, "material" : 9, "mode" : 4}]}, {"primitives" : [{"attributes" : {"POSITION" : 40, "NORMAL" : 41, "TEXCOORD_0" : 42}, "indices" : 39, "material" : 10, "mode" : 4}]}, {"primitives" : [{"attributes" : {"POSITION" : 44, "NORMAL" : 45, "TEXCOORD_0" : 46}, "indices" : 43, "material" : 11, "mode" : 4}]}, {"primitives" : [{"attributes" : {"POSITION" : 48, "NORMAL" : 49, "TEXCOORD_0" : 50}, "indices" : 47, "material" : 12, "mode" : 4}]}], "nodes" : [{"matrix" : [100, 0, 0, 0, 0, -1.62920678059564E-05, -99.9999999999987, 0, 0, 99.9999999999987, -1.62920678059564E-05, 0, 0, 0, 0, 1], "mesh" : 0, "name" : "BACKPACK"}, {"matrix" : [100, 0, 0, 0, 0, -1.62920678059564E-05, -99.9999999999987, 0, 0, 99.9999999999987, -1.62920678059564E-05, 0, 0, 0, 0, 1], "mesh" : 1, "name" : "BUST_RADIO_cloth"}, {"matrix" : [100, 0, 0, 0, 0, -1.62920678059564E-05, -99.9999999999987, 0, 0, 99.9999999999987, -1.62920678059564E-05, 0, 0, 0, 0, 1], "mesh" : 2, "name" : "BUST_RADIO"}, {"matrix" : [100, 0, 0, 0, 0, -1.62920678059564E-05, -99.9999999999987, 0, 0, 99.9999999999987, -1.62920678059564E-05, 0, 0, 0, 0, 1], "mesh" : 3, "name" : "VISOR"}, {"matrix" : [100, 0, 0, 0, 0, -1.62920678059564E-05, -99.9999999999987, 0, 0, 99.9999999999987, -1.62920678059564E-05, 0, 0, 0, 0, 1], "mesh" : 4, "name" : "BACKPACK_CUBE_BLACK"}, {"matrix" : [100, 0, 0, 0, 0, -1.62920678059564E-05, -99.9999999999987, 0, 0, 99.9999999999987, -1.62920678059564E-05, 0, 0, 0, 0, 1], "mesh" : 5, "name" : "GLOVES"}, {"matrix" : [100, 0, 0, 0, 0, -1.62920678059564E-05, -99.9999999999987, 0, 0, 99.9999999999987, -1.62920678059564E-05, 0, 0, 0, 0, 1], "mesh" : 6, "name" : "HELMET"}, {"matrix" : [100, 0, 0, 0, 0, -1.62920678059564E-05, -99.9999999999987, 0, 0, 99.9999999999987, -1.62920678059564E-05, 0, 0, 0, 0, 1], "mesh" : 7, "name" : "HELMET_cloth"}, {"matrix" : [100, 0, 0, 0, 0, -1.62920678059564E-05, -99.9999999999987, 0, 0, 99.9999999999987, -1.62920678059564E-05, 0, 0, 0, 0, 1], "mesh" : 8, "name" : "SAFER_cloth"}, {"matrix" : [100, 0, 0, 0, 0, -1.62920678059564E-05, -99.9999999999987, 0, 0, 99.9999999999987, -1.62920678059564E-05, 0, 0, 0, 0, 1], "mesh" : 9, "name" : "SAFER_buckle"}, {"matrix" : [100, 0, 0, 0, 0, -1.62920678059564E-05, -99.9999999999987, 0, 0, 99.9999999999987, -1.62920678059564E-05, 0, 0, 0, 0, 1], "mesh" : 10, "name" : "SAFER"}, {"matrix" : [100, 0, 0, 0, 0, -1.62920678059564E-05, -99.9999999999987, 0, 0, 99.9999999999987, -1.62920678059564E-05, 0, 0, 0, 0, 1], "mesh" : 11, "name" : "TORSO"}, {"matrix" : [100, 0, 0, 0, 0, -1.62920678059564E-05, -99.9999999999987, 0, 0, 99.9999999999987, -1.62920678059564E-05, 0, 0, 0, 0, 1], "mesh" : 12, "name" : "PANTS"}], "samplers" : [{"magFilter" : 9729, "minFilter" : 9729, "wrapS" : 10497, "wrapT" : 10497}, {"magFilter" : 9729, "minFilter" : 9729, "wrapS" : 10497, "wrapT" : 10497}, {"magFilter" : 9729, "minFilter" : 9729, "wrapS" : 10497, "wrapT" : 10497}, {"magFilter" : 9729, "minFilter" : 9729, "wrapS" : 10497, "wrapT" : 10497}, {"magFilter" : 9729, "minFilter" : 9729, "wrapS" : 10497, "wrapT" : 10497}, {"magFilter" : 9729, "minFilter" : 9729, "wrapS" : 10497, "wrapT" : 10497}, {"magFilter" : 9729, "minFilter" : 9729, "wrapS" : 10497, "wrapT" : 10497}, {"magFilter" : 9729, "minFilter" : 9729, "wrapS" : 10497, "wrapT" : 10497}, {"magFilter" : 9729, "minFilter" : 9729, "wrapS" : 10497, "wrapT" : 10497}, {"magFilter" : 9729, "minFilter" : 9729, "wrapS" : 10497, "wrapT" : 10497}, {"magFilter" : 9729, "minFilter" : 9729, "wrapS" : 10497, "wrapT" : 10497}], "scene" : 0, "scenes" : [{"nodes" : [0, 1, 2, 3, 4, 5, 6, 7, 8, 9, 10, 11, 12]}], "textures" : [{"sampler" : 0, "source" : 0}, {"sampler" : 1, "source" : 1}, {"sampler" : 2, "source" : 2}, {"sampler" : 3, "source" : 3}, {"sampler" : 4, "source" : 4}, {"sampler" : 5, "source" : 5}, {"sampler" : 6, "source" : 6}, {"sampler" : 7, "source" : 7}, {"sampler" : 8, "source" : 8}, {"sampler" : 9, "source" : 9}, {"sampler" : 10, "source" : 10}]}