<?xml version="1.0" encoding="utf-8"?>
<!-- Generator: Adobe Illustrator 23.0.3, SVG Export Plug-In . SVG Version: 6.00 Build 0)  -->
<svg version="1.1" id="demoSVG" xmlns="http://www.w3.org/2000/svg" xmlns:xlink="http://www.w3.org/1999/xlink" x="0px" y="0px"
	 viewBox="0 0 675 763.7" style="enable-background:new 0 0 675 763.7;" xml:space="preserve">
<style type="text/css">
	.st0{fill:url(#bubbles_6_1_);}
	.st1{fill:url(#bubbles_5_1_);}
	.st2{fill:url(#bubbles_4_1_);}
	.st3{fill:url(#bubbles_3_1_);}
	.st4{fill:url(#bubbles_2_1_);}
	.st5{fill:url(#bubbles_1_1_);}
	.st6{fill:url(#rectangles_3_1_);}
	.st7{fill:url(#rectangles_2_1_);}
	.st8{fill:url(#rectangles_1_1_);}
</style>
<g id="bubbles">
	
		<radialGradient id="bubbles_6_1_" cx="310" cy="716" r="429.2144" fx="314.6407" fy="721.0987" gradientTransform="matrix(1 0 0 1 0 -320)" gradientUnits="userSpaceOnUse">
		<stop  offset="0" style="stop-color:#1D0882"/>
		<stop  offset="0.2188" style="stop-color:#83072D;stop-opacity:0.57"/>
		<stop  offset="0.9845" style="stop-color:#074183;stop-opacity:0"/>
	</radialGradient>
	<path id="bubbles_6" class="st0" d="M586.1,371.1c59.6-77.8,7.5-230.9-22.8-273.1C481.7-15.8,386.1-4.4,349.3,6.6
		C239.8,39.3,138.9,181.8,117.2,283.1c-49,228.3,304.7,413.8,345,321.9C506.1,504.8,508.5,472.5,586.1,371.1z"/>
	
		<radialGradient id="bubbles_5_1_" cx="261" cy="738" r="345.8974" gradientTransform="matrix(1 0 0 1 0 -320)" gradientUnits="userSpaceOnUse">
		<stop  offset="0" style="stop-color:#058276;stop-opacity:0.84"/>
		<stop  offset="0.9116" style="stop-color:#058276;stop-opacity:0"/>
	</radialGradient>
	<path id="bubbles_5" class="st1" d="M37,215c51.8-38.5,110.3-11.4,125,4c17.8,18.7,53.4,138.4,88,160s104.7,58.6-8,67
		S55.3,433.7,21,368C-12.4,304-4.2,245.6,37,215z"/>
	
		<radialGradient id="bubbles_4_1_" cx="130.8828" cy="708.7891" r="159.6152" fx="126.6455" fy="705.4105" gradientTransform="matrix(1 0 0 1 0 -320)" gradientUnits="userSpaceOnUse">
		<stop  offset="0" style="stop-color:#9DA612;stop-opacity:0.84"/>
		<stop  offset="0.9116" style="stop-color:#9DA612;stop-opacity:0"/>
	</radialGradient>
	<path id="bubbles_4" class="st2" d="M68,277.9c35.2-23.1,89.2-15.1,106.4-12.1s77.2,51.4,62.6,106.9c-18.2,69.1-85,114.6-171,53.2
		C10.4,386.3,31.4,302,68,277.9z"/>
	
		<radialGradient id="bubbles_3_1_" cx="502.7031" cy="786.6992" r="171.2104" gradientTransform="matrix(1 0 0 1 0 -320)" gradientUnits="userSpaceOnUse">
		<stop  offset="0" style="stop-color:#E97F6A"/>
		<stop  offset="0.9023" style="stop-color:#E97F6A;stop-opacity:0"/>
	</radialGradient>
	<path id="bubbles_3" class="st3" d="M550,416c42.6-23.2,78.7-11.2,90.3,14.7c11.4,25.5-0.7,50.3-34.3,63.3c-23.7,9.1-104-6-143-21
		C495.2,445.2,501.2,442.6,550,416z"/>
	
		<radialGradient id="bubbles_2_1_" cx="575.5352" cy="775.7773" r="130.893" gradientTransform="matrix(1 0 0 1 0 -320)" gradientUnits="userSpaceOnUse">
		<stop  offset="0" style="stop-color:#BF94A2;stop-opacity:0.51"/>
		<stop  offset="1" style="stop-color:#BF94A2;stop-opacity:0"/>
	</radialGradient>
	<path id="bubbles_2" class="st4" d="M579,388.8c23.2-37.5,59.6-29.1,80-7.5s21.6,53.7,1,78.2c-14.5,17.2-82,25.6-119,24.6
		C552.4,447.6,551.1,433.9,579,388.8z"/>
	
		<radialGradient id="bubbles_1_1_" cx="89" cy="760" r="95.9281" fx="87.3398" fy="760.108" gradientTransform="matrix(1 0 0 1 0 -320)" gradientUnits="userSpaceOnUse">
		<stop  offset="0" style="stop-color:#FF931D;stop-opacity:0.51"/>
		<stop  offset="1" style="stop-color:#FAA847;stop-opacity:0"/>
	</radialGradient>
	<path id="bubbles_1" class="st5" d="M84.5,431.6c19.4-13.1,38.9-5,48,8.7s10.5,27.5,17.5,50.2c-15.8,4.1-55.5,6-68.8-8.7
		S67,443.5,84.5,431.6z"/>
</g>
<g id="rectangles">
	
		<radialGradient id="rectangles_3_1_" cx="320.8477" cy="777.6016" r="395.1354" gradientTransform="matrix(1 0 0 1 0 -320)" gradientUnits="userSpaceOnUse">
		<stop  offset="0" style="stop-color:#FAA847"/>
		<stop  offset="0.9673" style="stop-color:#FAA847;stop-opacity:0"/>
	</radialGradient>
	<path id="rectangles_3" class="st6" d="M155.6,253.7c28.1-34.2,86-8.3,203.6-8.3c140.6,0,78-9.1,169.7-11.4
		c93.3-2.4,77,20.7,59.4,160.7c-13.7,109-7.2,145.4-88.1,150.5c-67.9,4.3-180.9-23.6-275.3-26.4c-92.3-2.7-138.2,19.2-139.5-43.9
		C83.6,381.8,105.4,315,155.6,253.7z"/>
	
		<radialGradient id="rectangles_2_1_" cx="189" cy="765" r="459.8532" fx="146.9841" fy="799.268" gradientTransform="matrix(1 0 0 1 0 -320)" gradientUnits="userSpaceOnUse">
		<stop  offset="0" style="stop-color:#37A6F6"/>
		<stop  offset="0.9776" style="stop-color:#37A6F6;stop-opacity:0"/>
	</radialGradient>
	<path id="rectangles_2" class="st7" d="M359.6,261.9c47.5-6.2,190.4-21.1,214.6-16.7s23,51.1,15.5,111.4s16.7,146.6-8.1,172.9
		s-307.1-18.2-376.9-14.4s-96.6-31.3-117-75.2s-19.5-163.7,3.8-188.6S210.3,281.4,359.6,261.9z"/>
	
		<radialGradient id="rectangles_1_1_" cx="113.0117" cy="815.3594" r="571.8762" fx="88.7552" fy="801.3998" gradientTransform="matrix(1 0 0 1 0 -320)" gradientUnits="userSpaceOnUse">
		<stop  offset="0" style="stop-color:#F71C69;stop-opacity:0.67"/>
		<stop  offset="0.9152" style="stop-color:#F71C69;stop-opacity:0"/>
	</radialGradient>
	<path id="rectangles_1" class="st8" d="M106.9,228.6c-28.8,7-15,78.8-15.2,154.1c-0.2,79.3-19.2,103.8-2.5,124.4
		c22.3,27.6,116.6,10.8,250.4,15.8c56.9,2.1,198.1,11.4,218.1-3.9c63.8-49,68.1-188.1,11.4-236s-113-29.1-217.7-34
		S152.4,217.6,106.9,228.6z"/>
</g>
</svg>
