<svg xmlns="http://www.w3.org/2000/svg" viewBox="0 0 1375.32 230.83"><defs><style>.cls-1{isolation:isolate;}.cls-2{fill:#fe894b;}.cls-3{fill:#ff1390;}.cls-4{fill:#066ce1;}.cls-5{fill:#fcfcfc;}.cls-6{fill:#d6fe4b;}.cls-7{fill:#fc3179;}.cls-8{fill:#06ffeb;}.cls-9{fill:#fff;}.cls-10{fill:#ffe794;}.cls-11{fill:#fe4b4b;}.cls-12{fill:#830dff;}.cls-13{fill:#ffa017;}.cls-14{fill:#068d83;}.cls-15{fill:#ce4773;}.cls-16{fill:#ffd82e;}.cls-17{fill:#a2db4f;}.cls-18{fill:#ff458e;}.cls-19{fill:#e23329;}.cls-20{fill:#ff7616;}.cls-21{fill:#00a3ff;}.cls-22{fill:#fe2e01;mix-blend-mode:screen;}.cls-23{fill:#00ff01;}.cls-23,.cls-24{mix-blend-mode:lighten;}.cls-24{fill:#1e01fe;}</style></defs><title>Asset 17</title><g class="cls-1"><g id="Layer_2" data-name="Layer 2"><g id="Layer_1-2" data-name="Layer 1"><path class="cls-2" d="M480.62,119.9c-9.21-6.79-21.18-12.23-36.61-16.62-12.82-3.64-34.34-11.66-34.5-24.35-.16-13.09,11.57-23.1,27.89-23.81,13.45-.58,26.56,7.06,27.85,13.72,0,0,17.46-14.76,7.6-36.77A70.12,70.12,0,0,0,436,23.17c-33.72,1.46-58.86,25.61-58.48,56.15.13,10.38,3.9,25.42,21.11,38.11,9.21,6.79,21.19,12.23,36.62,16.62,12.81,3.64,34.34,11.65,34.49,24.35.16,13.08-11.56,23.09-27.88,23.8-13.45.6-26.56-7-27.85-13.71,0,0-17.18,14.83-7.6,36.76a70.22,70.22,0,0,0,34.1,9c.91,0,1.83,0,2.74-.06,33.71-1.47,58.85-25.61,58.47-56.16C501.61,147.63,497.84,132.59,480.62,119.9Z"/><path class="cls-3" d="M484.89,114c-9.21-6.79-21.19-12.22-36.62-16.61-12.81-3.65-34.34-11.66-34.49-24.35C413.62,60,425.34,50,441.66,49.26c13.46-.58,26.56,7.05,27.85,13.71,0,0,17.46-14.75,7.6-36.76a70.12,70.12,0,0,0-36.84-8.91c-33.71,1.47-58.85,25.61-58.47,56.16.12,10.38,3.89,25.41,21.11,38.11,9.21,6.79,21.18,12.22,36.61,16.61,12.82,3.65,34.34,11.66,34.5,24.35.16,13.09-11.57,23.1-27.88,23.81-13.45.59-26.57-7.05-27.85-13.72,0,0-17.19,14.84-7.61,36.77a70.32,70.32,0,0,0,34.1,9c.92,0,1.83,0,2.74-.06,33.72-1.46,58.86-25.6,58.48-56.15C505.87,141.76,502.1,126.73,484.89,114Z"/><path class="cls-4" d="M478,114.56c-9.21-6.79-21.19-12.22-36.62-16.61C428.53,94.31,407,86.29,406.85,73.6c-.16-13.09,11.56-23.1,27.88-23.81,13.46-.58,26.56,7.06,27.85,13.72,0,0,17.46-14.76,7.6-36.77a70.12,70.12,0,0,0-36.84-8.9C399.63,19.3,374.49,43.45,374.87,74,375,84.37,378.76,99.41,396,112.1c9.21,6.79,21.18,12.23,36.61,16.61,12.82,3.65,34.34,11.66,34.5,24.36.16,13.08-11.57,23.09-27.88,23.8-13.45.6-26.57-7.05-27.85-13.71,0,0-17.19,14.83-7.61,36.76a70.22,70.22,0,0,0,34.1,9c.92,0,1.83,0,2.74-.06,33.72-1.47,58.86-25.61,58.48-56.16C498.94,142.29,495.17,127.26,478,114.56Z"/><path class="cls-5" d="M481.69,116.7c-9.21-6.79-21.19-12.23-36.62-16.62-12.81-3.64-34.33-11.65-34.49-24.35-.16-13.08,11.56-23.1,27.88-23.81C451.92,51.34,465,59,466.31,65.64c0,0,17.46-14.76,7.6-36.76A70,70,0,0,0,437.07,20c-33.71,1.47-58.85,25.61-58.47,56.16.13,10.37,3.89,25.41,21.11,38.1,9.21,6.79,21.18,12.23,36.61,16.62,12.82,3.64,34.34,11.65,34.5,24.35.16,13.08-11.57,23.1-27.88,23.81-13.45.59-26.56-7.06-27.85-13.72,0,0-17.19,14.83-7.61,36.77a70.38,70.38,0,0,0,34.1,9c.92,0,1.84,0,2.75-.06,33.71-1.47,58.85-25.61,58.47-56.15C502.67,144.43,498.91,129.39,481.69,116.7Z"/></g><g id="Layer_1_copy" data-name="Layer 1 copy"><path class="cls-6" d="M694.41,200.37s-18.16-16.88-2.2-41a67.19,67.19,0,1,0-120-41.52,66,66,0,0,0,12.3,38.73c18.2,25.18-1.69,42.73-1.69,42.73a99.17,99.17,0,1,1,111.61,1.05Z"/><path class="cls-7" d="M683.75,199.31s-18.16-16.89-2.2-41a67.19,67.19,0,1,0-120-41.52,66,66,0,0,0,12.3,38.74c18.2,25.17-1.69,42.72-1.69,42.72a99.17,99.17,0,1,1,111.61,1.06Z"/><path class="cls-8" d="M686.41,205.7s-18.16-16.88-2.19-41a67.19,67.19,0,1,0-120-41.52,66.08,66.08,0,0,0,12.3,38.73c18.2,25.18-1.69,42.73-1.69,42.73a99.17,99.17,0,1,1,111.61,1Z"/><path class="cls-9" d="M689.08,202s-18.16-16.88-2.2-41a67.19,67.19,0,1,0-120-41.52,66,66,0,0,0,12.3,38.73c18.2,25.18-1.69,42.73-1.69,42.73A99.17,99.17,0,1,1,689.08,202Z"/></g><g id="Layer_1_copy_2" data-name="Layer 1 copy 2"><path class="cls-10" d="M876.94,46a59.41,59.41,0,0,0-27.55-17.71,31.33,31.33,0,0,0-18.89,29.2c9.3.05,16.85,3.29,22.42,9.63a31.37,31.37,0,0,1,7.68,20.3c-.06,12.21-9.5,29.4-30.27,29.4l-60.77,0s-.15,79.8-.15,91.69a32.14,32.14,0,0,0,32-31.93c0-15.13,0-27.75,0-27.75h28.84c18,0,34.26-7,45.91-19.78a62.74,62.74,0,0,0,16.35-41.42A63.3,63.3,0,0,0,876.94,46Z"/><path class="cls-11" d="M866.82,39.59a59.51,59.51,0,0,0-27.56-17.72,31.33,31.33,0,0,0-18.89,29.2c9.3,0,16.85,3.29,22.42,9.63A31.38,31.38,0,0,1,850.47,81c-.06,12.2-9.5,29.39-30.27,29.39l-60.77,0s-.15,79.81-.15,91.69a32.13,32.13,0,0,0,32-31.93c0-15.12.06-27.75.06-27.75H820.2c18,0,34.27-7,45.91-19.78a62.72,62.72,0,0,0,16.35-41.42A63.34,63.34,0,0,0,866.82,39.59Z"/><path class="cls-12" d="M869,44.38A59.51,59.51,0,0,0,841.4,26.67a31.33,31.33,0,0,0-18.9,29.2c9.31.05,16.85,3.29,22.43,9.63a31.43,31.43,0,0,1,7.68,20.3c-.07,12.21-9.5,29.4-30.27,29.4l-60.77,0s-.15,79.8-.15,91.69a32.14,32.14,0,0,0,32-31.93c0-15.13.06-27.75.06-27.75h28.84c17.95,0,34.26-7,45.9-19.78A62.74,62.74,0,0,0,884.59,86,63.36,63.36,0,0,0,869,44.38Z"/><path class="cls-9" d="M872.68,43.32A59.53,59.53,0,0,0,845.13,25.6a31.31,31.31,0,0,0-18.89,29.2c9.3.05,16.84,3.29,22.42,9.63a31.38,31.38,0,0,1,7.68,20.31c-.07,12.2-9.5,29.39-30.27,29.39l-60.77,0s-.15,79.8-.15,91.68a32.12,32.12,0,0,0,32-31.93c0-15.12.06-27.74.06-27.74h28.84c18,0,34.26-7,45.91-19.78a62.79,62.79,0,0,0,16.34-41.43A63.34,63.34,0,0,0,872.68,43.32Z"/></g><g id="Layer_4" data-name="Layer 4"><path class="cls-13" d="M1030.72,208V24h32V176C1062.7,192.56,1049,208.42,1030.72,208Z"/><path class="cls-13" d="M1008.06,128.31l0-32-63.35,0V24c-16.46,0-32,13.37-32,32V208h32v-79.6Z"/><path class="cls-14" d="M1043,207.42V23.51h32V175.44C1075,192,1061.23,207.89,1043,207.42Z"/><path class="cls-14" d="M1020.32,127.78l0-32-63.35,0V23.51c-16.46,0-32,13.37-32,32V207.42h32v-79.6Z"/><path class="cls-15" d="M1035,202.62V18.71h32V170.64C1067,187.23,1053.23,203.09,1035,202.62Z"/><path class="cls-15" d="M1012.32,123l0-32L949,91V18.71c-16.45,0-32,13.37-32,32V202.62h32V123Z"/><path class="cls-9" d="M1038.18,205.82V21.91h32V173.84C1070.17,190.43,1056.43,206.29,1038.18,205.82Z"/><path class="cls-9" d="M1015.52,126.18l0-32-63.35,0V21.91c-16.45,0-32,13.37-32,32V205.82h32v-79.6Z"/></g><g id="Layer_5" data-name="Layer 5"><path class="cls-16" d="M1123.29,201.15V49.41c0-19.26,15.74-32,32-32V169.17C1155.27,188.43,1139.55,201.15,1123.29,201.15Z"/><path class="cls-17" d="M1112.09,207V55.27c0-19.25,15.75-32,32-32V175C1144.08,194.29,1128.35,207,1112.09,207Z"/><path class="cls-18" d="M1121.15,209.15V57.4c0-19.25,15.75-32,32-32V177.16C1153.14,196.42,1137.42,209.15,1121.15,209.15Z"/><path class="cls-9" d="M1118,205.42V53.67c0-19.25,15.74-32,32-32V173.43C1149.94,192.69,1134.22,205.42,1118,205.42Z"/></g><g id="Layer_6" data-name="Layer 6"><path class="cls-19" d="M1341.17,207.4,1275.61,90.62s-40.16,76.15-46.1,87.59c-7.33,14.87-24.43,22.35-43.46,13.91L1274.7,23.67s69.76,124,78.52,139.85C1363,181,1355.89,198.57,1341.17,207.4Z"/><path class="cls-20" d="M1358.76,202.06,1293.2,85.29s-40.16,76.15-46.1,87.59c-7.33,14.87-24.42,22.35-43.46,13.91L1292.3,18.34s69.76,124,78.51,139.85C1380.6,175.66,1373.48,193.24,1358.76,202.06Z"/><path class="cls-21" d="M1347,205.8,1281.47,89s-40.16,76.15-46.1,87.59C1228,191.48,1211,199,1191.91,190.52l88.66-168.45s69.76,124,78.51,139.85C1368.88,179.4,1361.75,197,1347,205.8Z"/><path class="cls-9" d="M1352.9,205.8,1287.34,89s-40.16,76.15-46.1,87.59c-7.33,14.87-24.43,22.35-43.47,13.91l88.66-168.45s69.76,124,78.51,139.85C1374.74,179.4,1367.61,197,1352.9,205.8Z"/></g><g id="Layer_11" data-name="Layer 11"><path class="cls-22" d="M136.1,230.49C116,230.8,95.85,223,94.18,184.91c-2-45.53.1-51.46-39.43-80.66-38.89-28.73-39.09-69.92-12.6-93,20-17.41,57.66-13.13,77.76,3s24,35.28,43.14,51.48,32,13.91,44.56,12,37.38-.08,43,18.62,1.08,38.39-32.06,45.37c-46.38,9.77-40.67,31.22-47.3,54.35C165.33,216.91,167.18,230.8,136.1,230.49Z"/><path class="cls-23" d="M54.7,230.12C6.51,227,2.46,212.52.69,205.46c-2.8-11.19,2.68-28.87,20.75-33.56,7.07-1.84,59.18,14.06,65.81-19,6.69-33.3-21.24-34.34-32.35-35.82-20.16-2.68-25.56-12.6-23.48-29.29S41.4,67,90.24,74.39c16.27,2.45,50.26,8.37,57.39,20.12,8.72,14.37,4.23,91.86-19.35,114.2C105.14,230.65,87.51,232.29,54.7,230.12Z"/><path class="cls-24" d="M129.86,182.44c-13.28-50-23-114.93,26.56-117.45,52.25-2.66,55.72,36.63,57.77,72.86s23.79,28.5,63.06,24.75c22.65-2.66,43.24,7,44.68,29.89s-16,35-35.07,36.84-42.45,1.35-52.74,1.19C159.53,230.09,143.13,232.47,129.86,182.44Z"/></g></g></g></svg>