<svg xmlns="http://www.w3.org/2000/svg" viewBox="0 0 1338.2 704.01"><defs><style>.cls-1{isolation:isolate;}.cls-2{fill:#fe894b;}.cls-3{fill:#ff1390;}.cls-4{fill:#066ce1;}.cls-5{fill:#fcfcfc;}.cls-6{fill:#d6fe4b;}.cls-7{fill:#fc3179;}.cls-8{fill:#06ffeb;}.cls-9{fill:#fff;}.cls-10{fill:#ffe794;}.cls-11{fill:#fe4b4b;}.cls-12{fill:#830dff;}.cls-13{fill:#ffa017;}.cls-14{fill:#068d83;}.cls-15{fill:#ce4773;}.cls-16{fill:#ffd82e;}.cls-17{fill:#a2db4f;}.cls-18{fill:#ff458e;}.cls-19{fill:#e23329;}.cls-20{fill:#ff7616;}.cls-21{fill:#00a3ff;}.cls-22{fill:#fe2e01;mix-blend-mode:screen;}.cls-23{fill:#00ff01;}.cls-23,.cls-24{mix-blend-mode:lighten;}.cls-24{fill:#1e01fe;}</style></defs><title>Asset 9</title><g class="cls-1"><g id="Layer_2" data-name="Layer 2"><g id="Layer_1-2" data-name="Layer 1"><path class="cls-2" d="M698.25,121.28c-10.88-8-25-14.44-43.26-19.63-15.14-4.31-40.57-13.77-40.76-28.77-.19-15.46,13.66-27.29,32.94-28.13,15.9-.69,31.39,8.34,32.91,16.21,0,0,20.63-17.44,9-43.44A82.81,82.81,0,0,0,645.53,7C605.7,8.73,576,37.25,576.44,73.35c.16,12.26,4.61,30,24.95,45,10.88,8,25,14.44,43.26,19.63,15.14,4.31,40.57,13.77,40.75,28.77.19,15.46-13.66,27.29-32.94,28.13-15.88.7-31.38-8.33-32.9-16.21,0,0-20.31,17.53-9,43.44a83,83,0,0,0,40.29,10.59c1.08,0,2.17,0,3.24-.07,39.83-1.73,69.54-30.25,69.09-66.34C723,154,718.59,136.28,698.25,121.28Z"/><path class="cls-3" d="M703.29,114.35c-10.88-8-25-14.44-43.26-19.63C644.88,90.42,619.45,81,619.27,66c-.19-15.46,13.66-27.29,32.94-28.13,15.9-.68,31.38,8.34,32.91,16.21,0,0,20.63-17.44,9-43.44A82.81,82.81,0,0,0,650.57.07C610.74,1.8,581,30.33,581.48,66.42c.15,12.26,4.6,30,24.95,45,10.88,8,25,14.45,43.26,19.63,15.14,4.31,40.57,13.77,40.75,28.77.19,15.46-13.66,27.29-32.94,28.13-15.89.7-31.38-8.33-32.9-16.2,0,0-20.31,17.52-9,43.43a83,83,0,0,0,40.29,10.6c1.08,0,2.17,0,3.24-.07,39.83-1.74,69.54-30.26,69.09-66.35C728.08,147.12,723.63,129.35,703.29,114.35Z"/><path class="cls-4" d="M695.1,115c-10.88-8-25-14.44-43.26-19.63-15.14-4.3-40.57-13.77-40.76-28.77-.19-15.46,13.67-27.29,32.95-28.13,15.9-.68,31.38,8.34,32.9,16.21,0,0,20.63-17.44,9-43.44A82.78,82.78,0,0,0,642.38.7C602.55,2.43,572.85,31,573.29,67.05c.16,12.26,4.61,30,25,45,10.88,8,25,14.45,43.26,19.63,15.14,4.31,40.57,13.77,40.76,28.77.19,15.46-13.67,27.29-33,28.13-15.88.7-31.38-8.33-32.9-16.2,0,0-20.3,17.52-9,43.43a83,83,0,0,0,40.29,10.6c1.09,0,2.17,0,3.24-.08C690.79,224.62,720.49,196.1,720,160,719.89,147.75,715.44,130,695.1,115Z"/><path class="cls-5" d="M699.51,117.5c-10.88-8-25-14.44-43.26-19.63-15.14-4.3-40.57-13.77-40.76-28.77C615.3,53.64,629.15,41.81,648.43,41c15.9-.69,31.38,8.34,32.91,16.21,0,0,20.63-17.44,9-43.44A82.81,82.81,0,0,0,646.79,3.22C607,5,577.26,33.47,577.7,69.57c.15,12.26,4.61,30,24.95,45,10.88,8,25,14.44,43.26,19.63,15.14,4.31,40.57,13.77,40.75,28.77.19,15.46-13.66,27.29-32.94,28.13-15.89.7-31.38-8.33-32.9-16.2,0,0-20.31,17.52-9,43.43a83,83,0,0,0,40.29,10.59c1.08,0,2.17,0,3.24-.07,39.83-1.73,69.54-30.25,69.09-66.34C724.3,150.27,719.85,132.5,699.51,117.5Z"/></g><g id="Layer_1_copy" data-name="Layer 1 copy"><path class="cls-6" d="M950.84,216.36s-21.46-19.94-2.6-48.43a79.39,79.39,0,1,0-141.81-49.05A78,78,0,0,0,821,164.64c21.5,29.74-2,50.48-2,50.48a117.17,117.17,0,1,1,131.87,1.24Z"/><path class="cls-7" d="M938.24,215.1s-21.46-19.94-2.6-48.43a79.39,79.39,0,1,0-141.8-49,78.07,78.07,0,0,0,14.53,45.76c21.5,29.75-2,50.48-2,50.48a117.17,117.17,0,1,1,131.87,1.24Z"/><path class="cls-8" d="M941.39,222.66s-21.46-19.94-2.6-48.43A79.39,79.39,0,1,0,797,125.17a78.08,78.08,0,0,0,14.53,45.77c21.5,29.74-2,50.48-2,50.48a117.17,117.17,0,1,1,131.87,1.24Z"/><path class="cls-9" d="M944.54,218.25s-21.46-19.94-2.6-48.43a79.39,79.39,0,1,0-141.8-49,78.07,78.07,0,0,0,14.53,45.76c21.5,29.74-2,50.48-2,50.48a117.17,117.17,0,1,1,131.87,1.24Z"/></g><g id="Layer_1_copy_2" data-name="Layer 1 copy 2"><path class="cls-10" d="M919.8,272.25a70.31,70.31,0,0,0-32.55-20.94,37,37,0,0,0-22.32,34.51c11,.05,19.9,3.88,26.49,11.38a37,37,0,0,1,9.07,24c-.07,14.42-11.22,34.73-35.76,34.73l-71.8,0s-.18,94.29-.18,108.33a38,38,0,0,0,37.84-37.73c0-17.87.07-32.78.07-32.78h34.07c21.22,0,40.48-8.3,54.24-23.37a73.09,73.09,0,0,0,.83-98.08Z"/><path class="cls-11" d="M907.83,264.69a70.31,70.31,0,0,0-32.55-20.94A37,37,0,0,0,853,278.26c11,.06,19.91,3.88,26.49,11.38a37.07,37.07,0,0,1,9.08,24c-.08,14.42-11.23,34.72-35.77,34.72l-71.8,0s-.17,94.29-.17,108.33a38,38,0,0,0,37.83-37.72c0-17.87.07-32.79.07-32.79h34.07c21.22,0,40.48-8.3,54.24-23.37a73.06,73.06,0,0,0,.83-98.08Z"/><path class="cls-12" d="M910.35,270.36a70.31,70.31,0,0,0-32.55-20.94,37,37,0,0,0-22.32,34.51c11,.05,19.9,3.88,26.49,11.38a37.07,37.07,0,0,1,9.08,24C891,333.72,879.82,354,855.28,354l-71.8,0s-.17,94.29-.17,108.33a38,38,0,0,0,37.83-37.73c0-17.87.07-32.78.07-32.78h34.07c21.22,0,40.48-8.3,54.24-23.37a73.06,73.06,0,0,0,.83-98.08Z"/><path class="cls-9" d="M914.76,269.1a70.31,70.31,0,0,0-32.55-20.94,37,37,0,0,0-22.32,34.51c11,.05,19.9,3.88,26.49,11.38a37.07,37.07,0,0,1,9.08,24c-.08,14.43-11.23,34.73-35.77,34.73l-71.8,0s-.18,94.29-.18,108.33a38,38,0,0,0,37.84-37.73c0-17.86.07-32.78.07-32.78h34.07c21.22,0,40.48-8.3,54.24-23.37a73.06,73.06,0,0,0,.83-98.08Z"/></g><g id="Layer_4" data-name="Layer 4"><path class="cls-13" d="M1101.49,463.61V246.32h37.79v179.5C1139.28,445.43,1123.05,464.16,1101.49,463.61Z"/><path class="cls-13" d="M1074.71,369.52l0-37.79-74.85,0V246.32c-19.44,0-37.79,15.8-37.79,37.79v179.5h37.79V369.56Z"/><path class="cls-14" d="M1116,463V245.69h37.78v179.5C1153.76,444.8,1137.53,463.53,1116,463Z"/><path class="cls-14" d="M1089.2,368.89l0-37.79-74.85,0V245.69c-19.44,0-37.79,15.8-37.79,37.79V463h37.79V368.93Z"/><path class="cls-15" d="M1106.53,457.31V240h37.79V419.53C1144.32,439.13,1128.09,457.87,1106.53,457.31Z"/><path class="cls-15" d="M1079.75,363.22l0-37.79-74.85,0V240c-19.44,0-37.79,15.8-37.79,37.79v179.5h37.79V363.26Z"/><path class="cls-9" d="M1110.31,461.09V243.8h37.79V423.3C1148.1,442.91,1131.87,461.64,1110.31,461.09Z"/><path class="cls-9" d="M1083.53,367l0-37.79-74.85,0V243.8c-19.44,0-37.79,15.8-37.79,37.79v179.5h37.79V367Z"/></g><g id="Layer_5" data-name="Layer 5"><path class="cls-16" d="M1040.43,694.27V515c0-22.75,18.6-37.79,37.79-37.79V656.48C1078.22,679.24,1059.64,694.27,1040.43,694.27Z"/><path class="cls-17" d="M1027.2,701.2V521.92c0-22.75,18.6-37.79,37.79-37.79V663.41C1065,686.17,1046.41,701.2,1027.2,701.2Z"/><path class="cls-18" d="M1037.91,703.72V524.44c0-22.75,18.6-37.79,37.79-37.79V665.93C1075.7,688.69,1057.12,703.72,1037.91,703.72Z"/><path class="cls-9" d="M1034.13,699.31V520c0-22.75,18.6-37.79,37.79-37.79V661.52C1071.92,684.28,1053.34,699.31,1034.13,699.31Z"/></g><g id="Layer_6" data-name="Layer 6"><path class="cls-19" d="M1297.85,701.65l-77.45-138s-47.45,90-54.47,103.5c-8.66,17.56-28.86,26.4-51.35,16.42l104.74-199s82.43,146.53,92.77,165.23C1323.66,670.46,1315.24,691.23,1297.85,701.65Z"/><path class="cls-20" d="M1318.64,695.35l-77.46-138s-47.45,90-54.47,103.49c-8.66,17.56-28.86,26.4-51.35,16.42l104.75-199s82.42,146.53,92.76,165.23C1344.44,664.16,1336,684.93,1318.64,695.35Z"/><path class="cls-21" d="M1304.78,699.76l-77.46-138s-47.45,90-54.47,103.5c-8.65,17.56-28.85,26.4-51.35,16.42l104.75-199s82.43,146.53,92.76,165.23C1330.59,668.57,1322.17,689.34,1304.78,699.76Z"/><path class="cls-9" d="M1311.71,699.76l-77.46-138s-47.45,90-54.47,103.5c-8.65,17.56-28.85,26.4-51.35,16.42l104.75-199s82.42,146.53,92.76,165.23C1337.52,668.57,1329.1,689.34,1311.71,699.76Z"/></g><g id="Layer_11" data-name="Layer 11"><path class="cls-22" d="M315.44,703.22c-46.52.72-93.3-17.28-97.16-105.65-4.62-105.51.23-119.26-91.39-186.94-90.14-66.58-90.6-162-29.21-215.62,46.26-40.35,133.64-30.41,180.23,7.07s55.62,81.76,100,119.33,74.15,32.22,103.26,27.78S567.81,349,581,392.34s2.51,89-74.32,105.15c-107.49,22.64-94.23,72.37-109.61,126C383.18,671.73,387.46,703.94,315.44,703.22Z"/><path class="cls-23" d="M126.78,702.37C15.08,695,5.69,661.57,1.6,645.19c-6.48-25.92,6.22-66.9,48.1-77.78,16.37-4.25,137.15,32.59,152.53-44.08,15.48-77.18-49.23-79.57-75-83C80.52,434.1,68,411.12,72.83,372.43s23.12-48.07,136.32-31c37.71,5.68,116.49,19.4,133,46.64C362.36,421.35,352,601,297.32,652.74,243.68,703.59,202.81,707.37,126.78,702.37Z"/><path class="cls-24" d="M301,591.86c-30.76-115.94-53.3-266.38,61.58-272.23,121.08-6.17,129.13,84.9,133.89,168.88s55.12,66,146.15,57.35c52.49-6.15,100.2,16.29,103.55,69.27s-37.09,81.2-81.28,85.41-98.38,3.12-122.23,2.74C369.74,702.3,331.73,707.8,301,591.86Z"/></g></g></g></svg>